<?xml version="1.0" encoding="UTF-8"?>
<svg id="Capa_2" data-name="Capa 2" xmlns="http://www.w3.org/2000/svg" viewBox="0 0 249.99 249.99">
  <defs>
    <style>
      .cls-1 {
        fill: #00a199;
      }
    </style>
  </defs>
  <g id="Capa_1-2" data-name="Capa 1">
    <g>
      <path class="cls-1" d="M249.98,22.75C248.99,10.25,239.62.91,227.21.01h-.18S21.84.15,21.84.15l-.67.05C9.46,1.8.96,10.86.02,22.75l-.02.2v204.28c.92,12.21,10.48,21.79,22.75,22.76l204.27.02h.17c12.23-.83,21.81-10.39,22.79-22.75l.02-.2V23.14l-.02-.39ZM226.37,237.25H24.11c-6.39-.22-10.82-4.55-11.37-10.89V23.63c.48-5.64,4-9.71,9.58-10.74l204.05-.14c6.22.53,10.35,4.67,10.89,10.89v202.26c-.22,6.39-4.55,10.82-10.89,11.37Z"/>
      <g>
        <path class="cls-1" d="M205.98,206.28h-32.96l-.37-62.47c-1.17-11.23-5.35-19.38-17.92-19.38-13.75,0-19.37,9.75-20.12,22.26l.02,59.59h-33.32v-108.29h31.87v14.85c1.79.04,2.44-2.62,3.47-3.95,9.97-12.87,26.88-15.53,42.1-12.1,19.08,4.31,25.23,19.65,26.86,37.6.81,23.93.16,47.94.37,71.89Z"/>
        <rect class="cls-1" x="46.25" y="97.99" width="33.32" height="108.29"/>
        <path class="cls-1" d="M61.76,44.13c23.64-1.47,27.88,33.28,5.53,38.12-27.09,5.87-32.69-36.43-5.53-38.12Z"/>
      </g>
    </g>
  </g>
</svg>