<svg width="42" height="37" viewBox="0 0 42 37" fill="none"
    xmlns="http://www.w3.org/2000/svg">
    <path class="fill-main" d="M27.8162 36.2224C24.7304 36.2224 22.3867 32.8788 20.9805 30.1296C19.5743 32.8602 17.2306 36.2224 14.1447 36.2224C9.39877 36.2224 3.89112 30.8912 3.89112 27.399C3.89112 25.1699 5.18014 23.6467 6.78166 22.5879C3.7544 21.4734 1.76227 19.1143 1.00057 15.6035C0.141223 11.4797 -0.952496 4.14236 1.50837 1.30029C2.25054 0.445814 3.2466 0 4.39891 0C11.137 0 18.0118 9.62216 21 14.3775C23.9882 9.64074 30.863 0 37.6011 0C38.7534 0 39.7495 0.445814 40.4916 1.30029C42.9525 4.14236 41.8588 11.4797 40.9994 15.6035C40.2377 19.1143 38.2456 21.4734 35.2183 22.5879C36.8199 23.6282 38.1089 25.1699 38.1089 27.399C38.1089 30.8912 32.6012 36.2224 27.8553 36.2224H27.8162ZM20.9805 25.0771C21.6055 25.0771 22.1718 25.4671 22.3671 26.0244C23.4218 29.0151 25.8827 33.4175 27.8162 33.4175C31.0388 33.4175 35.1402 29.3309 35.1402 27.3804C35.1402 24.074 28.6756 23.2009 28.617 23.1824C28.427 23.1607 28.2434 23.1037 28.0767 23.0144C27.91 22.9251 27.7635 22.8055 27.6456 22.6622C27.5276 22.519 27.4406 22.355 27.3894 22.1797C27.3383 22.0043 27.324 21.8211 27.3475 21.6406C27.4451 20.879 28.1482 20.3403 28.9685 20.4146C34.2027 20.9719 37.1909 19.2072 38.1089 15.0091C39.3198 9.19492 39.3784 4.38384 38.2065 3.02782C38.1351 2.93548 38.0404 2.86161 37.9313 2.81295C37.8221 2.76428 37.7019 2.74236 37.5816 2.74919C32.2887 2.74919 25.4725 12.1856 22.289 17.7583C22.0351 18.2041 21.5273 18.5013 21 18.5013C20.4727 18.5013 19.9649 18.2412 19.711 17.7954L19.6914 17.7583C16.5079 12.1856 9.69173 2.74919 4.39891 2.74919C4.12548 2.74919 3.94971 2.82349 3.77393 3.02782C2.62162 4.38384 2.66068 9.19492 3.87158 15.0091C4.78953 19.1886 7.77772 20.9533 13.0119 20.396C13.8322 20.3217 14.5353 20.8604 14.633 21.622C14.7306 22.3836 14.1643 23.0709 13.3635 23.1638C13.3049 23.1638 6.84025 24.0554 6.84025 27.3619C6.84025 29.3123 10.9417 33.3989 14.1643 33.3989C16.0978 33.3989 18.5587 28.9779 19.6133 26.0058C19.8086 25.43 20.375 25.0585 21 25.0585L20.9805 25.0771Z" fill="#08262E"/>
</svg>
