<svg width="42" height="37" viewBox="0 0 42 37" fill="none"
    xmlns="http://www.w3.org/2000/svg">
    <path class="fill-main" d="M39.982 1.04761C40.498 0.859698 41.0829 0.956741 41.4983 1.29954C41.9136 1.64234 42.09 2.17352 41.9557 2.67647L33.2807 35.1717C33.1513 35.6564 32.7535 36.0387 32.2393 36.1721C31.725 36.3055 31.1739 36.1694 30.7966 35.816L21.1599 26.7917L15.6785 33.6365C15.3479 34.0492 14.8002 34.2562 14.2564 34.1736C13.7127 34.091 13.2628 33.7323 13.0886 33.2429L8.94487 21.6025L0.818605 17.7975C0.294642 17.5522 -0.0255355 17.0406 0.00159857 16.4926C0.0287579 15.9446 0.39826 15.4631 0.944235 15.2643L39.982 1.04761ZM5.13176 16.7151L10.8186 19.378L10.8835 19.4105C11.2027 19.5791 11.4447 19.8531 11.5612 20.1803L15.0049 29.8548L19.0444 24.8107L17.784 23.6303C17.2056 23.0887 17.2056 22.2107 17.784 21.669L26.4591 13.5452C27.0375 13.0036 27.975 13.0036 28.5534 13.5452C29.1319 14.0869 29.1319 14.9649 28.5534 15.5065L20.9256 22.6497L22.0451 23.6981C22.0517 23.7042 22.0584 23.7103 22.0649 23.7166L31.0412 32.1226L38.3877 4.60409L5.13176 16.7151Z" fill="#08262E"/>
</svg>
