<svg width="37" height="36" viewBox="0 0 37 36" fill="none"
    xmlns="http://www.w3.org/2000/svg">
    <path class="fill-main" d="M1.12491 24.4936C1.81689 24.1836 2.64724 24.4555 2.97966 25.1009C4.35129 27.7641 6.10691 29.3915 8.06244 30.1853C10.0133 30.9772 12.3532 31.0167 15.0592 30.1651L15.9484 32.6218C12.7494 33.6286 9.67632 33.6682 6.95294 32.5627C4.23424 31.4591 2.05386 29.2915 0.473783 26.2235C0.141411 25.5781 0.432938 24.8036 1.12491 24.4936ZM15.0592 30.1651C15.7866 29.9362 16.5753 30.3004 16.8208 30.9788C17.0662 31.6572 16.6756 32.3928 15.9484 32.6218L15.0592 30.1651Z" fill="#08262E"/>
    <path class="fill-main" d="M14.0772 33.7706V28.529C14.0772 27.4456 14.3809 26.4936 14.8562 25.6554C12.4199 24.9703 10.1374 24.0135 8.45172 22.2444C6.61333 20.3149 5.65845 17.6107 5.65845 13.794C5.65847 11.6232 6.40148 9.60231 7.67045 7.86928L7.84608 7.62797C7.84676 7.62703 7.84718 7.62593 7.84785 7.625V7.62457C7.82864 7.5467 7.805 7.45657 7.77486 7.34078V7.33951C7.2425 5.28724 7.26403 3.05446 8.09692 1.00396L8.12656 0.936833C8.28367 0.605951 8.57804 0.351796 8.94012 0.237981L9.36305 1.4785C8.94036 0.238135 8.94153 0.237521 8.94277 0.237131C8.94326 0.23698 8.94463 0.23653 8.94543 0.236281C8.94705 0.235779 8.94863 0.235092 8.95029 0.234582C8.95378 0.233514 8.95767 0.232707 8.96135 0.231608C8.96865 0.229435 8.97629 0.227086 8.98436 0.224811C9.00069 0.220207 9.01884 0.215234 9.03833 0.210367C9.07728 0.200642 9.12269 0.190645 9.17415 0.181053C9.27727 0.161839 9.40483 0.144756 9.55726 0.135171C9.86327 0.115942 10.2635 0.127971 10.7615 0.213765C11.7561 0.385137 13.1273 0.847674 14.9217 1.92372H14.9222C15.3215 2.1634 15.567 2.31054 15.7552 2.40846C15.8298 2.44726 15.8783 2.4681 15.9056 2.47941C15.9362 2.47665 15.9915 2.47078 16.079 2.45519C16.2959 2.41656 16.5864 2.34708 17.0545 2.2347L17.0571 2.23428C18.4526 1.90205 19.8855 1.73772 21.3231 1.74487H21.3369C22.7734 1.74005 24.2051 1.90476 25.5998 2.23555L25.6037 2.2364C26.0702 2.34837 26.3618 2.41764 26.5788 2.45604C26.6673 2.4717 26.7233 2.47744 26.7549 2.48026C26.7825 2.46866 26.8303 2.44781 26.9026 2.41016C27.0909 2.31211 27.3368 2.16505 27.7361 1.92542L27.7365 1.925C29.5309 0.849011 30.9022 0.386832 31.8968 0.215465C32.3946 0.129703 32.7946 0.117233 33.1005 0.136445C33.2531 0.146033 33.3809 0.163521 33.4841 0.182752C33.5356 0.192356 33.5809 0.20233 33.6199 0.212066C33.6394 0.216934 33.6575 0.221906 33.6739 0.22651C33.6819 0.228786 33.6896 0.231134 33.6969 0.233308C33.7006 0.234407 33.7045 0.235213 33.7079 0.236281C33.7096 0.236791 33.7112 0.237479 33.7128 0.237981C33.7137 0.238244 33.715 0.238698 33.7155 0.23883C33.7165 0.239604 33.7102 0.26114 33.3248 1.39226L33.7181 0.23968C34.1043 0.361117 34.4136 0.642092 34.5613 1.00566C35.3942 3.05617 35.4158 5.28892 34.8834 7.34121L34.8829 7.34248C34.8531 7.45702 34.8301 7.54719 34.8113 7.62415C34.8111 7.62488 34.8106 7.62554 34.8104 7.62627C34.8117 7.6281 34.813 7.62993 34.8144 7.63179C34.8612 7.6976 34.9168 7.7741 34.9878 7.87098L35.105 8.03454C36.3023 9.73072 36.9998 11.6927 36.9998 13.7957C36.9998 17.6125 36.0447 20.3169 34.2061 22.2461C32.5203 24.0148 30.2379 24.9704 27.8016 25.6541C28.2769 26.4924 28.581 27.4444 28.581 28.529V33.7706C28.581 34.4913 27.9726 35.0757 27.222 35.0757C26.4715 35.0756 25.863 34.4913 25.863 33.7706V28.529C25.863 27.8482 25.6509 27.245 25.264 26.655V26.6546C24.5151 25.5161 24.9273 23.7109 26.5633 23.2784H26.5642C29.0585 22.6204 30.9284 21.8189 32.2012 20.4834C33.4399 19.1837 34.2817 17.1934 34.2817 13.7957C34.2817 12.2154 33.7448 10.7113 32.7643 9.37234C32.6345 9.19514 32.4991 9.01063 32.3958 8.84724C32.293 8.68458 32.15 8.43427 32.0879 8.11823C32.0256 7.80136 32.0641 7.51805 32.099 7.32889C32.1338 7.13997 32.191 6.92092 32.2458 6.71033C32.5876 5.39289 32.6233 4.04312 32.3056 2.79761C31.7091 2.91103 30.6823 3.23601 29.1761 4.13923L29.1756 4.13881C28.8074 4.35979 28.478 4.55907 28.1984 4.70469C27.9184 4.85047 27.5779 5.00377 27.1826 5.06452C27.1802 5.0649 27.1776 5.06543 27.1751 5.0658C26.7798 5.12435 26.4034 5.07907 26.086 5.02289C25.7672 4.96646 25.3825 4.87398 24.9481 4.76969L24.726 4.71871C23.6143 4.47241 22.4761 4.35037 21.3346 4.35505C21.3301 4.35507 21.3255 4.35507 21.3209 4.35505C20.1052 4.34806 18.8932 4.48595 17.7132 4.76671L17.7137 4.76714C17.2794 4.87139 16.893 4.96484 16.5741 5.02161C16.2572 5.07802 15.8779 5.12435 15.4782 5.06325C15.0824 5.00272 14.7416 4.84954 14.4607 4.70341C14.1805 4.55763 13.8504 4.35814 13.4822 4.13711V4.13753C11.9756 3.23414 10.9486 2.90928 10.3522 2.79591C10.0345 4.04141 10.0707 5.3912 10.4124 6.70863H10.412C10.466 6.91632 10.5241 7.13546 10.5593 7.32294C10.5949 7.51305 10.6343 7.79622 10.573 8.11398L10.5721 8.11823C10.5092 8.4384 10.3625 8.69075 10.2602 8.85107C10.1576 9.01195 10.0217 9.19624 9.89392 9.37064C8.91349 10.7096 8.37654 12.2137 8.37651 13.794C8.37651 17.1917 9.21816 19.1824 10.4571 20.4826C11.7301 21.8186 13.6003 22.6204 16.0949 23.2801H16.0945C17.7373 23.7122 18.1412 25.5247 17.3925 26.6597C17.0066 27.249 16.7953 27.8512 16.7953 28.529V33.7706C16.7953 34.4913 16.1867 35.0756 15.4362 35.0757C14.6856 35.0757 14.0772 34.4913 14.0772 33.7706ZM15.3769 25.7977L15.3734 25.7964C15.3728 25.7963 15.3722 25.7961 15.3716 25.796L15.3769 25.7977Z" fill="#08262E"/>
</svg>
