<?xml version="1.0" encoding="utf-8"?>
<!-- Generator: Adobe Illustrator 27.8.1, SVG Export Plug-In . SVG Version: 6.00 Build 0)  -->
<svg version="1.1" xmlns="http://www.w3.org/2000/svg" xmlns:xlink="http://www.w3.org/1999/xlink" x="0px" y="0px"
	 viewBox="0 0 1920 1080" style="enable-background:new 0 0 1920 1080;" xml:space="preserve">
<style type="text/css">
	.st0{fill:#336AEA;}
	.st1{fill:none;stroke:#869FB2;stroke-miterlimit:10;}
	.st2{fill:none;stroke:#869FB2;stroke-miterlimit:10;stroke-dasharray:8;}
	.st3{fill:none;stroke:#869FB2;stroke-width:2;stroke-miterlimit:10;}
	.st4{fill:none;stroke:#869FB2;stroke-width:2;stroke-miterlimit:10;stroke-dasharray:7.9329,7.9329;}
	.st5{fill:none;stroke:#869FB2;stroke-width:2;stroke-miterlimit:10;stroke-dasharray:7.8644,7.8644;}
</style>
<g id="Logo">
	<g>
		<path class="st0" d="M773.3,501.3c-0.3-0.3-0.1-0.9,0.4-0.9h2c0,0,0.1,0,0.1,0c17.1-1.7,31.4-12.8,31.4-32.4
			c0-22.6-18.2-33-39.1-33h-97.7c-1.3,0-2.4,1.1-2.4,2.4v100.2c0,1.3,1.1,2.4,2.4,2.4h31.2c1.3,0,2.4-1.1,2.4-2.4v-32
			c0-1.3,1.1-2.4,2.4-2.4h20.3c2.8,0,5.5,1.2,7.4,3.3l28.9,32.6c0.6,0.3,1.2,0.5,1.8,0.8h41.2c2.1,0,3.2-2.5,1.7-4L773.3,501.3z
			 M760.3,479.8h-54c-1.3,0-2.4-1.1-2.4-2.4v-15.2c0-1.3,1.1-2.4,2.4-2.4h53.2c7.6,0,12.6,3.7,12.6,9.7
			C772.1,476.3,767.5,479.8,760.3,479.8z"/>
		<path class="st0" d="M1167.7,435.1h-31.2c-1.3,0-2.4,1.1-2.4,2.4V504c0,1.3,1.1,2.4,2.4,2.4h31.2c1.3,0,2.4-1.1,2.4-2.4v-66.5
			C1170,436.2,1169,435.1,1167.7,435.1z"/>
		<path class="st0" d="M1167.7,520.5h-31.2c-1.3,0-2.4,1.1-2.4,2.4v14.8c0,1.3,1.1,2.4,2.4,2.4h31.2c1.3,0,2.4-1.1,2.4-2.4v-14.8
			C1170,521.6,1169,520.5,1167.7,520.5z"/>
		<path class="st0" d="M1296.1,536.9l-40.1-53.1c-0.9-1.2-0.8-2.8,0.2-3.9l37.9-41.6c1.1-1.2,0.2-3.1-1.4-3.1h-32.8
			c-0.9,0-1.7,0.4-2.3,1l-36.6,40.2l0,0c-0.1,0.1-0.3,0.2-0.5,0.2v0h-1.3v0c-0.3,0-0.6-0.3-0.6-0.6v-38.7c0-1.2-1-2.2-2.2-2.2h-30
			c-1.2,0-2.2,1-2.2,2.2v100.4c0,1.1,0.9,2,2,2h30.3c1.1,0,2-0.9,2-2V519c0-0.8,0.3-1.5,0.8-2.1l13.3-14.2c0,0,0.1-0.2,0.4-0.2
			s1.6,0,1.8,0c0.2,0,0.4,0.2,0.4,0.2l26.8,35.8c0.6,0.8,1.5,1.2,2.5,1.2h30.1C1296.2,539.7,1297,538,1296.1,536.9z"/>
		<path class="st0" d="M855.7,459.1h30.5c1.3,0,2.4-1.1,2.4-2.4v-19.2c0-1.3-1.1-2.4-2.4-2.4h-63.1c-1.3,0-2.4,1.1-2.4,2.4v100.2
			c0,1.3,1.1,2.4,2.4,2.4h63.1c1.3,0,2.4-1.1,2.4-2.4v-19.2c0-1.3-1.1-2.4-2.4-2.4h-30.7c-1.3,0-2.4-1.1-2.4-2.4v-12.5
			c0-1.4,1.2-2.6,2.6-2.6h30.5c1.3,0,2.4-1.1,2.4-2.4v-18.8c0-1.3-1.1-2.4-2.4-2.4h-30.5c-1.4,0-2.6-1.2-2.6-2.6v-10.8
			C853.1,460.2,854.3,459.1,855.7,459.1z"/>
		<path class="st0" d="M937.7,459.1h30.5c1.3,0,2.4-1.1,2.4-2.4v-19.2c0-1.3-1.1-2.4-2.4-2.4h-63.1c-1.3,0-2.4,1.1-2.4,2.4v100.2
			c0,1.3,1.1,2.4,2.4,2.4h63.1c1.3,0,2.4-1.1,2.4-2.4v-19.2c0-1.3-1.1-2.4-2.4-2.4h-30.7c-1.3,0-2.4-1.1-2.4-2.4v-12.5
			c0-1.4,1.2-2.6,2.6-2.6h30.5c1.3,0,2.4-1.1,2.4-2.4v-18.8c0-1.3-1.1-2.4-2.4-2.4h-30.5c-1.4,0-2.6-1.2-2.6-2.6v-10.8
			C935.1,460.2,936.3,459.1,937.7,459.1z"/>
		<path class="st0" d="M621,459.1h30.5c1.3,0,2.4-1.1,2.4-2.4v-19.2c0-1.3-1.1-2.4-2.4-2.4h-63.1c-1.3,0-2.4,1.1-2.4,2.4v100.2
			c0,1.3,1.1,2.4,2.4,2.4H616c1.3,0,2.4-1.1,2.4-2.4l0-36.4c0-1.4,1.2-2.6,2.6-2.6h30.5c1.3,0,2.4-1.1,2.4-2.4v-18.8
			c0-1.3-1.1-2.4-2.4-2.4H621c-1.4,0-2.6-1.2-2.6-2.6v-10.8C618.4,460.2,619.5,459.1,621,459.1z"/>
		<path class="st0" d="M1081.6,435.1h-94.5c-1.3,0-2.4,1.1-2.4,2.4v100.2c0,1.3,1.1,2.4,2.4,2.4h31.2c1.3,0,2.4-1.1,2.4-2.4v-33.1
			c0-0.7,0.5-1.2,1.2-1.2h4.5h55.3c24,0,42.2-12.5,42.2-34.6C1123.9,445.9,1105.7,435.1,1081.6,435.1z M1077.1,479.8h-54
			c-1.3,0-2.4-1.1-2.4-2.4v-15.2c0-1.3,1.1-2.4,2.4-2.4h53.2c7.6,0,12.6,3.7,12.6,9.7C1088.9,476.3,1084.2,479.8,1077.1,479.8z"/>
	</g>
</g>
<g id="Clearspace">
	<path class="st1" d="M855.7,459.1h30.5c1.3,0,2.4-1.1,2.4-2.4v-19.2c0-1.3-1.1-2.4-2.4-2.4h-63.1c-1.3,0-2.4,1.1-2.4,2.4v100.2
		c0,1.3,1.1,2.4,2.4,2.4h63.1c1.3,0,2.4-1.1,2.4-2.4v-19.2c0-1.3-1.1-2.4-2.4-2.4h-30.7c-1.3,0-2.4-1.1-2.4-2.4v-12.5
		c0-1.4,1.2-2.6,2.6-2.6h30.5c1.3,0,2.4-1.1,2.4-2.4v-18.8c0-1.3-1.1-2.4-2.4-2.4h-30.5c-1.4,0-2.6-1.2-2.6-2.6v-10.8
		C853.1,460.2,854.3,459.1,855.7,459.1z"/>
	<path class="st2" d="M855.7,354.2h30.5c1.3,0,2.4-1.1,2.4-2.4v-19.2c0-1.3-1.1-2.4-2.4-2.4h-63.1c-1.3,0-2.4,1.1-2.4,2.4v100.2
		c0,1.3,1.1,2.4,2.4,2.4h63.1c1.3,0,2.4-1.1,2.4-2.4v-19.2c0-1.3-1.1-2.4-2.4-2.4h-30.7c-1.3,0-2.4-1.1-2.4-2.4v-12.5
		c0-1.4,1.2-2.6,2.6-2.6h30.5c1.3,0,2.4-1.1,2.4-2.4v-18.8c0-1.3-1.1-2.4-2.4-2.4h-30.5c-1.4,0-2.6-1.2-2.6-2.6v-10.8
		C853.1,355.3,854.3,354.2,855.7,354.2z"/>
	<path class="st2" d="M505.1,468v-30.5c0-1.3-1.1-2.4-2.4-2.4h-19.2c-1.3,0-2.4,1.1-2.4,2.4v63.1c0,1.3,1.1,2.4,2.4,2.4h100.2
		c1.3,0,2.4-1.1,2.4-2.4v-63.1c0-1.3-1.1-2.4-2.4-2.4h-19.2c-1.3,0-2.4,1.1-2.4,2.4v30.7c0,1.3-1.1,2.4-2.4,2.4h-12.5
		c-1.4,0-2.6-1.2-2.6-2.6v-30.5c0-1.3-1.1-2.4-2.4-2.4h-18.8c-1.3,0-2.4,1.1-2.4,2.4V468c0,1.4-1.2,2.6-2.6,2.6h-10.8
		C506.2,470.6,505.1,469.4,505.1,468z"/>
	<path class="st2" d="M1019.7,564h30.5c1.3,0,2.4-1.1,2.4-2.4v-19.2c0-1.3-1.1-2.4-2.4-2.4h-63.1c-1.3,0-2.4,1.1-2.4,2.4v100.2
		c0,1.3,1.1,2.4,2.4,2.4h63.1c1.3,0,2.4-1.1,2.4-2.4v-19.2c0-1.3-1.1-2.4-2.4-2.4h-30.7c-1.3,0-2.4-1.1-2.4-2.4v-12.5
		c0-1.4,1.2-2.6,2.6-2.6h30.5c1.3,0,2.4-1.1,2.4-2.4v-18.8c0-1.3-1.1-2.4-2.4-2.4h-30.5c-1.4,0-2.6-1.2-2.6-2.6v-10.8
		C1017.1,565.1,1018.3,564,1019.7,564z"/>
	<path class="st2" d="M1320.5,505v-30.5c0-1.3-1.1-2.4-2.4-2.4h-19.2c-1.3,0-2.4,1.1-2.4,2.4v63.1c0,1.3,1.1,2.4,2.4,2.4H1399
		c1.3,0,2.4-1.1,2.4-2.4v-63.1c0-1.3-1.1-2.4-2.4-2.4h-19.2c-1.3,0-2.4,1.1-2.4,2.4v30.7c0,1.3-1.1,2.4-2.4,2.4h-12.5
		c-1.4,0-2.6-1.2-2.6-2.6v-30.5c0-1.3-1.1-2.4-2.4-2.4h-18.8c-1.3,0-2.4,1.1-2.4,2.4V505c0,1.4-1.2,2.6-2.6,2.6H1323
		C1321.6,507.6,1320.5,506.5,1320.5,505z"/>
	<rect x="586" y="435.1" class="st1" width="710.5" height="104.6"/>
	<g>
		<g>
			<polyline class="st3" points="1401.4,640.9 1401.4,644.9 1397.4,644.9 			"/>
			<line class="st4" x1="1389.5" y1="644.9" x2="489.1" y2="644.9"/>
			<polyline class="st3" points="485.1,644.9 481.1,644.9 481.1,640.9 			"/>
			<line class="st5" x1="481.1" y1="633" x2="481.1" y2="338.1"/>
			<polyline class="st3" points="481.1,334.2 481.1,330.2 485.1,330.2 			"/>
			<line class="st4" x1="493" y1="330.2" x2="1393.4" y2="330.2"/>
			<polyline class="st3" points="1397.4,330.2 1401.4,330.2 1401.4,334.2 			"/>
			<line class="st5" x1="1401.4" y1="342.1" x2="1401.4" y2="637"/>
		</g>
	</g>
</g>
</svg>
