<?xml version="1.0" encoding="UTF-8"?>
<svg xmlns="http://www.w3.org/2000/svg" viewBox="0 0 236.17 84.3">
  <defs>
    <style>
      .d,.e{fill:#462981;}
      .f{fill:none;}
      .g{letter-spacing:1.5em;}
      .h{letter-spacing:1.5em;}
      .i{letter-spacing:0em;}
      .j{letter-spacing:1.5em;}
      .k{letter-spacing:1.49em;}
      .e{font-family:ArialNova-Bold, Arial Nova;font-size:11.25px;}
    </style>
  </defs>

  <!-- Fondo transparente (rectángulo eliminado o convertido en no visible) -->
  <!-- <rect class="f" width="236.17" height="84.3"/> -->

  <polygon class="d" points="53.32 13.66 53.32 53.89 41.21 53.89 41.21 38.03 28.96 38.03 28.96 53.89 16.85 53.89 16.85 13.66 28.96 13.66 28.96 27.57 41.21 27.57 41.21 13.66 53.32 13.66"/>
  <path class="d" d="M102.51,13.66h19.9c4.06,0,7.02,.48,8.89,1.44,1.63,.83,2.93,1.97,3.9,3.45,1.12,1.67,1.68,3.55,1.68,5.63,0,3.58-1.62,6.19-4.87,7.84,4.43,1.85,6.64,5.14,6.64,9.87,0,3.2-1.08,5.91-3.25,8.14-2.01,2.06-4.7,3.28-8.06,3.65-1.22,.14-2.83,.21-4.84,.21h-19.99V13.66Zm11.96,9.46v6.1h6.05c1.69,0,2.84-.12,3.43-.35,1.12-.43,1.68-1.32,1.68-2.65,0-1.41-.67-2.36-2.01-2.83-.47-.18-1.49-.26-3.04-.26h-6.11Zm0,13.94v7.37h7.59c1.59,0,2.69-.15,3.28-.44,1.24-.59,1.86-1.66,1.86-3.21,0-1.96-.99-3.15-2.98-3.57-.45-.1-1.26-.15-2.42-.15h-7.32Z"/>
  <polygon class="d" points="155.89 13.66 155.89 43.43 173.9 43.43 173.9 53.89 143.78 53.89 143.78 13.66 155.89 13.66"/>
  <polygon class="d" points="83.6 13.66 71.44 13.66 56.67 53.89 68.72 53.89 70.67 48.17 77.58 28.01 84.11 48.17 85.97 53.89 98.37 53.89 83.6 13.66"/>
  <polygon class="d" points="204.56 13.66 192.39 13.66 177.63 53.89 189.67 53.89 191.62 48.17 198.53 28.01 205.06 48.17 206.92 53.89 219.32 53.89 204.56 13.66"/>

  <text class="e" transform="translate(16.33 71.86)">
    <tspan class="j" x="0" y="0">COM</tspan>
    <tspan class="k" x="77.36" y="0">P</tspan>
    <tspan class="g" x="101.22" y="0">UT</tspan>
    <tspan class="h" x="149.81" y="0">IN</tspan>
    <tspan class="i" x="194.91" y="0">G</tspan>
  </text>
</svg>

