<svg width="367" height="254" viewBox="0 0 367 254" fill="none"
    xmlns="http://www.w3.org/2000/svg">
    <style>
    .capa1 {
            fill: #08262e;
        }

        .capa2 {
            fill: #00a199;
        }

        .capa3 {
            fill: #79c9c5;
        }

        .capa4 {
            fill: #c2e2e0;
        }
    </style>
    <path d="M4.98645 39.2297H51.1212C72.7196 39.2297 85.7947 49.399 85.7947 66.2661C85.7947 72.8284 83.0019 78.7556 76.9813 83.5143C86.8287 89.052 90.2013 97.0283 90.2013 105.784C90.2013 124.192 75.5124 135.132 51.1212 135.132H4.98645V39.2297ZM52.1455 76.4355C60.3694 76.4355 65.6651 71.8038 65.6651 65.1061C65.6651 58.4084 60.379 54.1662 52.1455 54.1662H24.9614V76.4355H52.1455ZM53.1795 119.696C63.4618 119.696 70.2264 114.158 70.2264 105.792C70.2264 97.4262 63.4714 91.7615 53.1795 91.7615H24.9711V119.696H53.1795Z" class="capa4"/>
    <path d="M110.331 80.1696H97.6907V65.1061H129.571V135.132H110.321V80.1696H110.331ZM110.331 39.2297H129.581V57.2483H110.331V39.2297Z" class="capa4"/>
    <path d="M147.092 37.6886H166.342V120.339H176.769V135.14H147.092V37.6886Z" class="capa4"/>
    <path d="M206.765 127.291V135.14H188.694V37.6886H207.944V72.1849C213.675 66.6472 222.198 63.565 232.481 63.565C255.248 63.565 272.74 79.5261 272.74 100.127C272.74 120.729 255.548 136.69 232.336 136.69C221.909 136.69 212.651 133.345 206.775 127.291H206.765ZM252.755 100.127C252.755 88.0274 243.207 79.0181 230.132 79.0181C217.057 79.0181 207.944 87.9004 207.944 100.127C207.944 112.354 217.347 121.237 230.132 121.237C242.917 121.237 252.755 112.354 252.755 100.127Z" class="capa4"/>
    <path d="M344.628 81.77V118.925H301.451V81.77H344.628ZM363.163 65.5295H282.925V135.157H363.163V65.5295Z" class="capa4"/>
    <path d="M0.00966374 216.089L15.2977 210.28C20.1682 220.475 29.9093 226.52 41.3995 226.52C51.0052 226.52 57.364 222.253 57.364 215.733C57.364 210.517 53.8464 207.316 46.8112 205.301L27.4644 199.848C11.7704 195.462 3.78819 186.808 3.78819 175.199C3.78819 160.026 17.588 149.484 37.4663 149.484C55.5955 149.484 69.9268 158.256 75.3385 171.525L60.1858 177.452C56.2623 168.68 47.8742 163.582 37.4567 163.582C28.1215 163.582 21.898 167.968 21.898 174.488C21.898 179.348 25.5509 183.26 32.8567 185.276L51.3918 190.373C67.4916 194.878 75.4738 202.939 75.4738 214.793C75.4738 229.967 61.1328 240.627 40.4428 240.627C21.2312 240.627 5.4117 230.788 0 216.097" class="capa4"/>
    <path d="M95.1395 188.595H82.4221V174.725H95.1395V160.026H112.863V174.725H129.774V188.595H112.863V225.454H130.045V239.205H95.1492V188.595H95.1395Z" class="capa4"/>
    <path d="M138.588 222.134C138.588 211.465 146.705 203.997 164.013 201.516L185.93 198.434V188.595H146.299V174.725H203.654V239.196H186.877V232.321C181.195 237.774 173.619 240.619 163.878 240.619C148.454 240.619 138.588 233.506 138.588 222.126V222.134ZM167.125 228.773C178.354 228.773 185.93 221.779 185.93 212.888V210.28L167.395 213.006C160.36 214.192 156.978 216.918 156.978 221.542C156.978 226.165 161.172 228.773 167.125 228.773Z" class="capa4"/>
    <path d="M215.492 206.842C215.492 187.765 231.862 173.303 253.905 173.303C269.599 173.303 282.713 181.008 287.313 192.38L271.754 198.307C268.913 191.787 262.284 187.52 253.896 187.52C242.26 187.52 233.872 195.699 233.872 206.961C233.872 218.222 242.26 226.402 253.896 226.402C262.419 226.402 268.913 222.253 271.754 215.496L287.313 221.66C282.983 232.685 269.86 240.619 253.905 240.619C231.853 240.619 215.492 226.038 215.492 206.842Z" class="capa4"/>
    <path d="M298.677 149.484H316.401V198.671H326.412L344 174.734H363.859L341.024 206.258L366.99 239.205H346.697L325.456 212.541H316.391V239.205H298.668V149.484H298.677Z" class="capa4"/>
    <path d="M4.98645 18.1872H51.1212C72.7196 18.1872 85.7947 29.7934 85.7947 49.0435C85.7947 56.5329 83.0019 63.2975 76.9813 68.7286C86.8287 75.0487 90.2013 84.1519 90.2013 94.1442C90.2013 115.153 75.5124 127.639 51.1212 127.639H4.98645V18.1872ZM52.1455 60.6497C60.3694 60.6497 65.6651 55.3636 65.6651 47.7196C65.6651 40.0756 60.379 35.234 52.1455 35.234H24.9614V60.6497H52.1455ZM53.1795 110.022C63.4618 110.022 70.2264 103.702 70.2264 94.1539C70.2264 84.6061 63.4714 78.1411 53.1795 78.1411H24.9711V110.022H53.1795Z" class="capa3"/>
    <path d="M110.331 64.9114H97.6907V47.7196H129.571V127.639H110.321V64.9114H110.331ZM110.331 18.1872H129.581V38.7516H110.331V18.1872Z" class="capa3"/>
    <path d="M147.092 16.4284H166.342V110.756H176.769V127.648H147.092V16.4284Z" class="capa3"/>
    <path d="M206.765 118.69V127.648H188.694V16.4284H207.944V55.7985C213.675 49.4784 222.198 45.9608 232.481 45.9608C255.248 45.9608 272.74 64.1769 272.74 87.6888C272.74 111.201 255.548 129.417 232.336 129.417C221.909 129.417 212.651 125.6 206.775 118.69H206.765ZM252.755 87.6888C252.755 73.8793 243.207 63.5971 230.132 63.5971C217.057 63.5971 207.944 73.7344 207.944 87.6888C207.944 101.643 217.347 111.781 230.132 111.781C242.917 111.781 252.755 101.643 252.755 87.6888Z" class="capa3"/>
    <path d="M344.628 66.7378V109.142H301.451V66.7378H344.628ZM363.163 48.2028H282.925V127.668H363.163V48.2028Z" class="capa3"/>
    <path d="M0.00966374 220.034L15.2977 213.404C20.1682 225.04 29.9093 231.94 41.3995 231.94C51.0052 231.94 57.364 227.069 57.364 219.628C57.364 213.675 53.8464 210.022 46.8112 207.722L27.4644 201.499C11.7704 196.493 3.78819 186.617 3.78819 173.368C3.78819 156.05 17.588 144.019 37.4663 144.019C55.5955 144.019 69.9268 154.03 75.3385 169.174L60.1858 175.938C56.2623 165.927 47.8742 160.109 37.4567 160.109C28.1215 160.109 21.898 165.115 21.898 172.556C21.898 178.103 25.5509 182.567 32.8567 184.867L51.3918 190.685C67.4916 195.826 75.4738 205.026 75.4738 218.555C75.4738 235.873 61.1328 248.039 40.4428 248.039C21.2312 248.039 5.4117 236.81 0 220.043" class="capa3"/>
    <path d="M95.1395 188.656H82.4221V172.826H95.1395V156.05H112.863V172.826H129.774V188.656H112.863V230.722H130.045V246.416H95.1492V188.656H95.1395Z" class="capa3"/>
    <path d="M138.588 226.934C138.588 214.757 146.705 206.234 164.013 203.402L185.93 199.885V188.656H146.299V172.826H203.654V246.406H186.877V238.559C181.195 244.783 173.619 248.03 163.878 248.03C148.454 248.03 138.588 239.912 138.588 226.924V226.934ZM167.125 234.51C178.354 234.51 185.93 226.528 185.93 216.381V213.404L167.395 216.516C160.36 217.869 156.978 220.981 156.978 226.257C156.978 231.534 161.172 234.51 167.125 234.51Z" class="capa3"/>
    <path d="M215.492 209.481C215.492 187.709 231.862 171.203 253.905 171.203C269.599 171.203 282.713 179.997 287.313 192.975L271.754 199.74C268.913 192.299 262.284 187.428 253.896 187.428C242.26 187.428 233.872 196.764 233.872 209.616C233.872 222.469 242.26 231.804 253.896 231.804C262.419 231.804 268.913 227.069 271.754 219.357L287.313 226.393C282.983 238.975 269.86 248.03 253.905 248.03C231.853 248.03 215.492 231.389 215.492 209.481Z" class="capa3"/>
    <path d="M298.677 144.019H316.401V200.155H326.412L344 172.836H363.859L341.024 208.814L366.99 246.416H346.697L325.456 215.985H316.391V246.416H298.668V144.019H298.677Z" class="capa3"/>
    <path d="M4.99615 10.4562H51.1309C72.7293 10.4562 85.8044 22.0623 85.8044 41.3125C85.8044 48.8019 83.0116 55.5665 76.991 60.9976C86.8384 67.3176 90.211 76.4209 90.211 86.4132C90.211 107.422 75.5221 119.908 51.1309 119.908H4.99615V10.4562ZM52.1552 52.9187C60.3791 52.9187 65.6748 47.6326 65.6748 39.9886C65.6748 32.3446 60.3887 27.503 52.1552 27.503H24.9711V52.9187H52.1552ZM53.1892 102.291C63.4715 102.291 70.2361 95.9706 70.2361 86.4229C70.2361 76.8751 63.4811 70.41 53.1892 70.41H24.9808V102.291H53.1892Z" class="capa2"/>
    <path d="M110.341 57.1804H97.7004V39.9886H129.581V119.908H110.331V57.1804H110.341ZM110.341 10.4562H129.591V31.0206H110.341V10.4562Z" class="capa2"/>
    <path d="M147.101 8.69737H166.352V103.025H176.779V119.917H147.101V8.69737Z" class="capa2"/>
    <path d="M206.775 110.959V119.917H188.704V8.69737H207.954V48.0675C213.685 41.7474 222.208 38.2298 232.49 38.2298C255.258 38.2298 272.75 56.4459 272.75 79.9578C272.75 103.47 255.558 121.686 232.345 121.686C221.918 121.686 212.66 117.869 206.785 110.959H206.775ZM252.765 79.9578C252.765 66.1483 243.217 55.8661 230.142 55.8661C217.067 55.8661 207.954 66.0034 207.954 79.9578C207.954 93.9123 217.357 104.05 230.142 104.05C242.927 104.05 252.765 93.9123 252.765 79.9578Z" class="capa2"/>
    <path d="M344.638 59.0068V101.411H301.46V59.0068H344.638ZM363.173 40.4718H282.935V119.937H363.173V40.4718Z" class="capa2"/>
    <path d="M0.0193073 212.303L15.3073 205.673C20.1779 217.309 29.9189 224.209 41.4091 224.209C51.0149 224.209 57.3736 219.338 57.3736 211.897C57.3736 205.944 53.856 202.291 46.8208 199.991L27.474 193.768C11.7801 188.762 3.79783 178.886 3.79783 165.637C3.79783 148.319 17.5977 136.288 37.476 136.288C55.6052 136.288 69.9365 146.299 75.3482 161.443L60.1954 168.207C56.272 158.195 47.8838 152.378 37.4663 152.378C28.1311 152.378 21.9077 157.384 21.9077 164.825C21.9077 170.372 25.5606 174.836 32.8664 177.136L51.4014 182.954C67.5012 188.095 75.4835 197.295 75.4835 210.824C75.4835 228.142 61.1425 240.308 40.4524 240.308C21.2409 240.308 5.42134 229.079 0.00964355 212.312" class="capa2"/>
    <path d="M95.1492 180.925H82.4317V165.095H95.1492V148.319H112.872V165.095H129.784V180.925H112.872V222.991H130.055V238.685H95.1588V180.925H95.1492Z" class="capa2"/>
    <path d="M138.597 219.203C138.597 207.026 146.715 198.503 164.023 195.671L185.94 192.154V180.925H146.309V165.095H203.663V238.675H186.887V230.828C181.205 237.052 173.628 240.299 163.887 240.299C148.464 240.299 138.597 232.181 138.597 219.193V219.203ZM167.134 226.779C178.364 226.779 185.94 218.797 185.94 208.65V205.673L167.405 208.785C160.37 210.138 156.988 213.25 156.988 218.526C156.988 223.803 161.182 226.779 167.134 226.779Z" class="capa2"/>
    <path d="M215.501 201.75C215.501 179.978 231.872 163.472 253.915 163.472C269.609 163.472 282.722 172.266 287.322 185.244L271.764 192.009C268.923 184.568 262.293 179.697 253.905 179.697C242.27 179.697 233.882 189.032 233.882 201.885C233.882 214.738 242.27 224.073 253.905 224.073C262.429 224.073 268.923 219.338 271.764 211.626L287.322 218.662C282.993 231.244 269.87 240.299 253.915 240.299C231.862 240.299 215.501 223.658 215.501 201.75Z" class="capa2"/>
    <path d="M298.687 136.288H316.41V192.424H326.422L344.01 165.105H363.869L341.034 201.083L367 238.685H346.706L325.465 208.254H316.401V238.685H298.677V136.288H298.687Z" class="capa2"/>
    <path d="M4.98645 1.7588H51.1212C72.7196 1.7588 85.7947 13.365 85.7947 32.6151C85.7947 40.1045 83.0019 46.8692 76.9813 52.3002C86.8287 58.6203 90.2013 67.7235 90.2013 77.7158C90.2013 98.7248 75.5124 111.21 51.1212 111.21H4.98645V1.7588ZM52.1455 44.2213C60.3694 44.2213 65.6651 38.9352 65.6651 31.2912C65.6651 23.6472 60.379 18.8056 52.1455 18.8056H24.9614V44.2213H52.1455ZM53.1795 93.5934C63.4618 93.5934 70.2264 87.2733 70.2264 77.7255C70.2264 68.1777 63.4714 61.7127 53.1795 61.7127H24.9711V93.5934H53.1795Z" class="capa1"/>
    <path d="M110.331 48.483H97.6907V31.2912H129.571V111.21H110.321V48.483H110.331ZM110.331 1.7588H129.581V22.3233H110.331V1.7588Z" class="capa1"/>
    <path d="M147.092 0H166.342V94.3278H176.769V111.22H147.092V0Z" class="capa1"/>
    <path d="M206.765 102.262V111.22H188.694V0H207.944V39.3701C213.675 33.05 222.198 29.5324 232.481 29.5324C255.248 29.5324 272.74 47.7486 272.74 71.2604C272.74 94.7723 255.548 112.988 232.336 112.988C221.909 112.988 212.651 109.171 206.775 102.262H206.765ZM252.755 71.2604C252.755 57.451 243.207 47.1687 230.132 47.1687C217.057 47.1687 207.944 57.306 207.944 71.2604C207.944 85.2149 217.347 95.3522 230.132 95.3522C242.917 95.3522 252.755 85.2149 252.755 71.2604Z" class="capa1"/>
    <path d="M344.628 50.3095V92.714H301.451V50.3095H344.628ZM363.163 31.7744H282.925V111.239H363.163V31.7744Z" class="capa1"/>
    <path d="M0.00966374 203.605L15.2977 196.976C20.1682 208.611 29.9093 215.511 41.3995 215.511C51.0052 215.511 57.364 210.641 57.364 203.2C57.364 197.247 53.8464 193.594 46.8112 191.294L27.4644 185.07C11.7704 180.065 3.78819 170.188 3.78819 156.939C3.78819 139.622 17.588 127.59 37.4663 127.59C55.5955 127.59 69.9268 137.602 75.3385 152.745L60.1858 159.51C56.2623 149.498 47.8742 143.681 37.4567 143.681C28.1215 143.681 21.898 148.686 21.898 156.127C21.898 161.674 25.5509 166.139 32.8567 168.439L51.3918 174.257C67.4916 179.398 75.4738 188.598 75.4738 202.127C75.4738 219.444 61.1328 231.611 40.4428 231.611C21.2312 231.611 5.4117 220.382 0 203.615" class="capa1"/>
    <path d="M95.1395 172.227H82.4221V156.398H95.1395V139.622H112.863V156.398H129.774V172.227H112.863V214.293H130.045V229.987H95.1492V172.227H95.1395Z" class="capa1"/>
    <path d="M138.588 210.505C138.588 198.329 146.705 189.806 164.013 186.974L185.93 183.456V172.227H146.299V156.398H203.654V229.978H186.877V222.131C181.195 228.354 173.619 231.601 163.878 231.601C148.454 231.601 138.588 223.484 138.588 210.496V210.505ZM167.125 218.082C178.354 218.082 185.93 210.099 185.93 199.953V196.976L167.395 200.088C160.36 201.441 156.978 204.552 156.978 209.829C156.978 215.105 161.172 218.082 167.125 218.082Z" class="capa1"/>
    <path d="M215.492 193.053C215.492 171.28 231.862 154.775 253.905 154.775C269.599 154.775 282.713 163.569 287.313 176.547L271.754 183.312C268.913 175.87 262.284 171 253.896 171C242.26 171 233.872 180.335 233.872 193.188C233.872 206.041 242.26 215.376 253.896 215.376C262.419 215.376 268.913 210.641 271.754 202.929L287.313 209.964C282.983 222.546 269.86 231.601 253.905 231.601C231.853 231.601 215.492 214.96 215.492 193.053Z" class="capa1"/>
    <path d="M298.677 127.59H316.401V183.727H326.412L344 156.408H363.859L341.024 192.386L366.99 229.987H346.697L325.456 199.556H316.391V229.987H298.668V127.59H298.677Z" class="capa1"/>
</svg>
