<svg height="300.758" viewBox="0 0 1870.31 300.758" width="1870.31"
    xmlns="http://www.w3.org/2000/svg">
    <style>
        .capa1,
        .capa2,
        .capa3,
        .capa4 {
                    <!-- transition: all 0.3s ease; -->
        }

        .capa1 {
            fill: #08262e;
        }

        .capa2 {
            fill: #00a199;
        }

        .capa3 {
            fill: #79c9c5;
        }

        .capa4 {
            fill: #c2e2e0;
        }
    </style>
    <g class="capa4">
        <path d="m0 47.8h112.444c52.644 0 84.513 26.4 84.513 70.176 0 17.041-6.8 32.414-21.483 44.78 23.994 14.367 32.224 35.088 32.224 57.81 0 47.787-35.807 76.189-95.254 76.189h-112.444zm114.955 96.578c20.055 0 32.942-12.034 32.942-29.407s-12.887-28.4-32.942-28.4h-66.25v57.81zm2.5 112.273c25.067 0 41.538-14.367 41.538-36.093s-16.471-36.426-41.538-36.426h-68.75v72.519z"/>
        <path d="m256.758 154.07h-30.8v-39.1h77.71v181.776h-46.91zm0-106.27h46.914v46.782h-46.914z"/>
        <path d="m346.354 43.789h46.913v214.531h25.433v38.427h-72.336v-252.958z"/>
        <path d="m491.811 276.367v20.38h-44.048v-252.958h46.913v89.551c13.971-14.367 34.734-22.39 59.8-22.39 55.5 0 98.119 41.432 98.119 94.9s-41.892 94.9-98.474 94.9c-25.43 0-47.986-8.687-62.311-24.391zm112.089-70.508c0-31.409-23.275-54.8-55.144-54.8s-54.071 23.054-54.071 54.8 22.92 54.8 54.071 54.8 55.144-23.05 55.144-54.8z"/>
        <path d="m898.8 231.587 40.464-16.378c12.888 28.735 38.673 45.785 69.111 45.785 25.43 0 42.26-12.034 42.26-30.412 0-14.7-9.31-23.728-27.93-29.408l-51.205-15.374c-41.538-12.356-62.666-36.757-62.666-69.5 0-42.769 36.527-72.518 89.17-72.518 47.983 0 85.943 24.732 100.263 62.153l-40.11 16.71c-10.38-24.723-32.59-39.1-60.163-39.1-24.712 0-41.183 12.366-41.183 30.745 0 13.7 9.668 24.723 29 30.4l49.062 14.368c42.61 12.7 63.74 35.42 63.74 68.839 0 42.769-37.97 72.841-92.75 72.841-50.848 0-92.74-27.739-107.065-69.171z"/>
        <path d="m1150.65 154.07h-33.66v-39.1h33.66v-41.441h46.92v41.442h44.76v39.1h-44.76v103.917h45.47v38.759h-92.39z"/>
        <path d="m1265.68 248.628c0-30.081 21.48-51.124 67.32-58.142l58.01-8.687v-27.729h-104.92v-39.1h151.83v181.776h-44.4v-19.383c-15.04 15.372-35.09 23.395-60.87 23.395-40.82 0-66.96-20.048-66.96-52.13zm75.55 18.711c29.72 0 49.78-19.706 49.78-44.78v-7.35l-49.06 7.682c-18.62 3.347-27.57 11.029-27.57 24.059s11.1 20.379 26.86 20.379z"/>
        <path d="m1469.26 205.527c0-53.8 43.33-94.568 101.7-94.568 41.54 0 76.27 21.717 88.45 53.8l-41.18 16.71c-7.53-18.379-25.07-30.413-47.27-30.413-30.8 0-53 23.054-53 54.8s22.2 54.8 53 54.8c22.55 0 39.74-11.693 47.27-30.745l41.18 17.373c-11.46 31.077-46.2 53.467-88.45 53.467-58.37.007-101.7-41.094-101.7-95.224z"/>
        <path d="m1689.48 43.789h46.91v138.674h26.5l46.55-67.5h52.57l-60.45 88.887 68.75 92.9h-53.72l-56.22-75.184h-23.99v75.184h-46.91v-252.961z"/>
        <path d="m827.827 158.215v96.435h-105.227v-96.435zm45.173-42.154h-195.571v180.733h195.571z"/>
    </g>
    <g class="capa3">
        <path d="m0 33.207h112.444c52.644 0 84.513 26.4 84.513 70.177 0 17.041-6.8 32.414-21.483 44.78 23.994 14.367 32.224 35.088 32.224 57.81 0 47.786-35.807 76.189-95.254 76.189h-112.444zm114.955 96.578c20.055 0 32.942-12.034 32.942-29.407s-12.887-28.4-32.942-28.4h-66.25v57.81zm2.5 112.273c25.067 0 41.538-14.367 41.538-36.093s-16.471-36.426-41.538-36.426h-68.75v72.519z"/>
        <path d="m256.758 139.477h-30.8v-39.1h77.71v181.776h-46.91zm0-106.27h46.914v46.781h-46.914z"/>
        <path d="m346.354 29.2h46.913v214.527h25.433v38.426h-72.336v-252.953z"/>
        <path d="m491.811 261.774v20.379h-44.048v-252.953h46.913v89.551c13.971-14.367 34.734-22.39 59.8-22.39 55.5 0 98.119 41.432 98.119 94.9s-41.892 94.9-98.474 94.9c-25.43 0-47.986-8.686-62.311-24.391zm112.089-70.508c0-31.409-23.275-54.8-55.144-54.8s-54.071 23.054-54.071 54.8 22.92 54.8 54.071 54.8 55.144-23.05 55.144-54.8z"/>
        <path d="m898.8 216.994 40.464-16.378c12.888 28.734 38.673 45.785 69.111 45.785 25.43 0 42.26-12.034 42.26-30.413 0-14.7-9.31-23.727-27.93-29.407l-51.205-15.373c-41.538-12.356-62.666-36.757-62.666-69.5 0-42.77 36.527-72.519 89.17-72.519 47.983 0 85.943 24.733 100.263 62.154l-40.11 16.71c-10.38-24.723-32.59-39.1-60.163-39.1-24.712 0-41.183 12.366-41.183 30.745 0 13.7 9.668 24.723 29 30.4l49.062 14.367c42.61 12.7 63.74 35.42 63.74 68.839 0 42.769-37.97 72.841-92.75 72.841-50.848 0-92.74-27.739-107.065-69.171z"/>
        <path d="m1150.65 139.477h-33.66v-39.1h33.66v-41.441h46.92v41.442h44.76v39.1h-44.76v103.922h45.47v38.758h-92.39z"/>
        <path d="m1265.68 234.035c0-30.081 21.48-51.124 67.32-58.142l58.01-8.687v-27.729h-104.92v-39.1h151.83v181.776h-44.4v-19.384c-15.04 15.373-35.09 23.4-60.87 23.4-40.82 0-66.96-20.048-66.96-52.13zm75.55 18.711c29.72 0 49.78-19.707 49.78-44.781v-7.349l-49.06 7.681c-18.62 3.348-27.57 11.029-27.57 24.06s11.1 20.379 26.86 20.379z"/>
        <path d="m1469.26 190.934c0-53.8 43.33-94.568 101.7-94.568 41.54 0 76.27 21.717 88.45 53.8l-41.18 16.709c-7.53-18.378-25.07-30.413-47.27-30.413-30.8 0-53 23.054-53 54.8s22.2 54.8 53 54.8c22.55 0 39.74-11.692 47.27-30.744l41.18 17.373c-11.46 31.077-46.2 53.467-88.45 53.467-58.37.007-101.7-41.094-101.7-95.224z"/>
        <path d="m1689.48 29.2h46.91v138.67h26.5l46.55-67.5h52.57l-60.45 88.887 68.75 92.9h-53.72l-56.22-75.183h-23.99v75.183h-46.91v-252.957z"/>
        <path d="m827.827 143.621v96.436h-105.227v-96.436zm45.173-42.153h-195.571v180.732h195.571z"/>
    </g>
    <g class="capa2">
        <path d="m0 18.614h112.444c52.644 0 84.513 26.4 84.513 70.176 0 17.042-6.8 32.414-21.483 44.781 23.994 14.367 32.224 35.088 32.224 57.81 0 47.786-35.807 76.189-95.254 76.189h-112.444zm114.955 96.578c20.055 0 32.942-12.034 32.942-29.408s-12.887-28.4-32.942-28.4h-66.25v57.81zm2.5 112.273c25.067 0 41.538-14.367 41.538-36.094s-16.471-36.425-41.538-36.425h-68.75v72.519z"/>
        <path d="m256.758 124.884h-30.8v-39.1h77.71v181.776h-46.91zm0-106.27h46.914v46.786h-46.914z"/>
        <path d="m346.354 14.6h46.913v214.534h25.433v38.426h-72.336v-252.96z"/>
        <path d="m491.811 247.181v20.379h-44.048v-252.96h46.913v89.551c13.971-14.368 34.734-22.391 59.8-22.391 55.5 0 98.119 41.433 98.119 94.9s-41.892 94.9-98.474 94.9c-25.43 0-47.986-8.687-62.311-24.391zm112.089-70.509c0-31.408-23.275-54.8-55.144-54.8s-54.071 23.054-54.071 54.8 22.92 54.8 54.071 54.8 55.144-23.05 55.144-54.8z"/>
        <path d="m898.8 202.4 40.464-16.377c12.888 28.734 38.673 45.785 69.111 45.785 25.43 0 42.26-12.034 42.26-30.413 0-14.7-9.31-23.727-27.93-29.408l-51.205-15.372c-41.538-12.357-62.666-36.757-62.666-69.5 0-42.77 36.527-72.519 89.17-72.519 47.983 0 85.943 24.732 100.263 62.153l-40.11 16.71c-10.38-24.723-32.59-39.1-60.163-39.1-24.712 0-41.183 12.366-41.183 30.745 0 13.7 9.668 24.722 29 30.4l49.062 14.367c42.61 12.7 63.74 35.42 63.74 68.839 0 42.77-37.97 72.842-92.75 72.842-50.848 0-92.74-27.739-107.065-69.172z"/>
        <path d="m1150.65 124.884h-33.66v-39.1h33.66v-41.442h46.92v41.442h44.76v39.1h-44.76v103.916h45.47v38.76h-92.39z"/>
        <path d="m1265.68 219.442c0-30.081 21.48-51.125 67.32-58.142l58.01-8.687v-27.729h-104.92v-39.1h151.83v181.776h-44.4v-19.384c-15.04 15.373-35.09 23.4-60.87 23.4-40.82 0-66.96-20.048-66.96-52.13zm75.55 18.71c29.72 0 49.78-19.706 49.78-44.78v-7.349l-49.06 7.681c-18.62 3.348-27.57 11.029-27.57 24.059s11.1 20.38 26.86 20.38z"/>
        <path d="m1469.26 176.34c0-53.8 43.33-94.567 101.7-94.567 41.54 0 76.27 21.717 88.45 53.8l-41.18 16.709c-7.53-18.378-25.07-30.413-47.27-30.413-30.8 0-53 23.054-53 54.8s22.2 54.8 53 54.8c22.55 0 39.74-11.693 47.27-30.745l41.18 17.374c-11.46 31.076-46.2 53.467-88.45 53.467-58.37.007-101.7-41.094-101.7-95.225z"/>
        <path d="m1689.48 14.6h46.91v138.677h26.5l46.55-67.5h52.57l-60.45 88.887 68.75 92.9h-53.72l-56.22-75.183h-23.99v75.179h-46.91v-252.96z"/>
        <path d="m827.827 129.028v96.436h-105.227v-96.436zm45.173-42.153h-195.571v180.733h195.571z"/>
    </g>
    <g class="capa1">
        <path d="m0 4.021h112.444c52.644 0 84.513 26.4 84.513 70.176 0 17.041-6.8 32.414-21.483 44.78 23.994 14.368 32.224 35.089 32.224 57.811 0 47.786-35.807 76.188-95.254 76.188h-112.444zm114.955 96.579c20.055 0 32.942-12.035 32.942-29.408s-12.887-28.4-32.942-28.4h-66.25v57.808zm2.5 112.272c25.067 0 41.538-14.367 41.538-36.093s-16.471-36.425-41.538-36.425h-68.75v72.518z"/>
        <path d="m256.758 110.291h-30.8v-39.1h77.71v181.776h-46.91zm0-106.27h46.914v46.779h-46.914z"/>
        <path d="m346.354.01h46.913v214.531h25.433v38.426h-72.336v-252.957z"/>
        <path d="m491.811 232.587v20.38h-44.048v-252.957h46.913v89.55c13.971-14.367 34.734-22.39 59.8-22.39 55.5 0 98.119 41.433 98.119 94.9s-41.892 94.9-98.474 94.9c-25.43 0-47.986-8.687-62.311-24.391zm112.089-70.508c0-31.409-23.275-54.8-55.144-54.8s-54.071 23.054-54.071 54.8 22.92 54.8 54.071 54.8 55.144-23.05 55.144-54.8z"/>
        <path d="m898.8 187.807 40.464-16.377c12.888 28.734 38.673 45.785 69.111 45.785 25.43 0 42.26-12.034 42.26-30.413 0-14.7-9.31-23.727-27.93-29.408l-51.205-15.372c-41.538-12.357-62.666-36.757-62.666-69.5.003-42.773 36.53-72.522 89.173-72.522 47.983 0 85.943 24.732 100.263 62.154l-40.11 16.71c-10.38-24.723-32.59-39.1-60.163-39.1-24.712 0-41.183 12.366-41.183 30.745 0 13.7 9.668 24.723 29 30.4l49.062 14.367c42.61 12.7 63.74 35.42 63.74 68.839 0 42.77-37.97 72.841-92.75 72.841-50.848 0-92.74-27.738-107.065-69.171z"/>
        <path d="m1150.65 110.291h-33.66v-39.1h33.66v-41.442h46.92v41.442h44.76v39.1h-44.76v103.918h45.47v38.758h-92.39z"/>
        <path d="m1265.68 204.849c0-30.081 21.48-51.125 67.32-58.142l58.01-8.687v-27.729h-104.92v-39.1h151.83v181.776h-44.4v-19.384c-15.04 15.372-35.09 23.4-60.87 23.4-40.82 0-66.96-20.047-66.96-52.129zm75.55 18.71c29.72 0 49.78-19.706 49.78-44.78v-7.35l-49.06 7.682c-18.62 3.348-27.57 11.029-27.57 24.059s11.1 20.38 26.86 20.38z"/>
        <path d="m1469.26 161.747c0-53.8 43.33-94.567 101.7-94.567 41.54 0 76.27 21.717 88.45 53.8l-41.18 16.71c-7.53-18.379-25.07-30.413-47.27-30.413-30.8 0-53 23.054-53 54.8s22.2 54.8 53 54.8c22.55 0 39.74-11.693 47.27-30.745l41.18 17.374c-11.46 31.076-46.2 53.466-88.45 53.466-58.37.006-101.7-41.094-101.7-95.225z"/>
        <path d="m1689.48.01h46.91v138.674h26.5l46.55-67.5h52.57l-60.45 88.887 68.75 92.9h-53.72l-56.22-75.184h-23.99v75.184h-46.91v-252.961z"/>
        <path d="m827.827 114.435v96.436h-105.227v-96.436zm45.173-42.153h-195.571v180.732h195.571z"/>
    </g>
</svg>