<svg width="465" height="169" viewBox="0 0 465 169" fill="none"
    xmlns="http://www.w3.org/2000/svg">
    <path d="M430.134 50.668L428.749 44.9106L442.392 34.8067L442.871 36.798L426.126 34.0019L424.731 28.2012L446.597 31.918L447.93 37.4589L430.134 50.668Z" class="fill-main"/>
    <path d="M416.598 20.6024C419.152 17.8697 422.908 16.601 426.595 17.2275L448.462 20.9443C452.854 21.6908 456.378 24.9847 457.42 29.3159L458.752 34.8573C459.795 39.1955 458.147 43.7381 454.564 46.3975L436.768 59.606C433.767 61.8331 429.849 62.4053 426.337 61.1306C422.824 59.8558 420.185 56.904 419.311 53.2708L417.927 47.5127C417.456 45.5531 417.535 43.5526 418.093 41.7023C416.756 40.3078 415.775 38.5633 415.304 36.6043L413.909 30.804C413.034 27.1675 414.045 23.3351 416.598 20.6024Z" class="fill-main"/>
    <path d="M405.811 62.6077L411.594 23.4386L417.784 21.95L412.001 61.1191L405.811 62.6077Z" class="fill-main"/>
    <path d="M415.183 11.1277C418.778 10.2635 422.567 11.241 425.296 13.7359C428.024 16.231 429.335 19.9188 428.795 23.5765L423.012 62.7452C422.348 67.2393 419.02 70.8789 414.603 71.941L408.413 73.4295C404.818 74.294 401.029 73.3164 398.3 70.8213C395.571 68.3262 394.259 64.6389 394.799 60.9811L400.582 21.8125L400.653 21.3948C401.456 17.0942 404.712 13.6458 408.991 12.6166L415.183 11.1277Z" class="fill-main"/>
    <path d="M391.297 61.1523C388.873 61.7352 386.62 61.697 384.538 61.0376C382.456 60.3782 380.685 59.232 379.224 57.599C377.762 55.9661 376.758 54.0097 376.209 51.7299C375.64 49.3634 375.642 47.1497 376.215 45.0887C376.81 42.9919 377.859 41.1979 379.363 39.7068C380.895 38.2087 382.758 37.196 384.951 36.6685C386.798 36.2244 388.487 36.1388 390.018 36.4117C391.578 36.6777 392.977 37.2266 394.215 38.0584C395.453 38.8902 396.498 39.9363 397.351 41.1966C398.196 42.428 398.81 43.8374 399.192 45.4246C399.289 45.8287 399.361 46.2541 399.407 46.7008C399.482 47.1406 399.5 47.5332 399.461 47.8784L381.28 52.2505L380.239 47.9217L395.217 44.3199L393.022 46.9998C392.963 45.6099 392.606 44.444 391.952 43.5022C391.327 42.5535 390.495 41.8837 389.454 41.4928C388.443 41.095 387.317 41.0453 386.076 41.3437C384.892 41.6282 383.912 42.1846 383.134 43.0127C382.349 43.8119 381.851 44.8477 381.638 46.1201C381.447 47.3566 381.603 48.7691 382.107 50.3574C382.339 51.8281 382.835 53.0672 383.596 54.0747C384.379 55.0465 385.335 55.7174 386.461 56.0874C387.617 56.4506 388.845 56.476 390.143 56.1637C391.442 55.8514 392.473 55.3135 393.235 54.5501C394.027 53.7797 394.571 52.8703 394.869 51.8219L399.999 52.9694C399.808 54.2059 399.326 55.3751 398.553 56.4768C397.78 57.5785 396.774 58.5378 395.536 59.3546C394.326 60.1644 392.913 60.7636 391.297 61.1523Z" fill="white"/>
    <path d="M382.35 25.8461C385.367 25.1207 388.634 24.8581 391.972 25.4532L391.971 25.4554C394.768 25.9427 397.461 26.936 399.928 28.4963L400.423 28.8189L401.323 29.4557C403.381 30.9885 405.138 32.8411 406.571 34.9594L406.567 34.9602C408.228 37.396 409.349 40.0584 410.013 42.8218C410.224 43.6952 410.367 44.5639 410.461 45.4178C410.606 46.4957 410.677 47.7578 410.521 49.1317C410.515 49.1821 410.506 49.232 410.499 49.2823C411.09 50.959 411.289 52.7988 410.999 54.6699C410.528 57.7202 409.343 60.4769 407.665 62.869C406.025 65.2055 403.987 67.0998 401.726 68.6013L401.728 68.6026C401.723 68.606 401.717 68.6088 401.712 68.6122C401.696 68.6229 401.68 68.6353 401.664 68.646L401.661 68.6429C399.232 70.2574 396.592 71.3265 393.899 71.9742C389.79 72.9622 385.451 73.0021 381.176 71.6481C377.188 70.3846 373.715 68.134 370.93 65.0213C368.155 61.9199 366.335 58.2738 365.387 54.3323C364.438 50.3839 364.345 46.2306 365.49 42.1086L365.506 42.0507C366.608 38.1684 368.622 34.6827 371.525 31.803L371.581 31.7468C374.626 28.7698 378.311 26.8174 382.35 25.8461Z" class="fill-main"/>
    <path d="M365.133 67.4441C362.796 68.0062 360.561 67.9789 358.428 67.3622C356.317 66.7098 354.506 65.5884 352.994 63.9982C351.475 62.3792 350.435 60.4009 349.873 58.0633C349.311 55.7257 349.341 53.505 349.965 51.4013C350.589 49.2975 351.695 47.4897 353.286 45.9777C354.905 44.4589 356.883 43.4183 359.221 42.8562C360.894 42.4537 362.526 42.382 364.114 42.641C365.696 42.8712 367.131 43.3808 368.42 44.1699C369.731 44.9232 370.787 45.9513 371.589 47.2544L367.131 50.616C366.414 49.5368 365.449 48.7615 364.236 48.2898C363.053 47.8113 361.797 47.7316 360.47 48.0508C359.229 48.3492 358.191 48.9195 357.355 49.7615C356.549 50.5965 355.999 51.6139 355.708 52.8135C355.416 54.0131 355.437 55.3056 355.77 56.6908C356.103 58.076 356.673 59.2366 357.478 60.1725C358.283 61.1085 359.234 61.7649 360.332 62.142C361.459 62.512 362.643 62.5479 363.884 62.2494C365.241 61.9233 366.337 61.278 367.174 60.3136C368.01 59.3492 368.499 58.209 368.641 56.8928L374.16 57.9466C374.018 59.3852 373.555 60.7633 372.773 62.0809C371.984 63.3697 370.941 64.4906 369.644 65.4436C368.339 66.3678 366.836 67.0346 365.133 67.4441Z" fill="white"/>
    <path d="M356.619 32.0339C359.63 31.3098 362.757 31.1413 365.906 31.6546L365.905 31.6603C368.824 32.1088 371.641 33.0904 374.233 34.6774L374.231 34.6795C377.05 36.3564 379.36 38.6458 381.068 41.4221C382.768 44.1856 383.122 47.4229 382.281 50.3405C384.404 52.6089 385.564 55.7392 385.237 59.043C384.924 62.1977 383.906 65.1305 382.344 67.762C382.318 67.8057 382.292 67.8494 382.265 67.8927C380.674 70.4907 378.618 72.6619 376.235 74.4129C376.183 74.4505 376.131 74.4881 376.079 74.5249C373.514 76.3426 370.684 77.5569 367.737 78.2657C363.682 79.2407 359.476 79.2512 355.336 78.0541C355.271 78.0353 355.206 78.0166 355.141 77.9966C351.223 76.7853 347.762 74.6486 344.927 71.6675C344.91 71.6499 344.894 71.6321 344.877 71.6144C341.929 68.4715 340.026 64.7201 339.051 60.6657C338.076 56.6135 338.061 52.3927 339.293 48.2372C340.47 44.2647 342.613 40.766 345.615 37.911L345.67 37.8605C348.813 34.912 352.565 33.0089 356.619 32.0339Z" class="fill-main"/>
    <path d="M328.007 75.8228L322.344 52.2738L327.668 50.9934L328.782 55.6253L328.152 54.9069C328.36 53.3609 328.998 52.078 330.065 51.0581C331.154 50.0024 332.536 49.2733 334.21 48.8708C335.941 48.4544 337.561 48.4618 339.069 48.8929C340.606 49.317 341.913 50.1171 342.989 51.293C344.059 52.4401 344.805 53.8938 345.228 55.6542L348.872 70.8052L343.201 72.1689L339.88 58.3598C339.631 57.3209 339.213 56.4749 338.629 55.8217C338.044 55.1685 337.343 54.7267 336.524 54.4961C335.728 54.2298 334.853 54.2112 333.901 54.4402C332.977 54.6623 332.207 55.0765 331.589 55.6829C330.965 56.2604 330.541 56.9729 330.318 57.8204C330.094 58.6679 330.107 59.6111 330.357 60.65L333.678 74.4591L328.007 75.8228Z" fill="white"/>
    <path d="M331.608 38.0484C334.918 37.2525 338.471 37.1683 342.03 38.1657L342.031 38.1636C342.064 38.1726 342.096 38.1812 342.129 38.1904L342.127 38.1925C345.641 39.1813 348.733 41.0829 351.199 43.7771L351.196 43.7797C353.724 46.5187 355.257 49.7471 356.051 53.0521L359.695 68.202C361.132 74.1786 357.451 80.189 351.475 81.6266L345.803 82.9905C344.094 83.4016 342.382 83.3917 340.775 83.0315C339.507 84.0823 337.988 84.8699 336.279 85.2808L330.609 86.6443C324.632 88.0817 318.622 84.4016 317.185 78.4247L311.522 54.8764C310.084 48.8995 313.764 42.8891 319.741 41.4518L325.066 40.1713C325.599 40.0432 326.132 39.9593 326.662 39.9106C328.246 39.0675 329.914 38.4559 331.608 38.0484Z" class="fill-main"/>
    <path d="M312.794 80.0304C310.37 80.6134 308.117 80.5752 306.036 79.9157C303.954 79.2563 302.182 78.1101 300.721 76.4772C299.26 74.8443 298.255 72.8879 297.707 70.608C297.138 68.2416 297.14 66.0279 297.713 63.9668C298.307 61.87 299.356 60.0761 300.86 58.5849C302.393 57.0869 304.255 56.0741 306.449 55.5467C308.296 55.1025 309.985 55.0169 311.516 55.2898C313.075 55.5558 314.474 56.1047 315.712 56.9365C316.95 57.7684 317.996 58.8144 318.848 60.0747C319.694 61.3062 320.308 62.7155 320.689 64.3028C320.786 64.7068 320.858 65.1322 320.905 65.579C320.98 66.0188 320.998 66.4113 320.959 66.7565L302.778 71.1287L301.737 66.7999L316.714 63.198L314.52 65.878C314.46 64.488 314.104 63.3221 313.45 62.3804C312.825 61.4317 311.992 60.7619 310.952 60.371C309.94 59.9731 308.814 59.9234 307.573 60.2218C306.39 60.5064 305.409 61.0627 304.632 61.8908C303.847 62.6901 303.348 63.7259 303.135 64.9982C302.944 66.2348 303.1 67.6472 303.605 69.2356C303.836 70.7063 304.332 71.9454 305.094 72.9529C305.877 73.9246 306.832 74.5955 307.959 74.9656C309.115 75.3287 310.342 75.3542 311.641 75.0419C312.939 74.7296 313.97 74.1917 314.733 73.4282C315.524 72.6578 316.069 71.7484 316.366 70.7L321.496 71.8476C321.305 73.0841 320.823 74.2532 320.05 75.355C319.277 76.4567 318.271 77.4159 317.033 78.2327C315.823 79.0426 314.411 79.6418 312.794 80.0304Z" fill="white"/>
    <path d="M303.847 44.7245C306.864 43.999 310.131 43.7364 313.47 44.3315L313.468 44.3337C316.266 44.821 318.959 45.8143 321.425 47.3746L321.92 47.6972L322.821 48.3341C324.878 49.8668 326.635 51.7194 328.068 53.8377L328.065 53.8385C329.725 56.2743 330.846 58.9367 331.511 61.7001C331.721 62.5735 331.864 63.4422 331.958 64.2961C332.104 65.374 332.174 66.6361 332.018 68.01C332.013 68.0605 332.003 68.1103 331.997 68.1606C332.587 69.8374 332.786 71.6771 332.497 73.5482C332.025 76.5985 330.84 79.3552 329.162 81.7473C327.523 84.0838 325.484 85.9781 323.223 87.4796L323.226 87.4809C323.22 87.4844 323.214 87.4871 323.209 87.4905C323.193 87.5012 323.178 87.5136 323.161 87.5243L323.159 87.5212C320.729 89.1357 318.09 90.2048 315.396 90.8525C311.287 91.8406 306.948 91.8804 302.674 90.5264C298.685 89.2629 295.213 87.0123 292.427 83.8996C289.652 80.7982 287.833 77.1521 286.885 73.2106C285.935 69.2622 285.842 65.1089 286.988 60.9869L287.004 60.929C288.105 57.0467 290.119 53.561 293.023 50.6813L293.078 50.6251C296.124 47.6481 299.808 45.6957 303.847 44.7245Z" class="fill-main"/>
    <path d="M285.31 86.0904L279.647 62.5414L284.972 61.261L286.231 66.4989L285.611 65.8238C285.736 63.9316 286.292 62.5003 287.28 61.5301C288.297 60.553 289.628 59.8666 291.273 59.471L292.658 59.1379L293.866 64.1593L291.831 64.6486C290.215 65.0373 289.038 65.8546 288.299 67.1006C287.554 68.3178 287.397 69.821 287.827 71.6102L290.981 84.7267L285.31 86.0904Z" fill="white"/>
    <path d="M290.056 48.3158C296.032 46.8786 302.043 50.5586 303.48 56.5354L304.688 61.5572C305.838 66.3389 303.71 71.1392 299.754 73.6048L301.803 82.1248C303.24 88.1015 299.56 94.1121 293.583 95.5494L287.913 96.9129C281.936 98.3502 275.926 94.6699 274.488 88.6933L268.825 65.1432C267.388 59.1666 271.068 53.1558 277.045 51.7186L282.369 50.4381C283.061 50.2718 283.753 50.1792 284.438 50.1456C285.824 49.4803 287.251 48.9903 288.671 48.6488L290.056 48.3158Z" class="fill-main"/>
    <path d="M270.098 90.2982C267.674 90.8811 265.421 90.8429 263.339 90.1835C261.257 89.524 259.485 88.3779 258.024 86.7449C256.563 85.112 255.558 83.1556 255.01 80.8757C254.441 78.5093 254.443 76.2956 255.016 74.2346C255.611 72.1377 256.66 70.3438 258.163 68.8527C259.696 67.3546 261.559 66.3418 263.752 65.8144C265.599 65.3702 267.288 65.2846 268.819 65.5575C270.379 65.8235 271.778 66.3724 273.016 67.2043C274.254 68.0361 275.299 69.0821 276.151 70.3425C276.997 71.5739 277.611 72.9833 277.992 74.5705C278.09 74.9745 278.161 75.3999 278.208 75.8467C278.283 76.2865 278.301 76.679 278.262 77.0242L260.081 81.3964L259.04 77.0676L274.018 73.4657L271.823 76.1457C271.764 74.7557 271.407 73.5899 270.753 72.6481C270.128 71.6994 269.295 71.0296 268.255 70.6387C267.243 70.2409 266.117 70.1911 264.876 70.4896C263.693 70.7741 262.713 71.3304 261.935 72.1585C261.15 72.9578 260.651 73.9936 260.438 75.2659C260.247 76.5025 260.404 77.9149 260.908 79.5033C261.139 80.974 261.636 82.2131 262.397 83.2206C263.18 84.1923 264.135 84.8632 265.262 85.2333C266.418 85.5965 267.645 85.6219 268.944 85.3096C270.243 84.9973 271.273 84.4594 272.036 83.6959C272.828 82.9255 273.372 82.0161 273.669 80.9677L278.799 82.1153C278.608 83.3518 278.126 84.5209 277.353 85.6227C276.58 86.7244 275.575 87.6837 274.336 88.5004C273.127 89.3103 271.714 89.9095 270.098 90.2982Z" fill="white"/>
    <path d="M261.15 54.9921C264.167 54.2667 267.435 54.004 270.773 54.5991L270.772 54.6013C273.569 55.0886 276.262 56.082 278.729 57.6422L279.224 57.9648L280.124 58.6017C282.182 60.1344 283.938 61.987 285.371 64.1053L285.368 64.1062C287.028 66.5419 288.15 69.2043 288.814 71.9677C289.024 72.8411 289.168 73.7098 289.262 74.5637C289.407 75.6416 289.477 76.9038 289.322 78.2777C289.316 78.3281 289.307 78.378 289.3 78.4282C289.89 80.105 290.089 81.9447 289.8 83.8158C289.329 86.8661 288.144 89.6228 286.465 92.015C284.826 94.3515 282.788 96.2457 280.527 97.7472L280.529 97.7486C280.524 97.752 280.518 97.7547 280.513 97.7581C280.496 97.7689 280.481 97.7812 280.465 97.7919L280.462 97.7888C278.033 99.4034 275.393 100.472 272.7 101.12C268.591 102.108 264.252 102.148 259.977 100.794C255.989 99.5305 252.516 97.28 249.73 94.1672C246.955 91.0658 245.136 87.4198 244.188 83.4782C243.239 79.5298 243.146 75.3765 244.291 71.2545L244.307 71.1967C245.408 67.3143 247.422 63.8286 250.326 60.9489L250.382 60.8928C253.427 57.9157 257.112 55.9633 261.15 54.9921Z" class="fill-main"/>
    <path d="M244.622 95.8751L240.177 77.3909L236.021 78.3903L234.803 73.3255L238.959 72.3262L238.771 71.547C238.341 69.7577 238.337 68.1559 238.76 66.7414C239.205 65.2912 240.012 64.0746 241.18 63.0916C242.348 62.1086 243.841 61.3985 245.659 60.9613C246.005 60.878 246.387 60.8166 246.805 60.7772C247.245 60.702 247.616 60.6585 247.919 60.6468L249.095 65.5384C248.792 65.5501 248.511 65.5872 248.252 65.6496C248.014 65.6763 247.794 65.7139 247.592 65.7625C246.322 66.0678 245.41 66.5924 244.856 67.3361C244.296 68.051 244.158 69.0001 244.442 70.1833L244.629 70.9625L249.867 69.7029L251.085 74.7676L245.847 76.0272L250.293 94.5114L244.622 95.8751Z" fill="white"/>
    <path d="M243.756 49.9859C244.287 49.8804 244.806 49.805 245.308 49.7468C245.949 49.6472 246.695 49.5549 247.489 49.5242C252.79 49.3195 257.5 52.886 258.74 58.0447L259.917 62.9361C260.13 63.8234 260.227 64.724 260.221 65.6188C260.408 66.0949 260.566 66.5895 260.689 67.1011L261.907 72.1652C262.853 76.0985 261.582 80.0454 258.899 82.6948L261.115 91.9088C262.552 97.8855 258.872 103.896 252.895 105.333L247.224 106.697C241.247 108.134 235.236 104.454 233.799 98.4777L231.403 88.5134C228.398 87.1403 226.031 84.4534 225.199 80.9926L223.981 75.9286C222.944 71.6159 224.572 67.2868 227.804 64.6698C227.89 64.2985 227.985 63.9253 228.097 63.5524L228.119 63.4762C229.197 59.9646 231.216 56.9294 234.011 54.5763C236.766 52.2581 239.93 50.891 243.056 50.1392L243.756 49.9859Z" class="fill-main"/>
    <path d="M216.235 102.702L210.572 79.1526L215.896 77.8722L217.01 82.5041L216.379 81.7857C216.588 80.2397 217.225 78.9568 218.293 77.9369C219.382 76.8812 220.764 76.1521 222.438 75.7496C224.169 75.3332 225.789 75.3405 227.297 75.7716C228.834 76.1958 230.14 76.9958 231.217 78.1718C232.286 79.3188 233.033 80.7726 233.456 82.533L237.1 97.6839L231.429 99.0476L228.108 85.2386C227.858 84.1997 227.441 83.3537 226.857 82.7005C226.272 82.0473 225.571 81.6055 224.752 81.3749C223.955 81.1086 223.081 81.0899 222.129 81.319C221.205 81.541 220.435 81.9553 219.817 82.5617C219.193 83.1392 218.769 83.8517 218.545 84.6992C218.322 85.5467 218.335 86.4899 218.585 87.5288L221.906 101.338L216.235 102.702Z" fill="white"/>
    <path d="M219.836 64.9273C223.146 64.1314 226.699 64.0472 230.258 65.0446L230.259 65.0424C230.292 65.0514 230.324 65.0601 230.357 65.0692L230.355 65.0714C233.869 66.0601 236.961 67.9617 239.427 70.656L239.424 70.6586C241.951 73.3975 243.484 76.6259 244.279 79.9309L247.922 95.0808C249.36 101.058 245.679 107.068 239.703 108.505L234.031 109.869C232.322 110.28 230.611 110.27 229.004 109.91C227.737 110.961 226.216 111.749 224.507 112.16L218.837 113.523C212.86 114.961 206.85 111.28 205.413 105.304L199.75 81.7552C198.312 75.7784 201.992 69.768 207.969 68.3306L213.294 67.0502C213.827 66.9221 214.36 66.8382 214.89 66.7894C216.474 65.9463 218.142 65.3347 219.836 64.9273Z" class="fill-main"/>
    <path d="M199.635 107.243C197.326 107.798 195.091 107.771 192.93 107.161C190.797 106.544 188.946 105.448 187.376 103.872C185.836 102.288 184.781 100.313 184.212 97.947C183.643 95.5806 183.684 93.342 184.337 91.2313C185.018 89.1137 186.168 87.2954 187.787 85.7765C189.406 84.2577 191.385 83.2172 193.722 82.655C196.031 82.0998 198.252 82.1306 200.384 82.7473C202.517 83.3639 204.354 84.4639 205.894 86.0472C207.457 87.5946 208.527 89.566 209.103 91.9613C209.672 94.3277 209.616 96.5698 208.934 98.6874C208.253 100.805 207.103 102.623 205.484 104.142C203.865 105.661 201.915 106.695 199.635 107.243ZM198.386 102.048C199.656 101.743 200.694 101.173 201.501 100.338C202.336 99.4956 202.9 98.4748 203.191 97.2752C203.505 96.0397 203.498 94.7438 203.172 93.3875C202.839 92.0022 202.259 90.8595 201.432 89.9594C200.627 89.0235 199.661 88.3705 198.534 88.0004C197.429 87.5945 196.241 87.5443 194.972 87.8496C193.673 88.1619 192.609 88.7535 191.781 89.6244C190.945 90.4664 190.367 91.4907 190.047 92.6972C189.748 93.868 189.766 95.146 190.099 96.5313C190.425 97.8876 190.994 99.0482 191.806 100.013C192.64 100.942 193.621 101.592 194.748 101.962C195.875 102.332 197.087 102.361 198.386 102.048Z" fill="white"/>
    <path d="M198.068 94.7424L198.324 94.8075L198.28 94.5646L198.068 94.7424ZM196.881 95.7415L196.022 96.4641C196.236 96.5156 196.525 96.5426 197.033 96.4204C197.545 96.2973 197.736 96.1469 197.867 96.0241C197.879 96.013 197.888 95.9993 197.9 95.9884L196.881 95.7415ZM197.99 94.8076L196.881 95.7415L197.9 95.9884C198.117 95.7772 198.239 95.5874 198.338 95.2791C198.351 95.2415 198.359 95.2056 198.361 95.1396C198.362 95.0976 198.356 95.019 198.34 94.8986L197.99 94.8076ZM197.168 94.588L197.19 94.5175L197.764 94.6645L198.195 94.2778C198.143 94.1195 198.105 94.0291 198.085 93.9929C198.077 93.978 198.07 93.9676 198.066 93.962C198.063 93.9568 198.061 93.9544 198.061 93.954L198.063 93.9554L197.918 93.8095C197.731 93.6172 197.58 93.5231 197.293 93.4401C197.144 93.3971 196.892 93.3409 196.325 93.4771C196.114 93.5278 195.952 93.5854 195.825 93.6383L196.291 94.102L196.228 94.2737L197.19 94.5175L197.168 94.588L195.231 94.0736C195.114 94.2138 195.034 94.3602 194.964 94.5515C194.946 94.6278 194.915 94.8508 195.034 95.3453C195.153 95.8403 195.283 96.0226 195.334 96.0817C195.494 96.2311 195.642 96.3272 195.828 96.4008L197.692 94.7285L197.168 94.588ZM195.825 93.6383C195.578 93.7409 195.465 93.8356 195.403 93.8946C195.354 93.9399 195.311 93.9844 195.271 94.0287L196.228 94.2737L196.291 94.102L195.825 93.6383ZM219.925 89.3596C220.925 93.5192 220.895 97.8535 219.529 102.097C218.271 106.007 216.097 109.446 213.098 112.259C209.991 115.174 206.285 117.091 202.238 118.065C198.186 119.039 194.009 119.031 189.907 117.873C189.884 117.867 189.86 117.86 189.837 117.853C185.888 116.711 182.387 114.637 179.489 111.726C179.459 111.696 179.429 111.664 179.4 111.634C176.325 108.474 174.378 104.657 173.39 100.55C172.402 96.4429 172.401 92.1563 173.703 87.9444L173.74 87.8217C174.999 83.9115 177.173 80.4723 180.171 77.6594C183.314 74.711 187.066 72.8078 191.12 71.8329C195.171 70.8588 199.36 70.8647 203.477 72.055C207.389 73.1863 210.858 75.2428 213.725 78.1392L213.727 78.1387C213.744 78.1561 213.761 78.1741 213.779 78.1915C213.809 78.2226 213.841 78.2533 213.872 78.2846L213.868 78.2855C216.989 81.4326 218.94 85.2636 219.925 89.3596Z" class="fill-main"/>
    <path d="M170.647 114.214C168.338 114.769 166.102 114.864 163.938 114.499C161.804 114.127 159.82 113.368 157.987 112.221C156.183 111.068 154.635 109.578 153.341 107.752C152.047 105.926 151.112 103.816 150.536 101.42C149.96 99.0251 149.819 96.7237 150.112 94.5162C150.427 92.2729 151.129 90.2418 152.218 88.423C153.329 86.5684 154.769 85.0011 156.537 83.7212C158.298 82.4123 160.333 81.4803 162.642 80.9251C164.95 80.3699 167.108 80.2633 169.113 80.6053C171.147 80.9403 172.956 81.6045 174.538 82.5978C176.113 83.5622 177.359 84.7433 178.275 86.1409L173.587 89.8784C172.592 88.408 171.248 87.3269 169.556 86.635C167.856 85.9142 165.982 85.8002 163.933 86.2929C161.912 86.7787 160.238 87.6851 158.908 89.0122C157.608 90.3324 156.726 91.9335 156.263 93.8155C155.828 95.6906 155.882 97.7536 156.423 100.005C156.964 102.256 157.858 104.132 159.105 105.633C160.373 107.099 161.886 108.124 163.645 108.709C165.432 109.286 167.336 109.332 169.356 108.846C171.405 108.353 173.026 107.414 174.219 106.028C175.406 104.613 176.107 103.025 176.325 101.263L182.199 102.461C182.019 104.122 181.45 105.755 180.492 107.359C179.528 108.934 178.216 110.333 176.556 111.557C174.925 112.773 172.956 113.659 170.647 114.214Z" fill="white"/>
    <path d="M160.039 70.1031C163.571 69.2537 167.266 68.9983 170.984 69.6324L170.983 69.6346C174.303 70.1888 177.516 71.3252 180.457 73.1716L180.455 73.1738C183.239 74.8973 185.7 77.1654 187.585 80.0398C190.151 83.9565 189.943 88.9402 187.348 92.59C191.32 94.6604 193.771 99.0061 193.265 103.662C192.892 107.094 191.731 110.248 190.05 113.064C190.029 113.1 190.006 113.136 189.985 113.171C188.198 116.088 185.87 118.506 183.209 120.476L183.212 120.479C180.188 122.735 176.781 124.187 173.249 125.036C169.603 125.913 165.849 126.11 162.088 125.475C162.068 125.472 162.047 125.469 162.027 125.465C158.479 124.847 155.139 123.569 152.084 121.657C152.053 121.638 152.021 121.618 151.99 121.598C148.924 119.637 146.345 117.129 144.26 114.187C142.069 111.095 140.587 107.655 139.714 104.023C138.852 100.437 138.586 96.752 139.078 93.0498L139.09 92.9669C139.598 89.3523 140.764 85.8876 142.669 82.706L142.67 82.7038C144.539 79.5846 146.973 76.929 149.899 74.7888L149.898 74.787C149.907 74.7804 149.916 74.7741 149.925 74.7675C149.953 74.7468 149.982 74.7247 150.01 74.7041L150.011 74.7059C153.044 72.4762 156.437 70.9694 160.039 70.1031Z" class="fill-main"/>
    <path d="M121.541 125.473L113.661 92.704L119.332 91.3403L122.663 105.193L121.686 104.558C121.894 103.012 122.532 101.729 123.599 100.709C124.689 99.6531 126.07 98.924 127.744 98.5214C129.476 98.105 131.095 98.1124 132.603 98.5435C134.14 98.9676 135.447 99.7677 136.523 100.944C137.593 102.091 138.339 103.544 138.763 105.305L142.406 120.456L136.735 121.819L133.415 108.01C133.165 106.972 132.748 106.125 132.163 105.472C131.579 104.819 130.877 104.377 130.059 104.147C129.262 103.88 128.387 103.862 127.435 104.091C126.512 104.313 125.741 104.727 125.124 105.334C124.499 105.911 124.075 106.624 123.852 107.471C123.628 108.319 123.641 109.262 123.891 110.301L127.212 124.11L121.541 125.473Z" fill="white"/>
    <path d="M116.728 80.5184C122.135 79.2181 127.57 82.106 129.622 87.0938C131.573 87.037 133.567 87.2556 135.564 87.8151L135.565 87.8147C135.598 87.8237 135.631 87.8323 135.663 87.8415L135.661 87.8419C139.175 88.8306 142.267 90.7338 144.734 93.4282L144.73 93.429C147.258 96.168 148.79 99.3963 149.585 102.701L153.229 117.853C154.666 123.83 150.986 129.84 145.009 131.278L139.338 132.642C137.628 133.053 135.916 133.043 134.309 132.683C133.042 133.733 131.522 134.521 129.814 134.932L124.144 136.295C118.167 137.733 112.156 134.053 110.719 128.076L102.839 95.3065C101.401 89.3296 105.081 83.3192 111.058 81.8819L116.728 80.5184Z" class="fill-main"/>
    <path d="M106.671 129.599C104.333 130.161 102.098 130.134 99.9656 129.517C97.8549 128.864 96.0436 127.743 94.5317 126.153C93.0128 124.534 91.9723 122.556 91.4101 120.218C90.848 117.88 90.8787 115.66 91.5024 113.556C92.126 111.452 93.2329 109.644 94.8231 108.132C96.4421 106.614 98.4205 105.573 100.758 105.011C102.432 104.608 104.063 104.537 105.652 104.796C107.234 105.026 108.669 105.536 109.958 106.325C111.268 107.078 112.324 108.106 113.126 109.409L108.669 112.771C107.951 111.692 106.986 110.916 105.774 110.445C104.59 109.966 103.335 109.886 102.007 110.206C100.766 110.504 99.7281 111.074 98.8926 111.916C98.086 112.751 97.5369 113.769 97.2454 114.968C96.9539 116.168 96.9747 117.46 97.3078 118.846C97.6409 120.231 98.21 121.391 99.0151 122.327C99.8202 123.263 100.772 123.92 101.87 124.297C102.997 124.667 104.181 124.703 105.422 124.404C106.778 124.078 107.875 123.433 108.711 122.468C109.548 121.504 110.037 120.364 110.178 119.048L115.698 120.101C115.555 121.54 115.093 122.918 114.311 124.236C113.521 125.524 112.478 126.645 111.181 127.598C109.877 128.523 108.374 129.189 106.671 129.599Z" fill="white"/>
    <path d="M98.1562 94.1887C101.168 93.4646 104.294 93.2961 107.443 93.8094L107.442 93.8151C110.361 94.2637 113.178 95.2452 115.77 96.8322L115.769 96.8344C118.587 98.5112 120.897 100.801 122.605 103.577C124.306 106.34 124.659 109.578 123.819 112.495C125.941 114.764 127.101 117.894 126.774 121.198C126.461 124.353 125.443 127.285 123.881 129.917C123.855 129.961 123.829 130.004 123.802 130.048C122.212 132.645 120.155 134.817 117.772 136.568C117.721 136.605 117.668 136.643 117.616 136.68C115.051 138.497 112.221 139.712 109.274 140.421C105.22 141.395 101.013 141.406 96.8733 140.209C96.8083 140.19 96.7434 140.171 96.6787 140.151C92.7605 138.94 89.2989 136.803 86.4646 133.822C86.4478 133.805 86.4312 133.787 86.4145 133.769C83.4661 130.626 81.5629 126.875 80.5879 122.821C79.6135 118.768 79.5982 114.547 80.8301 110.392C82.0077 106.42 84.1499 102.921 87.1526 100.066L87.2076 100.015C90.3505 97.0669 94.1019 95.1637 98.1562 94.1887Z" class="fill-main"/>
    <path d="M79.992 136.014C77.5678 136.597 75.3149 136.559 73.233 135.9C71.1512 135.24 69.3797 134.094 67.9185 132.461C66.4574 130.828 65.4527 128.872 64.9044 126.592C64.3353 124.226 64.3372 122.012 64.91 119.951C65.5048 117.854 66.554 116.06 68.0576 114.569C69.5901 113.071 71.453 112.058 73.6463 111.531C75.4932 111.087 77.1822 111.001 78.7132 111.274C80.273 111.54 81.6719 112.089 82.9099 112.921C84.1479 113.752 85.1932 114.798 86.0457 116.059C86.8914 117.29 87.5051 118.7 87.8868 120.287C87.9839 120.691 88.0557 121.116 88.1021 121.563C88.1773 122.003 88.1954 122.395 88.1563 122.741L69.9751 127.113L68.9341 122.784L83.9119 119.182L81.7173 121.862C81.6578 120.472 81.3011 119.306 80.6473 118.364C80.0223 117.416 79.1896 116.746 78.1492 116.355C77.1377 115.957 76.0115 115.907 74.7705 116.206C73.5873 116.49 72.6068 117.047 71.8291 117.875C71.0444 118.674 70.5456 119.71 70.3326 120.982C70.1415 122.219 70.298 123.631 70.802 125.22C71.0336 126.69 71.53 127.929 72.2913 128.937C73.0745 129.909 74.0295 130.58 75.1565 130.95C76.3123 131.313 77.5395 131.338 78.8381 131.026C80.1368 130.714 81.1675 130.176 81.9303 129.412C82.7219 128.642 83.2664 127.732 83.5638 126.684L88.6937 127.832C88.5026 129.068 88.0206 130.237 87.2476 131.339C86.4745 132.441 85.4688 133.4 84.2305 134.217C83.0209 135.027 81.6081 135.626 79.992 136.014Z" fill="white"/>
    <path d="M71.0448 100.708C74.0618 99.9831 77.3291 99.7204 80.6673 100.316L80.6659 100.318C83.4635 100.805 86.1564 101.798 88.623 103.359L89.1179 103.681L90.0183 104.318C92.0762 105.851 93.8328 107.703 95.2658 109.822L95.2623 109.823C96.9229 112.258 98.0441 114.921 98.7087 117.684C98.9187 118.557 99.062 119.426 99.156 120.28C99.3013 121.358 99.3718 122.62 99.2162 123.994C99.2105 124.044 99.201 124.094 99.1946 124.145C99.7848 125.821 99.9838 127.661 99.6946 129.532C99.2231 132.583 98.038 135.339 96.3597 137.731C94.7204 140.068 92.6822 141.962 90.4211 143.464L90.4233 143.465C90.4182 143.468 90.4121 143.471 90.407 143.474C90.3907 143.485 90.3755 143.498 90.3592 143.508L90.3566 143.505C87.927 145.12 85.2873 146.189 82.5941 146.836C78.4849 147.825 74.1461 147.864 69.8715 146.51C65.8829 145.247 62.4103 142.996 59.6248 139.884C56.8497 136.782 55.0303 133.136 54.0824 129.195C53.1329 125.246 53.0401 121.093 54.1856 116.971L54.2015 116.913C55.3028 113.031 57.3168 109.545 60.2207 106.665L60.2761 106.609C63.3216 103.632 67.0059 101.68 71.0448 100.708Z" class="fill-main"/>
    <path d="M54.4706 141.603L47.9643 114.547L39.6097 116.556L38.3605 111.362L60.8705 105.949L62.1197 111.143L53.8949 113.121L60.4011 140.176L54.4706 141.603Z" fill="white"/>
    <path d="M58.2688 95.1263C64.2454 93.6895 70.2561 97.3693 71.6934 103.346L72.9425 108.54C74.1645 113.622 71.6853 118.724 67.243 121.024L71.2229 137.574C72.6603 143.551 68.9802 149.561 63.0033 150.998L57.0726 152.425C51.0958 153.862 45.0853 150.182 43.648 144.205L39.6752 127.685C34.6193 127.719 30.0205 124.286 28.7874 119.159L27.5383 113.964C26.101 107.987 29.781 101.977 35.7579 100.54L58.2688 95.1263Z" class="fill-main"/>
    <path d="M41.039 144.237L19.1397 140.574L17.8072 135.033L35.6363 121.77L37.0312 127.571L23.3447 137.685L22.8659 135.694L39.6545 138.48L41.039 144.237Z" class="fill-main"/>
    <path d="M28.9938 112.84C31.9937 110.609 35.9129 110.032 39.4281 111.305C42.9433 112.579 45.5835 115.533 46.4577 119.168L47.8526 124.968C48.3238 126.928 48.2454 128.928 47.6884 130.778C49.0252 132.173 50.0046 133.918 50.4758 135.877L51.8605 141.635C52.7338 145.266 51.7284 149.094 49.1818 151.826C46.635 154.559 42.8869 155.832 39.2029 155.215L17.3039 151.551C12.9 150.814 9.36201 147.518 8.31775 143.177L6.98516 137.636L6.89478 137.229C6.04693 133.019 7.69827 128.679 11.1633 126.101L28.9938 112.84Z" class="fill-main"/>
    <path d="M430.696 50.2124L429.311 44.455L442.954 34.3511L443.433 36.3424L426.688 33.5463L425.293 27.7457L447.159 31.4624L448.492 37.0034L430.696 50.2124Z" fill="white"/>
    <path d="M406.373 62.1521L412.156 22.983L418.347 21.4944L412.563 60.6635L406.373 62.1521Z" fill="white"/>
    <path d="M391.859 60.6966C389.435 61.2796 387.182 61.2413 385.1 60.5819C383.018 59.9225 381.247 58.7763 379.786 57.1434C378.325 55.5105 377.32 53.5541 376.772 51.2742C376.203 48.9078 376.204 46.694 376.777 44.633C377.372 42.5362 378.421 40.7422 379.925 39.2511C381.457 37.7531 383.32 36.7403 385.513 36.2129C387.36 35.7687 389.049 35.6831 390.58 35.956C392.14 36.222 393.539 36.7709 394.777 37.6027C396.015 38.4345 397.06 39.4806 397.913 40.7409C398.759 41.9724 399.372 43.3817 399.754 44.969C399.851 45.373 399.923 45.7984 399.969 46.2452C400.044 46.685 400.063 47.0775 400.023 47.4227L381.842 51.7949L380.801 47.466L395.779 43.8642L393.584 46.5442C393.525 45.1542 393.168 43.9883 392.514 43.0466C391.889 42.0979 391.057 41.4281 390.016 41.0372C389.005 40.6393 387.879 40.5896 386.638 40.888C385.454 41.1726 384.474 41.7289 383.696 42.557C382.912 43.3563 382.413 44.3921 382.2 45.6644C382.009 46.9009 382.165 48.3134 382.669 49.9017C382.901 51.3724 383.397 52.6116 384.158 53.6191C384.942 54.5908 385.897 55.2617 387.024 55.6318C388.179 55.9949 389.407 56.0203 390.705 55.708C392.004 55.3957 393.035 54.8579 393.797 54.0944C394.589 53.324 395.134 52.4146 395.431 51.3662L400.561 52.5137C400.37 53.7503 399.888 54.9194 399.115 56.0211C398.342 57.1229 397.336 58.0821 396.098 58.8989C394.888 59.7087 393.475 60.308 391.859 60.6966Z" fill="white"/>
    <path d="M365.696 66.9884C363.358 67.5505 361.123 67.5233 358.99 66.9066C356.88 66.2541 355.068 65.1328 353.556 63.5426C352.037 61.9235 350.997 59.9452 350.435 57.6076C349.873 55.27 349.903 53.0494 350.527 50.9456C351.151 48.8419 352.258 47.034 353.848 45.5221C355.467 44.0032 357.445 42.9627 359.783 42.4006C361.457 41.998 363.088 41.9263 364.676 42.1853C366.258 42.4155 367.693 42.9251 368.982 43.7142C370.293 44.4675 371.349 45.4957 372.151 46.7987L367.693 50.1603C366.976 49.0812 366.011 48.3058 364.798 47.8342C363.615 47.3556 362.359 47.2759 361.032 47.5952C359.791 47.8936 358.753 48.4638 357.917 49.3058C357.111 50.1408 356.562 51.1582 356.27 52.3578C355.979 53.5575 355.999 54.8499 356.332 56.2352C356.666 57.6204 357.235 58.781 358.04 59.7169C358.845 60.6528 359.796 61.3093 360.895 61.6863C362.021 62.0564 363.205 62.0922 364.446 61.7938C365.803 61.4676 366.899 60.8223 367.736 59.858C368.572 58.8936 369.061 57.7533 369.203 56.4371L374.722 57.491C374.58 58.9295 374.117 60.3076 373.335 61.6253C372.546 62.914 371.503 64.0349 370.206 64.988C368.902 65.9121 367.398 66.5789 365.696 66.9884Z" fill="white"/>
    <path d="M328.569 75.3671L322.906 51.8182L328.23 50.5377L329.344 55.1696L328.713 54.4512C328.922 52.9053 329.56 51.6224 330.627 50.6025C331.716 49.5468 333.098 48.8177 334.772 48.4151C336.503 47.9988 338.123 48.0061 339.631 48.4372C341.168 48.8613 342.475 49.6614 343.551 50.8373C344.621 51.9844 345.367 53.4381 345.79 55.1985L349.434 70.3495L343.763 71.7132L340.442 57.9042C340.192 56.8653 339.775 56.0192 339.191 55.366C338.606 54.7129 337.905 54.271 337.086 54.0405C336.289 53.7742 335.415 53.7555 334.463 53.9845C333.539 54.2066 332.769 54.6208 332.151 55.2272C331.527 55.8047 331.103 56.5173 330.879 57.3648C330.656 58.2122 330.669 59.1555 330.919 60.1944L334.24 74.0034L328.569 75.3671Z" fill="white"/>
    <path d="M313.357 79.5749C310.932 80.1578 308.679 80.1196 306.598 79.4602C304.516 78.8007 302.744 77.6546 301.283 76.0216C299.822 74.3887 298.817 72.4323 298.269 70.1524C297.7 67.786 297.702 65.5723 298.275 63.5113C298.869 61.4144 299.919 59.6205 301.422 58.1294C302.955 56.6313 304.818 55.6185 307.011 55.0911C308.858 54.6469 310.547 54.5613 312.078 54.8343C313.638 55.1002 315.037 55.6491 316.275 56.481C317.512 57.3128 318.558 58.3588 319.41 59.6192C320.256 60.8506 320.87 62.26 321.251 63.8472C321.349 64.2512 321.42 64.6766 321.467 65.1234C321.542 65.5632 321.56 65.9557 321.521 66.3009L303.34 70.6731L302.299 66.3443L317.277 62.7424L315.082 65.4224C315.022 64.0324 314.666 62.8666 314.012 61.9248C313.387 60.9761 312.554 60.3063 311.514 59.9154C310.502 59.5176 309.376 59.4678 308.135 59.7663C306.952 60.0508 305.971 60.6071 305.194 61.4352C304.409 62.2345 303.91 63.2703 303.697 64.5426C303.506 65.7792 303.663 67.1916 304.167 68.78C304.398 70.2507 304.895 71.4898 305.656 72.4973C306.439 73.469 307.394 74.1399 308.521 74.51C309.677 74.8732 310.904 74.8986 312.203 74.5863C313.501 74.274 314.532 73.7361 315.295 72.9726C316.087 72.2022 316.631 71.2928 316.928 70.2444L322.058 71.392C321.867 72.6285 321.385 73.7976 320.612 74.8994C319.839 76.0011 318.833 76.9604 317.595 77.7771C316.386 78.587 314.973 79.1862 313.357 79.5749Z" fill="white"/>
    <path d="M285.872 85.6348L280.209 62.0859L285.534 60.8054L286.794 66.0433L286.173 65.3682C286.298 63.476 286.855 62.0448 287.842 61.0745C288.859 60.0974 290.19 59.411 291.835 59.0154L293.22 58.6823L294.428 63.7038L292.393 64.1931C290.777 64.5817 289.6 65.399 288.861 66.645C288.116 67.8622 287.959 69.3654 288.389 71.1547L291.543 84.2711L285.872 85.6348Z" fill="white"/>
    <path d="M270.66 89.8424C268.236 90.4254 265.983 90.3871 263.901 89.7277C261.819 89.0683 260.048 87.9221 258.586 86.2892C257.125 84.6563 256.12 82.6999 255.572 80.42C255.003 78.0536 255.005 75.8398 255.578 73.7788C256.173 71.682 257.222 69.888 258.725 68.3969C260.258 66.8989 262.121 65.8861 264.314 65.3587C266.161 64.9145 267.85 64.8289 269.381 65.1018C270.941 65.3678 272.34 65.9167 273.578 66.7485C274.816 67.5803 275.861 68.6264 276.714 69.8867C277.559 71.1182 278.173 72.5275 278.555 74.1148C278.652 74.5188 278.724 74.9442 278.77 75.391C278.845 75.8308 278.863 76.2233 278.824 76.5685L260.643 80.9407L259.602 76.6118L274.58 73.01L272.385 75.69C272.326 74.3 271.969 73.1341 271.315 72.1924C270.69 71.2437 269.857 70.5739 268.817 70.183C267.806 69.7851 266.679 69.7354 265.438 70.0338C264.255 70.3184 263.275 70.8747 262.497 71.7028C261.712 72.5021 261.213 73.5379 261 74.8102C260.809 76.0467 260.966 77.4592 261.47 79.0475C261.701 80.5182 262.198 81.7574 262.959 82.7649C263.742 83.7366 264.697 84.4075 265.824 84.7776C266.98 85.1407 268.207 85.1661 269.506 84.8538C270.805 84.5415 271.835 84.0037 272.598 83.2402C273.39 82.4698 273.934 81.5604 274.232 80.512L279.362 81.6595C279.17 82.8961 278.688 84.0652 277.915 85.1669C277.142 86.2687 276.137 87.2279 274.898 88.0447C273.689 88.8545 272.276 89.4538 270.66 89.8424Z" fill="white"/>
    <path d="M245.184 95.4194L240.739 76.9353L236.583 77.9346L235.365 72.8699L239.521 71.8705L239.333 71.0913C238.903 69.3021 238.9 67.7002 239.323 66.2858C239.768 64.8356 240.574 63.6189 241.742 62.6359C242.91 61.6529 244.403 60.9428 246.221 60.5056C246.567 60.4223 246.949 60.361 247.367 60.3215C247.807 60.2463 248.178 60.2028 248.481 60.1912L249.657 65.0828C249.355 65.0944 249.073 65.1315 248.814 65.194C248.576 65.2206 248.356 65.2582 248.154 65.3068C246.884 65.6122 245.972 66.1367 245.419 66.8805C244.858 67.5954 244.72 68.5444 245.004 69.7276L245.192 70.5068L250.43 69.2472L251.648 74.312L246.41 75.5716L250.855 94.0557L245.184 95.4194Z" fill="white"/>
    <path d="M216.797 102.246L211.134 78.697L216.458 77.4165L217.572 82.0484L216.942 81.33C217.15 79.7841 217.788 78.5011 218.855 77.4812C219.945 76.4256 221.326 75.6964 223 75.2939C224.731 74.8775 226.351 74.8849 227.859 75.316C229.396 75.7401 230.703 76.5402 231.779 77.7161C232.849 78.8632 233.595 80.3169 234.019 82.0773L237.662 97.2283L231.991 98.592L228.67 84.783C228.421 83.744 228.003 82.898 227.419 82.2448C226.835 81.5916 226.133 81.1498 225.314 80.9193C224.518 80.6529 223.643 80.6343 222.691 80.8633C221.767 81.0854 220.997 81.4996 220.379 82.106C219.755 82.6835 219.331 83.396 219.108 84.2435C218.884 85.091 218.897 86.0342 219.147 87.0732L222.468 100.882L216.797 102.246Z" fill="white"/>
    <path d="M200.197 106.787C197.889 107.342 195.654 107.315 193.492 106.705C191.359 106.089 189.508 104.992 187.939 103.416C186.398 101.833 185.343 99.8578 184.774 97.4914C184.205 95.1249 184.246 92.8864 184.899 90.7757C185.58 88.658 186.73 86.8398 188.35 85.3209C189.969 83.802 191.947 82.7615 194.284 82.1994C196.593 81.6442 198.814 81.6749 200.946 82.2916C203.079 82.9083 204.916 84.0082 206.457 85.5915C208.019 87.139 209.089 89.1103 209.665 91.5056C210.234 93.8721 210.178 96.1141 209.496 98.2317C208.815 100.349 207.665 102.168 206.046 103.687C204.427 105.205 202.477 106.239 200.197 106.787ZM198.948 101.593C200.218 101.287 201.256 100.717 202.063 99.882C202.898 99.04 203.462 98.0192 203.753 96.8195C204.067 95.5841 204.06 94.2882 203.734 92.9318C203.401 91.5466 202.821 90.4039 201.994 89.5038C201.189 88.5678 200.223 87.9148 199.096 87.5448C197.991 87.1389 196.803 87.0886 195.534 87.394C194.235 87.7063 193.171 88.2979 192.343 89.1687C191.507 90.0107 190.929 91.035 190.609 92.2416C190.311 93.4124 190.328 94.6904 190.661 96.0756C190.987 97.432 191.556 98.5926 192.368 99.5573C193.202 100.486 194.183 101.136 195.31 101.506C196.437 101.876 197.649 101.905 198.948 101.593Z" fill="white"/>
    <path d="M171.209 113.758C168.9 114.314 166.664 114.409 164.501 114.044C162.366 113.672 160.382 112.912 158.549 111.766C156.746 110.612 155.197 109.122 153.903 107.296C152.609 105.471 151.674 103.36 151.098 100.965C150.522 98.5695 150.381 96.2681 150.674 94.0605C150.989 91.8172 151.692 89.7862 152.781 87.9674C153.891 86.1128 155.331 84.5455 157.099 83.2655C158.86 81.9567 160.895 81.0247 163.204 80.4695C165.513 79.9143 167.67 79.8077 169.675 80.1496C171.71 80.4847 173.518 81.1488 175.1 82.1421C176.675 83.1066 177.921 84.2876 178.837 85.6853L174.149 89.4227C173.154 87.9524 171.811 86.8712 170.118 86.1793C168.418 85.4585 166.544 85.3445 164.495 85.8372C162.475 86.323 160.8 87.2295 159.47 88.5566C158.17 89.8768 157.288 91.4779 156.825 93.3599C156.39 95.235 156.444 97.298 156.985 99.549C157.527 101.8 158.42 103.676 159.667 105.178C160.935 106.643 162.448 107.668 164.207 108.253C165.994 108.83 167.898 108.876 169.918 108.391C171.967 107.898 173.588 106.958 174.781 105.573C175.968 104.158 176.669 102.569 176.887 100.808L182.761 102.005C182.581 103.666 182.012 105.299 181.054 106.903C180.09 108.478 178.778 109.878 177.118 111.101C175.488 112.317 173.518 113.203 171.209 113.758Z" fill="white"/>
    <path d="M122.103 125.018L114.223 92.2484L119.894 90.8846L123.225 104.737L122.248 104.102C122.456 102.556 123.094 101.273 124.162 100.253C125.251 99.1974 126.633 98.4683 128.306 98.0658C130.038 97.6494 131.658 97.6567 133.166 98.0878C134.702 98.512 136.009 99.312 137.086 100.488C138.155 101.635 138.902 103.089 139.325 104.849L142.968 120L137.298 121.364L133.977 107.555C133.727 106.516 133.31 105.67 132.725 105.017C132.141 104.363 131.439 103.922 130.621 103.691C129.824 103.425 128.949 103.406 127.997 103.635C127.074 103.857 126.303 104.271 125.686 104.878C125.062 105.455 124.638 106.168 124.414 107.015C124.19 107.863 124.204 108.806 124.453 109.845L127.774 123.654L122.103 125.018Z" fill="white"/>
    <path d="M107.233 129.143C104.895 129.705 102.66 129.678 100.528 129.061C98.417 128.409 96.6057 127.287 95.0938 125.697C93.5749 124.078 92.5344 122.1 91.9723 119.762C91.4101 117.425 91.4409 115.204 92.0645 113.1C92.6881 110.997 93.795 109.189 95.3852 107.677C97.0043 106.158 98.9826 105.117 101.32 104.555C102.994 104.153 104.625 104.081 106.214 104.34C107.796 104.57 109.231 105.08 110.52 105.869C111.83 106.622 112.887 107.65 113.688 108.953L109.231 112.315C108.513 111.236 107.548 110.461 106.336 109.989C105.152 109.51 103.897 109.431 102.569 109.75C101.328 110.048 100.29 110.619 99.4548 111.461C98.6482 112.296 98.0991 113.313 97.8075 114.513C97.516 115.712 97.5368 117.005 97.8699 118.39C98.203 119.775 98.7721 120.936 99.5772 121.872C100.382 122.808 101.334 123.464 102.432 123.841C103.559 124.211 104.743 124.247 105.984 123.949C107.34 123.622 108.437 122.977 109.273 122.013C110.11 121.048 110.599 119.908 110.74 118.592L116.26 119.646C116.117 121.084 115.655 122.462 114.873 123.78C114.084 125.069 113.04 126.19 111.743 127.143C110.439 128.067 108.936 128.734 107.233 129.143Z" fill="white"/>
    <path d="M80.5541 135.559C78.13 136.142 75.877 136.104 73.7952 135.444C71.7133 134.785 69.9418 133.639 68.4807 132.006C67.0195 130.373 66.0148 128.416 65.4665 126.136C64.8974 123.77 64.8993 121.556 65.4722 119.495C66.0669 117.398 67.1161 115.604 68.6198 114.113C70.1522 112.615 72.0151 111.603 74.2084 111.075C76.0554 110.631 77.7443 110.545 79.2753 110.818C80.8351 111.084 82.2341 111.633 83.472 112.465C84.71 113.297 85.7553 114.343 86.6079 115.603C87.4535 116.835 88.0672 118.244 88.4489 119.831C88.546 120.235 88.6178 120.661 88.6642 121.107C88.7394 121.547 88.7575 121.94 88.7184 122.285L70.5373 126.657L69.4963 122.328L84.4741 118.726L82.2795 121.406C82.22 120.016 81.8633 118.851 81.2094 117.909C80.5844 116.96 79.7517 116.29 78.7113 115.899C77.6998 115.502 76.5736 115.452 75.3327 115.75C74.1495 116.035 73.169 116.591 72.3912 117.419C71.6065 118.219 71.1077 119.254 70.8947 120.527C70.7036 121.763 70.8601 123.176 71.3642 124.764C71.5957 126.235 72.0921 127.474 72.8534 128.481C73.6366 129.453 74.5917 130.124 75.7186 130.494C76.8744 130.857 78.1016 130.883 79.4003 130.57C80.6989 130.258 81.7296 129.72 82.4924 128.957C83.284 128.186 83.8285 127.277 84.1259 126.228L89.2558 127.376C89.0647 128.613 88.5827 129.782 87.8097 130.883C87.0367 131.985 86.031 132.944 84.7926 133.761C83.5831 134.571 82.1702 135.17 80.5541 135.559Z" fill="white"/>
    <path d="M55.0327 141.147L48.5265 114.092L40.1718 116.101L38.9226 110.906L61.4326 105.493L62.6818 110.688L54.457 112.665L60.9632 139.721L55.0327 141.147Z" fill="white"/>
    <path d="M41.6012 143.781L19.7018 140.118L18.3693 134.577L36.1984 121.315L37.5933 127.115L23.9069 137.23L23.428 135.238L40.2166 138.024L41.6012 143.781Z" fill="white"/>
</svg>
