<svg width="245" height="105" viewBox="0 0 245 105" fill="none" xmlns="http://www.w3.org/2000/svg">
<mask id="path-1-outside-1_1350_680" maskUnits="userSpaceOnUse" x="0" y="0" width="245" height="105" fill="black">
<rect fill="white" width="245" height="105"/>
<path d="M18.14 86V76.73L36.32 57.74C39.92 53.96 42.68 50.96 44.6 48.74C46.58 46.46 47.96 44.51 48.74 42.89C49.52 41.27 49.91 39.62 49.91 37.94C49.91 35.12 49.01 32.9 47.21 31.28C45.47 29.66 43.22 28.85 40.46 28.85C37.58 28.85 35.09 29.69 32.99 31.37C30.89 32.99 29.36 35.39 28.4 38.57L17.69 35.24C18.41 31.7 19.88 28.64 22.1 26.06C24.32 23.42 27.02 21.41 30.2 20.03C33.44 18.59 36.86 17.87 40.46 17.87C44.78 17.87 48.56 18.65 51.8 20.21C55.1 21.77 57.65 23.96 59.45 26.78C61.31 29.6 62.24 32.9 62.24 36.68C62.24 39.08 61.79 41.45 60.89 43.79C59.99 46.13 58.64 48.53 56.84 50.99C55.04 53.39 52.7 56.09 49.82 59.09L34.07 75.65H63.14V86H18.14ZM96.8612 87.08C91.5212 87.08 86.8412 85.64 82.8212 82.76C78.8012 79.88 75.6512 75.83 73.3712 70.61C71.1512 65.39 70.0412 59.33 70.0412 52.43C70.0412 45.47 71.1512 39.41 73.3712 34.25C75.5912 29.09 78.7112 25.07 82.7312 22.19C86.7512 19.31 91.4312 17.87 96.7712 17.87C102.231 17.87 106.941 19.31 110.901 22.19C114.921 25.07 118.071 29.12 120.351 34.34C122.631 39.5 123.771 45.53 123.771 52.43C123.771 59.33 122.631 65.39 120.351 70.61C118.131 75.77 115.011 79.82 110.991 82.76C106.971 85.64 102.261 87.08 96.8612 87.08ZM96.9512 75.92C100.011 75.92 102.621 74.99 104.781 73.13C106.941 71.21 108.591 68.51 109.731 65.03C110.931 61.49 111.531 57.29 111.531 52.43C111.531 47.57 110.931 43.4 109.731 39.92C108.591 36.38 106.911 33.68 104.691 31.82C102.531 29.96 99.8912 29.03 96.7712 29.03C93.7712 29.03 91.1912 29.96 89.0312 31.82C86.8712 33.68 85.1912 36.38 83.9912 39.92C82.8512 43.4 82.2812 47.57 82.2812 52.43C82.2812 57.23 82.8512 61.4 83.9912 64.94C85.1912 68.42 86.8712 71.12 89.0312 73.04C91.2512 74.96 93.8912 75.92 96.9512 75.92ZM130.162 86V76.73L148.342 57.74C151.942 53.96 154.702 50.96 156.622 48.74C158.602 46.46 159.982 44.51 160.762 42.89C161.542 41.27 161.932 39.62 161.932 37.94C161.932 35.12 161.032 32.9 159.232 31.28C157.492 29.66 155.242 28.85 152.482 28.85C149.602 28.85 147.112 29.69 145.012 31.37C142.912 32.99 141.382 35.39 140.422 38.57L129.712 35.24C130.432 31.7 131.902 28.64 134.122 26.06C136.342 23.42 139.042 21.41 142.222 20.03C145.462 18.59 148.882 17.87 152.482 17.87C156.802 17.87 160.582 18.65 163.822 20.21C167.122 21.77 169.672 23.96 171.472 26.78C173.332 29.6 174.262 32.9 174.262 36.68C174.262 39.08 173.812 41.45 172.912 43.79C172.012 46.13 170.662 48.53 168.862 50.99C167.062 53.39 164.722 56.09 161.842 59.09L146.092 75.65H175.162V86H130.162ZM185.483 86L208.253 56.66L210.323 58.82C209.423 59.48 208.553 60.02 207.713 60.44C206.873 60.86 205.973 61.16 205.013 61.34C204.053 61.52 203.033 61.61 201.953 61.61C197.873 61.61 194.243 60.68 191.063 58.82C187.883 56.96 185.363 54.44 183.503 51.26C181.703 48.02 180.803 44.36 180.803 40.28C180.803 35.96 181.793 32.12 183.773 28.76C185.813 25.4 188.573 22.76 192.053 20.84C195.593 18.86 199.613 17.87 204.113 17.87C208.673 17.87 212.693 18.83 216.173 20.75C219.653 22.67 222.383 25.31 224.363 28.67C226.403 31.97 227.423 35.78 227.423 40.1C227.423 42.26 227.183 44.42 226.703 46.58C226.223 48.74 225.353 51.05 224.093 53.51C222.893 55.91 221.153 58.64 218.873 61.7L200.153 86H185.483ZM204.113 51.35C206.213 51.35 208.073 50.9 209.693 50C211.373 49.04 212.693 47.72 213.653 46.04C214.613 44.3 215.093 42.35 215.093 40.19C215.093 37.91 214.583 35.93 213.563 34.25C212.603 32.57 211.313 31.25 209.693 30.29C208.073 29.33 206.213 28.85 204.113 28.85C202.073 28.85 200.213 29.33 198.533 30.29C196.853 31.25 195.503 32.57 194.483 34.25C193.523 35.93 193.043 37.91 193.043 40.19C193.043 42.35 193.523 44.3 194.483 46.04C195.503 47.72 196.853 49.04 198.533 50C200.213 50.9 202.073 51.35 204.113 51.35Z"/>
</mask>
<path d="M18.14 86V76.73L36.32 57.74C39.92 53.96 42.68 50.96 44.6 48.74C46.58 46.46 47.96 44.51 48.74 42.89C49.52 41.27 49.91 39.62 49.91 37.94C49.91 35.12 49.01 32.9 47.21 31.28C45.47 29.66 43.22 28.85 40.46 28.85C37.58 28.85 35.09 29.69 32.99 31.37C30.89 32.99 29.36 35.39 28.4 38.57L17.69 35.24C18.41 31.7 19.88 28.64 22.1 26.06C24.32 23.42 27.02 21.41 30.2 20.03C33.44 18.59 36.86 17.87 40.46 17.87C44.78 17.87 48.56 18.65 51.8 20.21C55.1 21.77 57.65 23.96 59.45 26.78C61.31 29.6 62.24 32.9 62.24 36.68C62.24 39.08 61.79 41.45 60.89 43.79C59.99 46.13 58.64 48.53 56.84 50.99C55.04 53.39 52.7 56.09 49.82 59.09L34.07 75.65H63.14V86H18.14ZM96.8612 87.08C91.5212 87.08 86.8412 85.64 82.8212 82.76C78.8012 79.88 75.6512 75.83 73.3712 70.61C71.1512 65.39 70.0412 59.33 70.0412 52.43C70.0412 45.47 71.1512 39.41 73.3712 34.25C75.5912 29.09 78.7112 25.07 82.7312 22.19C86.7512 19.31 91.4312 17.87 96.7712 17.87C102.231 17.87 106.941 19.31 110.901 22.19C114.921 25.07 118.071 29.12 120.351 34.34C122.631 39.5 123.771 45.53 123.771 52.43C123.771 59.33 122.631 65.39 120.351 70.61C118.131 75.77 115.011 79.82 110.991 82.76C106.971 85.64 102.261 87.08 96.8612 87.08ZM96.9512 75.92C100.011 75.92 102.621 74.99 104.781 73.13C106.941 71.21 108.591 68.51 109.731 65.03C110.931 61.49 111.531 57.29 111.531 52.43C111.531 47.57 110.931 43.4 109.731 39.92C108.591 36.38 106.911 33.68 104.691 31.82C102.531 29.96 99.8912 29.03 96.7712 29.03C93.7712 29.03 91.1912 29.96 89.0312 31.82C86.8712 33.68 85.1912 36.38 83.9912 39.92C82.8512 43.4 82.2812 47.57 82.2812 52.43C82.2812 57.23 82.8512 61.4 83.9912 64.94C85.1912 68.42 86.8712 71.12 89.0312 73.04C91.2512 74.96 93.8912 75.92 96.9512 75.92ZM130.162 86V76.73L148.342 57.74C151.942 53.96 154.702 50.96 156.622 48.74C158.602 46.46 159.982 44.51 160.762 42.89C161.542 41.27 161.932 39.62 161.932 37.94C161.932 35.12 161.032 32.9 159.232 31.28C157.492 29.66 155.242 28.85 152.482 28.85C149.602 28.85 147.112 29.69 145.012 31.37C142.912 32.99 141.382 35.39 140.422 38.57L129.712 35.24C130.432 31.7 131.902 28.64 134.122 26.06C136.342 23.42 139.042 21.41 142.222 20.03C145.462 18.59 148.882 17.87 152.482 17.87C156.802 17.87 160.582 18.65 163.822 20.21C167.122 21.77 169.672 23.96 171.472 26.78C173.332 29.6 174.262 32.9 174.262 36.68C174.262 39.08 173.812 41.45 172.912 43.79C172.012 46.13 170.662 48.53 168.862 50.99C167.062 53.39 164.722 56.09 161.842 59.09L146.092 75.65H175.162V86H130.162ZM185.483 86L208.253 56.66L210.323 58.82C209.423 59.48 208.553 60.02 207.713 60.44C206.873 60.86 205.973 61.16 205.013 61.34C204.053 61.52 203.033 61.61 201.953 61.61C197.873 61.61 194.243 60.68 191.063 58.82C187.883 56.96 185.363 54.44 183.503 51.26C181.703 48.02 180.803 44.36 180.803 40.28C180.803 35.96 181.793 32.12 183.773 28.76C185.813 25.4 188.573 22.76 192.053 20.84C195.593 18.86 199.613 17.87 204.113 17.87C208.673 17.87 212.693 18.83 216.173 20.75C219.653 22.67 222.383 25.31 224.363 28.67C226.403 31.97 227.423 35.78 227.423 40.1C227.423 42.26 227.183 44.42 226.703 46.58C226.223 48.74 225.353 51.05 224.093 53.51C222.893 55.91 221.153 58.64 218.873 61.7L200.153 86H185.483ZM204.113 51.35C206.213 51.35 208.073 50.9 209.693 50C211.373 49.04 212.693 47.72 213.653 46.04C214.613 44.3 215.093 42.35 215.093 40.19C215.093 37.91 214.583 35.93 213.563 34.25C212.603 32.57 211.313 31.25 209.693 30.29C208.073 29.33 206.213 28.85 204.113 28.85C202.073 28.85 200.213 29.33 198.533 30.29C196.853 31.25 195.503 32.57 194.483 34.25C193.523 35.93 193.043 37.91 193.043 40.19C193.043 42.35 193.523 44.3 194.483 46.04C195.503 47.72 196.853 49.04 198.533 50C200.213 50.9 202.073 51.35 204.113 51.35Z" fill="white"/>
<path d="M18.14 86H1.14C1.14 95.3888 8.75116 103 18.14 103L18.14 86ZM18.14 76.73L5.86015 64.9739C2.83091 68.1381 1.14 72.3495 1.14 76.73H18.14ZM36.32 57.74L48.5999 69.4961C48.61 69.4854 48.6202 69.4748 48.6303 69.4641L36.32 57.74ZM44.6 48.74L31.7644 37.5933C31.7569 37.602 31.7494 37.6107 31.7418 37.6194L44.6 48.74ZM48.74 42.89L33.423 35.5151L33.423 35.5151L48.74 42.89ZM47.21 31.28L35.6259 43.7222C35.6959 43.7874 35.7665 43.852 35.8376 43.916L47.21 31.28ZM32.99 31.37L43.3737 44.8303C43.4529 44.7691 43.5316 44.7073 43.6098 44.6448L32.99 31.37ZM28.4 38.57L23.3526 54.8034C27.6812 56.1493 32.3681 55.7107 36.3718 53.585C40.3756 51.4593 43.3645 47.8227 44.6746 43.4831L28.4 38.57ZM17.69 35.24L1.03108 31.8517C-0.708182 40.4031 4.30969 48.8825 12.6426 51.4734L17.69 35.24ZM22.1 26.06L34.9862 37.1481C35.0281 37.0994 35.0698 37.0504 35.1112 37.0012L22.1 26.06ZM30.2 20.03L36.9676 35.6249C37.0133 35.605 37.0589 35.585 37.1044 35.5648L30.2 20.03ZM51.8 20.21L44.4251 35.527C44.4615 35.5446 44.498 35.562 44.5346 35.5792L51.8 20.21ZM59.45 26.78L45.1203 35.9266C45.166 35.9981 45.2121 36.0693 45.2589 36.1401L59.45 26.78ZM56.84 50.99L70.44 61.19C70.4802 61.1365 70.52 61.0827 70.5595 61.0287L56.84 50.99ZM49.82 59.09L37.5564 47.317C37.5381 47.336 37.5199 47.3551 37.5017 47.3742L49.82 59.09ZM34.07 75.65L21.7517 63.9342C17.0665 68.8604 15.7667 76.1041 18.4468 82.3519C21.1269 88.5997 27.2716 92.65 34.07 92.65V75.65ZM63.14 75.65H80.14C80.14 66.2612 72.5288 58.65 63.14 58.65L63.14 75.65ZM63.14 86V103C72.5288 103 80.14 95.3888 80.14 86H63.14ZM18.14 86H35.14V76.73H18.14H1.14V86H18.14ZM18.14 76.73L30.4199 88.4861L48.5999 69.4961L36.32 57.74L24.0401 45.9839L5.86015 64.9739L18.14 76.73ZM36.32 57.74L48.6303 69.4641C52.298 65.6131 55.2747 62.3852 57.4582 59.8606L44.6 48.74L31.7418 37.6194C30.0853 39.5348 27.542 42.3069 24.0097 46.0159L36.32 57.74ZM44.6 48.74L57.4356 59.8867C59.833 57.126 62.3271 53.8578 64.057 50.2649L48.74 42.89L33.423 35.5151C33.5525 35.2461 33.5522 35.3107 33.2434 35.7471C32.9497 36.1621 32.4769 36.7729 31.7644 37.5933L44.6 48.74ZM48.74 42.89L64.057 50.2649C65.8654 46.5091 66.91 42.3504 66.91 37.94H49.91H32.91C32.91 36.8896 33.1746 36.0309 33.423 35.5151L48.74 42.89ZM49.91 37.94H66.91C66.91 31.1719 64.5647 24.0281 58.5824 18.644L47.21 31.28L35.8376 43.916C34.8438 43.0216 34.0095 41.8521 33.4804 40.547C32.9758 39.3022 32.91 38.3379 32.91 37.94H49.91ZM47.21 31.28L58.7941 18.8378C53.4052 13.8205 46.7787 11.85 40.46 11.85V28.85V45.85C40.1746 45.85 39.4419 45.8063 38.4593 45.4526C37.4352 45.0839 36.4479 44.4875 35.6259 43.7222L47.21 31.28ZM40.46 28.85V11.85C34.0132 11.85 27.7059 13.8266 22.3702 18.0952L32.99 31.37L43.6098 44.6448C43.1468 45.0152 42.5465 45.3587 41.8666 45.5881C41.2009 45.8126 40.6913 45.85 40.46 45.85V28.85ZM32.99 31.37L22.6063 17.9097C17.0607 22.1877 13.849 27.9475 12.1254 33.6569L28.4 38.57L44.6746 43.4831C44.7777 43.1416 44.8002 43.2131 44.6024 43.5235C44.3878 43.86 43.9912 44.3539 43.3737 44.8303L32.99 31.37ZM28.4 38.57L33.4474 22.3366L22.7374 19.0066L17.69 35.24L12.6426 51.4734L23.3526 54.8034L28.4 38.57ZM17.69 35.24L34.3489 38.6283C34.5267 37.7544 34.7778 37.3903 34.9862 37.1481L22.1 26.06L9.21382 14.9719C4.98224 19.8897 2.29334 25.6456 1.03108 31.8517L17.69 35.24ZM22.1 26.06L35.1112 37.0012C35.6293 36.385 36.1883 35.963 36.9676 35.6249L30.2 20.03L23.4324 4.43513C17.8517 6.85696 13.0107 10.455 9.08884 15.1188L22.1 26.06ZM30.2 20.03L37.1044 35.5648C38.1367 35.106 39.201 34.87 40.46 34.87V17.87V0.869997C34.519 0.869997 28.7433 2.07401 23.2956 4.4952L30.2 20.03ZM40.46 17.87V34.87C42.7338 34.87 43.903 35.2756 44.4251 35.527L51.8 20.21L59.1749 4.89297C53.217 2.02439 46.8262 0.869997 40.46 0.869997V17.87ZM51.8 20.21L44.5346 35.5792C44.9267 35.7646 45.0848 35.8961 45.1116 35.9191C45.1286 35.9338 45.1296 35.9365 45.1228 35.9286C45.116 35.9208 45.1146 35.9176 45.1203 35.9266L59.45 26.78L73.7797 17.6334C70.1019 11.8715 64.9856 7.63938 59.0654 4.84077L51.8 20.21ZM59.45 26.78L45.2589 36.1401C45.2411 36.1132 45.2204 36.0768 45.2022 36.0368C45.1841 35.9971 45.1781 35.9751 45.1799 35.9813C45.1812 35.9859 45.24 36.1911 45.24 36.68H62.24H79.24C79.24 29.9821 77.5467 23.3412 73.6411 17.4199L59.45 26.78ZM62.24 36.68H45.24C45.24 36.9011 45.208 37.2066 45.0231 37.6874L60.89 43.79L76.7569 49.8926C78.372 45.6934 79.24 41.2589 79.24 36.68H62.24ZM60.89 43.79L45.0231 37.6874C44.7632 38.3632 44.2175 39.452 43.1205 40.9513L56.84 50.99L70.5595 61.0287C73.0625 57.608 75.2168 53.8968 76.7569 49.8926L60.89 43.79ZM56.84 50.99L43.24 40.79C41.9765 42.4747 40.1268 44.6394 37.5564 47.317L49.82 59.09L62.0836 70.863C65.2732 67.5405 68.1035 64.3053 70.44 61.19L56.84 50.99ZM49.82 59.09L37.5017 47.3742L21.7517 63.9342L34.07 75.65L46.3883 87.3658L62.1383 70.8058L49.82 59.09ZM34.07 75.65V92.65H63.14V75.65V58.65H34.07V75.65ZM63.14 75.65H46.14V86H63.14H80.14V75.65H63.14ZM63.14 86V69H18.14L18.14 86V103H63.14V86ZM82.8212 82.76L72.9206 96.5795L82.8212 82.76ZM73.3712 70.61L57.7272 77.2632C57.7487 77.3137 57.7704 77.3642 57.7924 77.4145L73.3712 70.61ZM73.3712 34.25L57.7551 27.5315L57.7551 27.5315L73.3712 34.25ZM82.7312 22.19L72.8306 8.37048L72.8306 8.37048L82.7312 22.19ZM110.901 22.19L100.902 35.9385C100.935 35.9623 100.968 35.986 101.001 36.0095L110.901 22.19ZM120.351 34.34L104.772 41.1445C104.782 41.1666 104.792 41.1887 104.802 41.2108L120.351 34.34ZM120.351 70.61L104.772 63.8055C104.76 63.8341 104.747 63.8628 104.735 63.8915L120.351 70.61ZM110.991 82.76L120.892 96.5795C120.937 96.5472 120.982 96.5147 121.027 96.4819L110.991 82.76ZM104.781 73.13L115.874 86.0121C115.942 85.9539 116.009 85.8952 116.075 85.836L104.781 73.13ZM109.731 65.03L93.6311 59.5723C93.6124 59.6274 93.594 59.6825 93.5759 59.7378L109.731 65.03ZM109.731 39.92L93.5495 45.131C93.5852 45.2417 93.6219 45.352 93.6598 45.4618L109.731 39.92ZM104.691 31.82L93.5983 44.7021C93.6563 44.7521 93.7147 44.8016 93.7734 44.8508L104.691 31.82ZM89.0312 31.82L77.9383 18.9379L77.9383 18.9379L89.0312 31.82ZM83.9912 39.92L67.8911 34.4623C67.8724 34.5174 67.854 34.5725 67.8359 34.6278L83.9912 39.92ZM83.9912 64.94L67.8095 70.151C67.8452 70.2617 67.8819 70.372 67.9198 70.4818L83.9912 64.94ZM89.0312 73.04L77.737 85.746C77.7945 85.7971 77.8524 85.8478 77.9106 85.8982L89.0312 73.04ZM96.8612 87.08V70.08C94.7734 70.08 93.6207 69.5845 92.7217 68.9405L82.8212 82.76L72.9206 96.5795C80.0616 101.695 88.269 104.08 96.8612 104.08V87.08ZM82.8212 82.76L92.7217 68.9405C91.5501 68.1011 90.1931 66.6516 88.95 63.8055L73.3712 70.61L57.7924 77.4145C61.1093 85.0084 66.0522 91.6589 72.9206 96.5795L82.8212 82.76ZM73.3712 70.61L89.0152 63.9568C87.8613 61.2436 87.0412 57.5263 87.0412 52.43H70.0412H53.0412C53.0412 61.1336 54.441 69.5364 57.7272 77.2632L73.3712 70.61ZM70.0412 52.43H87.0412C87.0412 47.2443 87.8706 43.5639 88.9872 40.9685L73.3712 34.25L57.7551 27.5315C54.4317 35.2561 53.0412 43.6957 53.0412 52.43H70.0412ZM73.3712 34.25L88.9872 40.9685C90.1539 38.2569 91.4557 36.8521 92.6317 36.0095L82.7312 22.19L72.8306 8.37048C65.9667 13.2879 61.0285 19.9231 57.7551 27.5315L73.3712 34.25ZM82.7312 22.19L92.6317 36.0095C93.5307 35.3655 94.6833 34.87 96.7712 34.87V17.87V0.869997C88.179 0.869997 79.9716 3.25452 72.8306 8.37048L82.7312 22.19ZM96.7712 17.87V34.87C99.0715 34.87 100.18 35.413 100.902 35.9385L110.901 22.19L120.9 8.44148C113.703 3.20704 105.391 0.869997 96.7712 0.869997V17.87ZM110.901 22.19L101.001 36.0095C102.172 36.8489 103.529 38.2984 104.772 41.1445L120.351 34.34L135.93 27.5355C132.613 19.9416 127.67 13.2911 120.802 8.37048L110.901 22.19ZM120.351 34.34L104.802 41.2108C105.937 43.7801 106.771 47.3809 106.771 52.43H123.771H140.771C140.771 43.6791 139.326 35.2199 135.901 27.4692L120.351 34.34ZM123.771 52.43H106.771C106.771 57.4723 105.939 61.1348 104.772 63.8055L120.351 70.61L135.93 77.4145C139.323 69.6452 140.771 61.1877 140.771 52.43H123.771ZM120.351 70.61L104.735 63.8915C103.559 66.625 102.221 68.1126 100.956 69.0381L110.991 82.76L121.027 96.4819C127.801 91.5274 132.703 84.915 135.967 77.3285L120.351 70.61ZM110.991 82.76L101.091 68.9405C100.225 69.5607 99.0534 70.08 96.8612 70.08V87.08V104.08C105.469 104.08 113.717 101.719 120.892 96.5795L110.991 82.76ZM96.9512 75.92V92.92C103.759 92.92 110.392 90.7327 115.874 86.0121L104.781 73.13L93.6883 60.2479C94.1491 59.8511 94.7724 59.4671 95.4976 59.2087C96.2054 58.9565 96.7389 58.92 96.9512 58.92V75.92ZM104.781 73.13L116.075 85.836C121.008 81.4512 124.056 75.9084 125.886 70.3222L109.731 65.03L93.5759 59.7378C93.3531 60.4181 93.1742 60.7327 93.1329 60.8004C93.1005 60.8533 93.1998 60.6793 93.487 60.424L104.781 73.13ZM109.731 65.03L125.831 70.4877C127.776 64.7522 128.531 58.6197 128.531 52.43H111.531H94.5312C94.5312 55.9603 94.0868 58.2278 93.6311 59.5723L109.731 65.03ZM111.531 52.43H128.531C128.531 46.2521 127.779 40.1089 125.803 34.3782L109.731 39.92L93.6598 45.4618C94.0837 46.6911 94.5312 48.8879 94.5312 52.43H111.531ZM109.731 39.92L125.913 34.709C124.066 28.9738 120.894 23.2171 115.609 18.7891L104.691 31.82L93.7734 44.8508C93.5822 44.6907 93.4375 44.5411 93.3356 44.4219C93.2348 44.3041 93.1875 44.2296 93.1822 44.2211C93.1761 44.2114 93.3358 44.4672 93.5495 45.131L109.731 39.92ZM104.691 31.82L115.784 18.9379C110.239 14.1628 103.548 12.03 96.7712 12.03V29.03V46.03C96.6263 46.03 96.133 46.0048 95.4428 45.7617C94.7305 45.5108 94.0911 45.1264 93.5983 44.7021L104.691 31.82ZM96.7712 29.03V12.03C89.932 12.03 83.3551 14.2734 77.9383 18.9379L89.0312 31.82L100.124 44.7021C99.6954 45.0712 99.0884 45.4544 98.351 45.7202C97.6263 45.9815 97.0522 46.03 96.7712 46.03V29.03ZM89.0312 31.82L77.9383 18.9379C72.8654 23.3062 69.7707 28.9173 67.8911 34.4623L83.9912 39.92L100.091 45.3777C100.344 44.633 100.541 44.2914 100.585 44.2211C100.619 44.1661 100.49 44.3869 100.124 44.7021L89.0312 31.82ZM83.9912 39.92L67.8359 34.6278C65.9873 40.271 65.2812 46.3235 65.2812 52.43H82.2812H99.2812C99.2812 48.8165 99.7151 46.529 100.146 45.2122L83.9912 39.92ZM82.2812 52.43H65.2812C65.2812 58.5129 65.996 64.5197 67.8095 70.151L83.9912 64.94L100.173 59.729C99.7063 58.2803 99.2812 55.9471 99.2812 52.43H82.2812ZM83.9912 64.94L67.9198 70.4818C69.8159 75.9805 72.8777 81.4266 77.737 85.746L89.0312 73.04L100.325 60.334C100.865 60.8134 100.566 60.8595 100.063 59.3982L83.9912 64.94ZM89.0312 73.04L77.9106 85.8982C83.3601 90.6112 89.9968 92.92 96.9512 92.92V75.92V58.92C97.2255 58.92 97.7843 58.9684 98.4858 59.2235C99.1977 59.4824 99.7672 59.8493 100.152 60.1818L89.0312 73.04ZM130.162 86H113.162C113.162 95.3888 120.773 103 130.162 103V86ZM130.162 76.73L117.882 64.9739C114.853 68.1381 113.162 72.3495 113.162 76.73H130.162ZM148.342 57.74L160.622 69.4961C160.632 69.4854 160.642 69.4748 160.652 69.4641L148.342 57.74ZM156.622 48.74L143.786 37.5933C143.779 37.602 143.771 37.6107 143.764 37.6194L156.622 48.74ZM160.762 42.89L145.445 35.5151L145.445 35.5151L160.762 42.89ZM159.232 31.28L147.648 43.7222C147.718 43.7874 147.788 43.852 147.859 43.916L159.232 31.28ZM145.012 31.37L155.396 44.8303C155.475 44.7691 155.554 44.7073 155.632 44.6448L145.012 31.37ZM140.422 38.57L135.375 54.8034C139.703 56.1493 144.39 55.7107 148.394 53.585C152.397 51.4593 155.386 47.8227 156.696 43.4831L140.422 38.57ZM129.712 35.24L113.053 31.8517C111.314 40.4031 116.332 48.8825 124.665 51.4734L129.712 35.24ZM134.122 26.06L147.008 37.1481C147.05 37.0994 147.092 37.0504 147.133 37.0012L134.122 26.06ZM142.222 20.03L148.989 35.6249C149.035 35.605 149.081 35.585 149.126 35.5648L142.222 20.03ZM163.822 20.21L156.447 35.527C156.483 35.5446 156.52 35.562 156.556 35.5792L163.822 20.21ZM171.472 26.78L157.142 35.9266C157.188 35.9981 157.234 36.0693 157.281 36.1401L171.472 26.78ZM168.862 50.99L182.462 61.19C182.502 61.1365 182.542 61.0827 182.581 61.0287L168.862 50.99ZM161.842 59.09L149.578 47.317C149.56 47.336 149.542 47.3551 149.524 47.3742L161.842 59.09ZM146.092 75.65L133.774 63.9342C129.088 68.8604 127.789 76.1041 130.469 82.3519C133.149 88.5997 139.293 92.65 146.092 92.65V75.65ZM175.162 75.65H192.162C192.162 66.2612 184.551 58.65 175.162 58.65V75.65ZM175.162 86V103C184.551 103 192.162 95.3888 192.162 86H175.162ZM130.162 86H147.162V76.73H130.162H113.162V86H130.162ZM130.162 76.73L142.442 88.4861L160.622 69.4961L148.342 57.74L136.062 45.9839L117.882 64.9739L130.162 76.73ZM148.342 57.74L160.652 69.4641C164.32 65.6131 167.297 62.3852 169.48 59.8606L156.622 48.74L143.764 37.6194C142.107 39.5348 139.564 42.3069 136.032 46.0159L148.342 57.74ZM156.622 48.74L169.457 59.8867C171.855 57.126 174.349 53.8578 176.079 50.2649L160.762 42.89L145.445 35.5151C145.574 35.2461 145.574 35.3107 145.265 35.7471C144.972 36.1621 144.499 36.7729 143.786 37.5933L156.622 48.74ZM160.762 42.89L176.079 50.2649C177.887 46.5091 178.932 42.3504 178.932 37.94H161.932H144.932C144.932 36.8896 145.197 36.0309 145.445 35.5151L160.762 42.89ZM161.932 37.94H178.932C178.932 31.1719 176.587 24.0281 170.604 18.644L159.232 31.28L147.859 43.916C146.866 43.0216 146.031 41.8521 145.502 40.547C144.998 39.3022 144.932 38.3379 144.932 37.94H161.932ZM159.232 31.28L170.816 18.8378C165.427 13.8205 158.801 11.85 152.482 11.85V28.85V45.85C152.196 45.85 151.464 45.8063 150.481 45.4526C149.457 45.0839 148.47 44.4875 147.648 43.7222L159.232 31.28ZM152.482 28.85V11.85C146.035 11.85 139.728 13.8266 134.392 18.0952L145.012 31.37L155.632 44.6448C155.169 45.0152 154.568 45.3587 153.888 45.5881C153.223 45.8126 152.713 45.85 152.482 45.85V28.85ZM145.012 31.37L134.628 17.9097C129.083 22.1877 125.871 27.9475 124.147 33.6569L140.422 38.57L156.696 43.4831C156.8 43.1416 156.822 43.2131 156.624 43.5235C156.41 43.86 156.013 44.3539 155.396 44.8303L145.012 31.37ZM140.422 38.57L145.469 22.3366L134.759 19.0066L129.712 35.24L124.665 51.4734L135.375 54.8034L140.422 38.57ZM129.712 35.24L146.371 38.6283C146.549 37.7544 146.8 37.3903 147.008 37.1481L134.122 26.06L121.236 14.9719C117.004 19.8897 114.315 25.6456 113.053 31.8517L129.712 35.24ZM134.122 26.06L147.133 37.0012C147.651 36.385 148.21 35.963 148.989 35.6249L142.222 20.03L135.454 4.43513C129.874 6.85696 125.033 10.455 121.111 15.1188L134.122 26.06ZM142.222 20.03L149.126 35.5648C150.159 35.106 151.223 34.87 152.482 34.87V17.87V0.869997C146.541 0.869997 140.765 2.07401 135.318 4.4952L142.222 20.03ZM152.482 17.87V34.87C154.756 34.87 155.925 35.2756 156.447 35.527L163.822 20.21L171.197 4.89297C165.239 2.02439 158.848 0.869997 152.482 0.869997V17.87ZM163.822 20.21L156.556 35.5792C156.949 35.7646 157.107 35.8961 157.133 35.9191C157.15 35.9338 157.151 35.9365 157.145 35.9286C157.138 35.9208 157.136 35.9176 157.142 35.9266L171.472 26.78L185.802 17.6334C182.124 11.8715 177.007 7.63938 171.087 4.84077L163.822 20.21ZM171.472 26.78L157.281 36.1401C157.263 36.1132 157.242 36.0768 157.224 36.0368C157.206 35.9971 157.2 35.9751 157.202 35.9813C157.203 35.9859 157.262 36.1911 157.262 36.68H174.262H191.262C191.262 29.9821 189.569 23.3412 185.663 17.4199L171.472 26.78ZM174.262 36.68H157.262C157.262 36.9011 157.23 37.2066 157.045 37.6874L172.912 43.79L188.779 49.8926C190.394 45.6934 191.262 41.2589 191.262 36.68H174.262ZM172.912 43.79L157.045 37.6874C156.785 38.3632 156.239 39.452 155.142 40.9513L168.862 50.99L182.581 61.0287C185.084 57.608 187.239 53.8968 188.779 49.8926L172.912 43.79ZM168.862 50.99L155.262 40.79C153.998 42.4747 152.149 44.6394 149.578 47.317L161.842 59.09L174.105 70.863C177.295 67.5405 180.125 64.3053 182.462 61.19L168.862 50.99ZM161.842 59.09L149.524 47.3742L133.774 63.9342L146.092 75.65L158.41 87.3658L174.16 70.8058L161.842 59.09ZM146.092 75.65V92.65H175.162V75.65V58.65H146.092V75.65ZM175.162 75.65H158.162V86H175.162H192.162V75.65H175.162ZM175.162 86V69H130.162V86V103H175.162V86ZM185.483 86L172.053 75.5773C168.074 80.7041 167.361 87.6489 170.216 93.4771C173.07 99.3053 178.993 103 185.483 103V86ZM208.253 56.66L220.527 44.8976C217.107 41.3293 212.304 39.4258 207.368 39.683C202.433 39.9403 197.853 42.3328 194.823 46.2373L208.253 56.66ZM210.323 58.82L220.376 72.5289C224.325 69.633 226.833 65.1749 227.259 60.2965C227.684 55.418 225.985 50.5931 222.597 47.0576L210.323 58.82ZM191.063 58.82L182.48 73.4942L182.48 73.4942L191.063 58.82ZM183.503 51.26L168.642 59.5159C168.703 59.6256 168.765 59.7347 168.829 59.843L183.503 51.26ZM183.773 28.76L169.242 19.9374C169.203 20.0011 169.165 20.065 169.127 20.1292L183.773 28.76ZM192.053 20.84L200.265 35.7248C200.294 35.7089 200.323 35.6929 200.352 35.6769L192.053 20.84ZM216.173 20.75L224.385 5.86518L224.385 5.86518L216.173 20.75ZM224.363 28.67L209.717 37.3008C209.778 37.4042 209.84 37.5069 209.903 37.609L224.363 28.67ZM226.703 46.58L243.298 50.2678L243.298 50.2678L226.703 46.58ZM224.093 53.51L208.962 45.7601C208.937 45.8091 208.912 45.8582 208.888 45.9074L224.093 53.51ZM218.873 61.7L232.34 72.0747C232.396 72.0027 232.451 71.9301 232.505 71.8572L218.873 61.7ZM200.153 86V103C205.427 103 210.402 100.552 213.62 96.3747L200.153 86ZM209.693 50L217.949 64.8607C218.009 64.8275 218.068 64.794 218.127 64.7601L209.693 50ZM213.653 46.04L228.413 54.4743C228.455 54.4006 228.497 54.3266 228.538 54.2523L213.653 46.04ZM213.563 34.25L198.803 42.6844C198.877 42.8148 198.954 42.9442 199.032 43.0726L213.563 34.25ZM209.693 30.29L201.026 44.9149L201.026 44.915L209.693 30.29ZM198.533 30.29L206.967 45.0501L206.967 45.0501L198.533 30.29ZM194.483 34.25L179.952 25.4274C179.874 25.5558 179.797 25.6852 179.723 25.8156L194.483 34.25ZM194.483 46.04L179.598 54.2523C179.712 54.4582 179.83 54.6617 179.952 54.8626L194.483 46.04ZM198.533 50L190.099 64.7601C190.233 64.837 190.369 64.912 190.505 64.9852L198.533 50ZM185.483 86L198.913 96.4227L221.683 67.0827L208.253 56.66L194.823 46.2373L172.053 75.5773L185.483 86ZM208.253 56.66L195.979 68.4224L198.049 70.5824L210.323 58.82L222.597 47.0576L220.527 44.8976L208.253 56.66ZM210.323 58.82L200.27 45.1111C200.142 45.205 200.062 45.2565 200.03 45.2761C199.999 45.2959 200.025 45.2772 200.11 45.2347L207.713 60.44L215.316 75.6453C217.155 74.7254 218.843 73.6535 220.376 72.5289L210.323 58.82ZM207.713 60.44L200.11 45.2347C200.739 44.9205 201.35 44.7306 201.88 44.6312L205.013 61.34L208.146 78.0488C210.596 77.5894 213.007 76.7995 215.316 75.6453L207.713 60.44ZM205.013 61.34L201.88 44.6312C202.055 44.5984 202.091 44.61 201.953 44.61V61.61V78.61C203.975 78.61 206.051 78.4416 208.146 78.0488L205.013 61.34ZM201.953 61.61V44.61C200.557 44.61 199.949 44.3231 199.646 44.1458L191.063 58.82L182.48 73.4942C188.537 77.0369 195.189 78.61 201.953 78.61V61.61ZM191.063 58.82L199.646 44.1458C198.986 43.7596 198.563 43.3373 198.177 42.677L183.503 51.26L168.829 59.843C172.163 65.5427 176.78 70.1604 182.48 73.4942L191.063 58.82ZM183.503 51.26L198.364 43.0041C198.105 42.5379 197.803 41.769 197.803 40.28H180.803H163.803C163.803 46.951 165.301 53.5021 168.642 59.5159L183.503 51.26ZM180.803 40.28H197.803C197.803 38.6597 198.142 37.8608 198.419 37.3908L183.773 28.76L169.127 20.1292C165.444 26.3792 163.803 33.2602 163.803 40.28H180.803ZM183.773 28.76L198.304 37.5826C198.786 36.79 199.355 36.2273 200.265 35.7248L192.053 20.84L183.841 5.95518C177.791 9.29268 172.84 14.01 169.242 19.9374L183.773 28.76ZM192.053 20.84L200.352 35.6769C201.086 35.2659 202.194 34.87 204.113 34.87V17.87V0.869997C197.032 0.869997 190.1 2.45412 183.754 6.00311L192.053 20.84ZM204.113 17.87V34.87C206.229 34.87 207.345 35.2952 207.961 35.6348L216.173 20.75L224.385 5.86518C218.041 2.36479 211.118 0.869997 204.113 0.869997V17.87ZM216.173 20.75L207.961 35.6348C208.828 36.1135 209.313 36.6162 209.717 37.3008L224.363 28.67L239.009 20.0392C235.453 14.0038 230.478 9.22654 224.385 5.86518L216.173 20.75ZM224.363 28.67L209.903 37.609C210.099 37.9254 210.423 38.5685 210.423 40.1H227.423H244.423C244.423 32.9915 242.708 26.0146 238.823 19.731L224.363 28.67ZM227.423 40.1H210.423C210.423 40.9897 210.325 41.9134 210.108 42.8922L226.703 46.58L243.298 50.2678C244.041 46.9266 244.423 43.5303 244.423 40.1H227.423ZM226.703 46.58L210.108 42.8922C210.008 43.3426 209.719 44.282 208.962 45.7601L224.093 53.51L239.224 61.2599C240.987 57.818 242.438 54.1374 243.298 50.2678L226.703 46.58ZM224.093 53.51L208.888 45.9074C208.279 47.1243 207.151 48.9801 205.241 51.5428L218.873 61.7L232.505 71.8572C235.156 68.2999 237.507 64.6957 239.298 61.1126L224.093 53.51ZM218.873 61.7L205.406 51.3253L186.686 75.6253L200.153 86L213.62 96.3747L232.34 72.0747L218.873 61.7ZM200.153 86V69H185.483V86V103H200.153V86ZM204.113 51.35V68.35C208.712 68.35 213.483 67.3419 217.949 64.8607L209.693 50L201.437 35.1393C202.663 34.4581 203.715 34.35 204.113 34.35V51.35ZM209.693 50L218.127 64.7601C222.443 62.2941 225.947 58.7899 228.413 54.4743L213.653 46.04L198.893 37.6057C199.135 37.1819 199.475 36.7161 199.922 36.2692C200.369 35.8223 200.835 35.482 201.259 35.2399L209.693 50ZM213.653 46.04L228.538 54.2523C231.004 49.7822 232.093 44.9659 232.093 40.19H215.093H198.093C198.093 40.0033 198.115 39.66 198.226 39.2092C198.338 38.7514 198.52 38.2774 198.768 37.8277L213.653 46.04ZM215.093 40.19H232.093C232.093 35.3046 230.973 30.1686 228.094 25.4274L213.563 34.25L199.032 43.0726C198.642 42.4315 198.392 41.7937 198.248 41.2354C198.108 40.6917 198.093 40.3186 198.093 40.19H215.093ZM213.563 34.25L228.323 25.8156C225.944 21.6528 222.585 18.1687 218.36 15.665L209.693 30.29L201.026 44.915C200.584 44.6527 200.132 44.3064 199.717 43.8819C199.304 43.4592 199.005 43.0388 198.803 42.6844L213.563 34.25ZM209.693 30.29L218.36 15.6651C213.823 12.9764 208.902 11.85 204.113 11.85V28.85V45.85C203.862 45.85 203.415 45.8204 202.835 45.6707C202.245 45.5183 201.623 45.2686 201.026 44.9149L209.693 30.29ZM204.113 28.85V11.85C199.281 11.85 194.488 13.0215 190.099 15.5299L198.533 30.29L206.967 45.0501C206.504 45.3152 205.982 45.5299 205.436 45.6707C204.895 45.8103 204.438 45.85 204.113 45.85V28.85ZM198.533 30.29L190.099 15.5299C185.875 17.9434 182.443 21.3238 179.952 25.4274L194.483 34.25L209.014 43.0726C208.816 43.4 208.53 43.7795 208.146 44.1551C207.76 44.5317 207.352 44.8301 206.967 45.0501L198.533 30.29ZM194.483 34.25L179.723 25.8156C177.053 30.4888 176.043 35.4822 176.043 40.19H193.043H210.043C210.043 40.3378 209.994 41.3712 209.243 42.6844L194.483 34.25ZM193.043 40.19H176.043C176.043 44.9659 177.132 49.7822 179.598 54.2523L194.483 46.04L209.368 37.8277C209.616 38.2774 209.798 38.7514 209.91 39.2092C210.021 39.66 210.043 40.0033 210.043 40.19H193.043ZM194.483 46.04L179.952 54.8626C182.443 58.9662 185.875 62.3466 190.099 64.7601L198.533 50L206.967 35.2399C207.352 35.4599 207.76 35.7583 208.146 36.1349C208.53 36.5105 208.816 36.89 209.014 37.2174L194.483 46.04ZM198.533 50L190.505 64.9852C194.827 67.3004 199.475 68.35 204.113 68.35V51.35V34.35C204.351 34.35 204.723 34.3774 205.186 34.4892C205.653 34.6023 206.123 34.7803 206.561 35.0148L198.533 50Z" fill="#08262E" mask="url(#path-1-outside-1_1350_680)"/>
</svg>
