<svg width="228" height="105" viewBox="0 0 228 105" fill="none" xmlns="http://www.w3.org/2000/svg">
<mask id="path-1-outside-1_1350_680" maskUnits="userSpaceOnUse" x="0" y="0" width="228" height="105" fill="black">
<rect fill="white" width="228" height="105"/>
<path d="M18.14 86V76.73L36.32 57.74C39.92 53.96 42.68 50.96 44.6 48.74C46.58 46.46 47.96 44.51 48.74 42.89C49.52 41.27 49.91 39.62 49.91 37.94C49.91 35.12 49.01 32.9 47.21 31.28C45.47 29.66 43.22 28.85 40.46 28.85C37.58 28.85 35.09 29.69 32.99 31.37C30.89 32.99 29.36 35.39 28.4 38.57L17.69 35.24C18.41 31.7 19.88 28.64 22.1 26.06C24.32 23.42 27.02 21.41 30.2 20.03C33.44 18.59 36.86 17.87 40.46 17.87C44.78 17.87 48.56 18.65 51.8 20.21C55.1 21.77 57.65 23.96 59.45 26.78C61.31 29.6 62.24 32.9 62.24 36.68C62.24 39.08 61.79 41.45 60.89 43.79C59.99 46.13 58.64 48.53 56.84 50.99C55.04 53.39 52.7 56.09 49.82 59.09L34.07 75.65H63.14V86H18.14ZM96.8612 87.08C91.5212 87.08 86.8412 85.64 82.8212 82.76C78.8012 79.88 75.6512 75.83 73.3712 70.61C71.1512 65.39 70.0412 59.33 70.0412 52.43C70.0412 45.47 71.1512 39.41 73.3712 34.25C75.5912 29.09 78.7112 25.07 82.7312 22.19C86.7512 19.31 91.4312 17.87 96.7712 17.87C102.231 17.87 106.941 19.31 110.901 22.19C114.921 25.07 118.071 29.12 120.351 34.34C122.631 39.5 123.771 45.53 123.771 52.43C123.771 59.33 122.631 65.39 120.351 70.61C118.131 75.77 115.011 79.82 110.991 82.76C106.971 85.64 102.261 87.08 96.8612 87.08ZM96.9512 75.92C100.011 75.92 102.621 74.99 104.781 73.13C106.941 71.21 108.591 68.51 109.731 65.03C110.931 61.49 111.531 57.29 111.531 52.43C111.531 47.57 110.931 43.4 109.731 39.92C108.591 36.38 106.911 33.68 104.691 31.82C102.531 29.96 99.8912 29.03 96.7712 29.03C93.7712 29.03 91.1912 29.96 89.0312 31.82C86.8712 33.68 85.1912 36.38 83.9912 39.92C82.8512 43.4 82.2812 47.57 82.2812 52.43C82.2812 57.23 82.8512 61.4 83.9912 64.94C85.1912 68.42 86.8712 71.12 89.0312 73.04C91.2512 74.96 93.8912 75.92 96.9512 75.92ZM141.592 86V29.39H128.632V18.95H153.832V86H141.592ZM186.351 87.08C182.811 87.08 179.421 86.42 176.181 85.1C173.001 83.78 170.241 81.92 167.901 79.52C165.621 77.06 164.061 74.15 163.221 70.79L173.841 67.01C174.861 70.07 176.511 72.35 178.791 73.85C181.071 75.29 183.591 76.01 186.351 76.01C188.631 76.01 190.641 75.53 192.381 74.57C194.181 73.55 195.561 72.17 196.521 70.43C197.481 68.63 197.961 66.56 197.961 64.22C197.961 61.88 197.451 59.84 196.431 58.1C195.471 56.36 194.121 55.01 192.381 54.05C190.641 53.03 188.631 52.52 186.351 52.52C184.011 52.52 181.881 53.03 179.961 54.05C178.101 55.07 176.751 56.54 175.911 58.46L165.921 56.21L171.231 18.95L207.771 18.95V29.3H176.091L180.681 23.99L176.901 52.07L173.391 49.19C175.071 46.73 177.111 44.93 179.511 43.79C181.971 42.65 184.941 42.08 188.421 42.08C192.861 42.08 196.701 43.04 199.941 44.96C203.241 46.88 205.791 49.49 207.591 52.79C209.391 56.09 210.291 59.9 210.291 64.22C210.291 68.54 209.241 72.44 207.141 75.92C205.041 79.4 202.191 82.13 198.591 84.11C194.991 86.09 190.911 87.08 186.351 87.08Z"/>
</mask>
<path d="M18.14 86V76.73L36.32 57.74C39.92 53.96 42.68 50.96 44.6 48.74C46.58 46.46 47.96 44.51 48.74 42.89C49.52 41.27 49.91 39.62 49.91 37.94C49.91 35.12 49.01 32.9 47.21 31.28C45.47 29.66 43.22 28.85 40.46 28.85C37.58 28.85 35.09 29.69 32.99 31.37C30.89 32.99 29.36 35.39 28.4 38.57L17.69 35.24C18.41 31.7 19.88 28.64 22.1 26.06C24.32 23.42 27.02 21.41 30.2 20.03C33.44 18.59 36.86 17.87 40.46 17.87C44.78 17.87 48.56 18.65 51.8 20.21C55.1 21.77 57.65 23.96 59.45 26.78C61.31 29.6 62.24 32.9 62.24 36.68C62.24 39.08 61.79 41.45 60.89 43.79C59.99 46.13 58.64 48.53 56.84 50.99C55.04 53.39 52.7 56.09 49.82 59.09L34.07 75.65H63.14V86H18.14ZM96.8612 87.08C91.5212 87.08 86.8412 85.64 82.8212 82.76C78.8012 79.88 75.6512 75.83 73.3712 70.61C71.1512 65.39 70.0412 59.33 70.0412 52.43C70.0412 45.47 71.1512 39.41 73.3712 34.25C75.5912 29.09 78.7112 25.07 82.7312 22.19C86.7512 19.31 91.4312 17.87 96.7712 17.87C102.231 17.87 106.941 19.31 110.901 22.19C114.921 25.07 118.071 29.12 120.351 34.34C122.631 39.5 123.771 45.53 123.771 52.43C123.771 59.33 122.631 65.39 120.351 70.61C118.131 75.77 115.011 79.82 110.991 82.76C106.971 85.64 102.261 87.08 96.8612 87.08ZM96.9512 75.92C100.011 75.92 102.621 74.99 104.781 73.13C106.941 71.21 108.591 68.51 109.731 65.03C110.931 61.49 111.531 57.29 111.531 52.43C111.531 47.57 110.931 43.4 109.731 39.92C108.591 36.38 106.911 33.68 104.691 31.82C102.531 29.96 99.8912 29.03 96.7712 29.03C93.7712 29.03 91.1912 29.96 89.0312 31.82C86.8712 33.68 85.1912 36.38 83.9912 39.92C82.8512 43.4 82.2812 47.57 82.2812 52.43C82.2812 57.23 82.8512 61.4 83.9912 64.94C85.1912 68.42 86.8712 71.12 89.0312 73.04C91.2512 74.96 93.8912 75.92 96.9512 75.92ZM141.592 86V29.39H128.632V18.95H153.832V86H141.592ZM186.351 87.08C182.811 87.08 179.421 86.42 176.181 85.1C173.001 83.78 170.241 81.92 167.901 79.52C165.621 77.06 164.061 74.15 163.221 70.79L173.841 67.01C174.861 70.07 176.511 72.35 178.791 73.85C181.071 75.29 183.591 76.01 186.351 76.01C188.631 76.01 190.641 75.53 192.381 74.57C194.181 73.55 195.561 72.17 196.521 70.43C197.481 68.63 197.961 66.56 197.961 64.22C197.961 61.88 197.451 59.84 196.431 58.1C195.471 56.36 194.121 55.01 192.381 54.05C190.641 53.03 188.631 52.52 186.351 52.52C184.011 52.52 181.881 53.03 179.961 54.05C178.101 55.07 176.751 56.54 175.911 58.46L165.921 56.21L171.231 18.95L207.771 18.95V29.3H176.091L180.681 23.99L176.901 52.07L173.391 49.19C175.071 46.73 177.111 44.93 179.511 43.79C181.971 42.65 184.941 42.08 188.421 42.08C192.861 42.08 196.701 43.04 199.941 44.96C203.241 46.88 205.791 49.49 207.591 52.79C209.391 56.09 210.291 59.9 210.291 64.22C210.291 68.54 209.241 72.44 207.141 75.92C205.041 79.4 202.191 82.13 198.591 84.11C194.991 86.09 190.911 87.08 186.351 87.08Z" fill="white"/>
<path d="M18.14 86H1.14C1.14 95.3888 8.75116 103 18.14 103L18.14 86ZM18.14 76.73L5.86015 64.9739C2.83091 68.1381 1.14 72.3495 1.14 76.73H18.14ZM36.32 57.74L48.5999 69.4961C48.61 69.4854 48.6202 69.4748 48.6303 69.4641L36.32 57.74ZM44.6 48.74L31.7644 37.5933C31.7569 37.602 31.7494 37.6107 31.7418 37.6194L44.6 48.74ZM48.74 42.89L33.423 35.5151L33.423 35.5151L48.74 42.89ZM47.21 31.28L35.6259 43.7222C35.6959 43.7874 35.7665 43.852 35.8376 43.916L47.21 31.28ZM32.99 31.37L43.3737 44.8303C43.4529 44.7691 43.5316 44.7073 43.6098 44.6448L32.99 31.37ZM28.4 38.57L23.3526 54.8034C27.6812 56.1493 32.3681 55.7107 36.3718 53.585C40.3756 51.4593 43.3645 47.8227 44.6746 43.4831L28.4 38.57ZM17.69 35.24L1.03108 31.8517C-0.708182 40.4031 4.30969 48.8825 12.6426 51.4734L17.69 35.24ZM22.1 26.06L34.9862 37.1481C35.0281 37.0994 35.0698 37.0504 35.1112 37.0012L22.1 26.06ZM30.2 20.03L36.9676 35.6249C37.0133 35.605 37.0589 35.585 37.1044 35.5648L30.2 20.03ZM51.8 20.21L44.4251 35.527C44.4615 35.5446 44.498 35.562 44.5346 35.5792L51.8 20.21ZM59.45 26.78L45.1203 35.9266C45.166 35.9981 45.2121 36.0693 45.2589 36.1401L59.45 26.78ZM56.84 50.99L70.44 61.19C70.4802 61.1365 70.52 61.0827 70.5595 61.0287L56.84 50.99ZM49.82 59.09L37.5564 47.317C37.5381 47.336 37.5199 47.3551 37.5017 47.3742L49.82 59.09ZM34.07 75.65L21.7517 63.9342C17.0665 68.8604 15.7667 76.1041 18.4468 82.3519C21.1269 88.5997 27.2716 92.65 34.07 92.65V75.65ZM63.14 75.65H80.14C80.14 66.2612 72.5288 58.65 63.14 58.65L63.14 75.65ZM63.14 86V103C72.5288 103 80.14 95.3888 80.14 86H63.14ZM18.14 86H35.14V76.73H18.14H1.14V86H18.14ZM18.14 76.73L30.4199 88.4861L48.5999 69.4961L36.32 57.74L24.0401 45.9839L5.86015 64.9739L18.14 76.73ZM36.32 57.74L48.6303 69.4641C52.298 65.6131 55.2747 62.3852 57.4582 59.8606L44.6 48.74L31.7418 37.6194C30.0853 39.5348 27.542 42.3069 24.0097 46.0159L36.32 57.74ZM44.6 48.74L57.4356 59.8867C59.833 57.126 62.3271 53.8578 64.057 50.2649L48.74 42.89L33.423 35.5151C33.5525 35.2461 33.5522 35.3107 33.2434 35.7471C32.9497 36.1621 32.4769 36.7729 31.7644 37.5933L44.6 48.74ZM48.74 42.89L64.057 50.2649C65.8654 46.5091 66.91 42.3504 66.91 37.94H49.91H32.91C32.91 36.8896 33.1746 36.0309 33.423 35.5151L48.74 42.89ZM49.91 37.94H66.91C66.91 31.1719 64.5647 24.0281 58.5824 18.644L47.21 31.28L35.8376 43.916C34.8438 43.0216 34.0095 41.8521 33.4804 40.547C32.9758 39.3022 32.91 38.3379 32.91 37.94H49.91ZM47.21 31.28L58.7941 18.8378C53.4052 13.8205 46.7787 11.85 40.46 11.85V28.85V45.85C40.1746 45.85 39.4419 45.8063 38.4593 45.4526C37.4352 45.0839 36.4479 44.4875 35.6259 43.7222L47.21 31.28ZM40.46 28.85V11.85C34.0132 11.85 27.7059 13.8266 22.3702 18.0952L32.99 31.37L43.6098 44.6448C43.1468 45.0152 42.5465 45.3587 41.8666 45.5881C41.2009 45.8126 40.6913 45.85 40.46 45.85V28.85ZM32.99 31.37L22.6063 17.9097C17.0607 22.1877 13.849 27.9475 12.1254 33.6569L28.4 38.57L44.6746 43.4831C44.7777 43.1416 44.8002 43.2131 44.6024 43.5235C44.3878 43.86 43.9912 44.3539 43.3737 44.8303L32.99 31.37ZM28.4 38.57L33.4474 22.3366L22.7374 19.0066L17.69 35.24L12.6426 51.4734L23.3526 54.8034L28.4 38.57ZM17.69 35.24L34.3489 38.6283C34.5267 37.7544 34.7778 37.3903 34.9862 37.1481L22.1 26.06L9.21382 14.9719C4.98224 19.8897 2.29334 25.6456 1.03108 31.8517L17.69 35.24ZM22.1 26.06L35.1112 37.0012C35.6293 36.385 36.1883 35.963 36.9676 35.6249L30.2 20.03L23.4324 4.43513C17.8517 6.85696 13.0107 10.455 9.08884 15.1188L22.1 26.06ZM30.2 20.03L37.1044 35.5648C38.1367 35.106 39.201 34.87 40.46 34.87V17.87V0.869997C34.519 0.869997 28.7433 2.07401 23.2956 4.4952L30.2 20.03ZM40.46 17.87V34.87C42.7338 34.87 43.903 35.2756 44.4251 35.527L51.8 20.21L59.1749 4.89297C53.217 2.02439 46.8262 0.869997 40.46 0.869997V17.87ZM51.8 20.21L44.5346 35.5792C44.9267 35.7646 45.0848 35.8961 45.1116 35.9191C45.1286 35.9338 45.1296 35.9365 45.1228 35.9286C45.116 35.9208 45.1146 35.9176 45.1203 35.9266L59.45 26.78L73.7797 17.6334C70.1019 11.8715 64.9856 7.63938 59.0654 4.84077L51.8 20.21ZM59.45 26.78L45.2589 36.1401C45.2411 36.1132 45.2204 36.0768 45.2022 36.0368C45.1841 35.9971 45.1781 35.9751 45.1799 35.9813C45.1812 35.9859 45.24 36.1911 45.24 36.68H62.24H79.24C79.24 29.9821 77.5467 23.3412 73.6411 17.4199L59.45 26.78ZM62.24 36.68H45.24C45.24 36.9011 45.208 37.2066 45.0231 37.6874L60.89 43.79L76.7569 49.8926C78.372 45.6934 79.24 41.2589 79.24 36.68H62.24ZM60.89 43.79L45.0231 37.6874C44.7632 38.3632 44.2175 39.452 43.1205 40.9513L56.84 50.99L70.5595 61.0287C73.0625 57.608 75.2168 53.8968 76.7569 49.8926L60.89 43.79ZM56.84 50.99L43.24 40.79C41.9765 42.4747 40.1268 44.6394 37.5564 47.317L49.82 59.09L62.0836 70.863C65.2732 67.5405 68.1035 64.3053 70.44 61.19L56.84 50.99ZM49.82 59.09L37.5017 47.3742L21.7517 63.9342L34.07 75.65L46.3883 87.3658L62.1383 70.8058L49.82 59.09ZM34.07 75.65V92.65H63.14V75.65V58.65H34.07V75.65ZM63.14 75.65H46.14V86H63.14H80.14V75.65H63.14ZM63.14 86V69H18.14L18.14 86V103H63.14V86ZM82.8212 82.76L72.9206 96.5795L82.8212 82.76ZM73.3712 70.61L57.7272 77.2632C57.7487 77.3137 57.7704 77.3642 57.7924 77.4145L73.3712 70.61ZM73.3712 34.25L57.7551 27.5315L57.7551 27.5315L73.3712 34.25ZM82.7312 22.19L72.8306 8.37048L72.8306 8.37048L82.7312 22.19ZM110.901 22.19L100.902 35.9385C100.935 35.9623 100.968 35.986 101.001 36.0095L110.901 22.19ZM120.351 34.34L104.772 41.1445C104.782 41.1666 104.792 41.1887 104.802 41.2108L120.351 34.34ZM120.351 70.61L104.772 63.8055C104.76 63.8341 104.747 63.8628 104.735 63.8915L120.351 70.61ZM110.991 82.76L120.892 96.5795C120.937 96.5472 120.982 96.5147 121.027 96.4819L110.991 82.76ZM104.781 73.13L115.874 86.0121C115.942 85.9539 116.009 85.8952 116.075 85.836L104.781 73.13ZM109.731 65.03L93.6311 59.5723C93.6124 59.6274 93.594 59.6825 93.5759 59.7378L109.731 65.03ZM109.731 39.92L93.5495 45.131C93.5852 45.2417 93.6219 45.352 93.6598 45.4618L109.731 39.92ZM104.691 31.82L93.5983 44.7021C93.6563 44.7521 93.7147 44.8016 93.7734 44.8508L104.691 31.82ZM89.0312 31.82L77.9383 18.9379L77.9383 18.9379L89.0312 31.82ZM83.9912 39.92L67.8911 34.4623C67.8724 34.5174 67.854 34.5725 67.8359 34.6278L83.9912 39.92ZM83.9912 64.94L67.8095 70.151C67.8452 70.2617 67.8819 70.372 67.9198 70.4818L83.9912 64.94ZM89.0312 73.04L77.737 85.746C77.7945 85.7971 77.8524 85.8478 77.9106 85.8982L89.0312 73.04ZM96.8612 87.08V70.08C94.7734 70.08 93.6207 69.5845 92.7217 68.9405L82.8212 82.76L72.9206 96.5795C80.0616 101.695 88.269 104.08 96.8612 104.08V87.08ZM82.8212 82.76L92.7217 68.9405C91.5501 68.1011 90.1931 66.6516 88.95 63.8055L73.3712 70.61L57.7924 77.4145C61.1093 85.0084 66.0522 91.6589 72.9206 96.5795L82.8212 82.76ZM73.3712 70.61L89.0152 63.9568C87.8613 61.2436 87.0412 57.5263 87.0412 52.43H70.0412H53.0412C53.0412 61.1336 54.441 69.5364 57.7272 77.2632L73.3712 70.61ZM70.0412 52.43H87.0412C87.0412 47.2443 87.8706 43.5639 88.9872 40.9685L73.3712 34.25L57.7551 27.5315C54.4317 35.2561 53.0412 43.6957 53.0412 52.43H70.0412ZM73.3712 34.25L88.9872 40.9685C90.1539 38.2569 91.4557 36.8521 92.6317 36.0095L82.7312 22.19L72.8306 8.37048C65.9667 13.2879 61.0285 19.9231 57.7551 27.5315L73.3712 34.25ZM82.7312 22.19L92.6317 36.0095C93.5307 35.3655 94.6833 34.87 96.7712 34.87V17.87V0.869997C88.179 0.869997 79.9716 3.25452 72.8306 8.37048L82.7312 22.19ZM96.7712 17.87V34.87C99.0715 34.87 100.18 35.413 100.902 35.9385L110.901 22.19L120.9 8.44148C113.703 3.20704 105.391 0.869997 96.7712 0.869997V17.87ZM110.901 22.19L101.001 36.0095C102.172 36.8489 103.529 38.2984 104.772 41.1445L120.351 34.34L135.93 27.5355C132.613 19.9416 127.67 13.2911 120.802 8.37048L110.901 22.19ZM120.351 34.34L104.802 41.2108C105.937 43.7801 106.771 47.3809 106.771 52.43H123.771H140.771C140.771 43.6791 139.326 35.2199 135.901 27.4692L120.351 34.34ZM123.771 52.43H106.771C106.771 57.4723 105.939 61.1348 104.772 63.8055L120.351 70.61L135.93 77.4145C139.323 69.6452 140.771 61.1877 140.771 52.43H123.771ZM120.351 70.61L104.735 63.8915C103.559 66.625 102.221 68.1126 100.956 69.0381L110.991 82.76L121.027 96.4819C127.801 91.5274 132.703 84.915 135.967 77.3285L120.351 70.61ZM110.991 82.76L101.091 68.9405C100.225 69.5607 99.0534 70.08 96.8612 70.08V87.08V104.08C105.469 104.08 113.717 101.719 120.892 96.5795L110.991 82.76ZM96.9512 75.92V92.92C103.759 92.92 110.392 90.7327 115.874 86.0121L104.781 73.13L93.6883 60.2479C94.1491 59.8511 94.7724 59.4671 95.4976 59.2087C96.2054 58.9565 96.7389 58.92 96.9512 58.92V75.92ZM104.781 73.13L116.075 85.836C121.008 81.4512 124.056 75.9084 125.886 70.3222L109.731 65.03L93.5759 59.7378C93.3531 60.4181 93.1742 60.7327 93.1329 60.8004C93.1005 60.8533 93.1998 60.6793 93.487 60.424L104.781 73.13ZM109.731 65.03L125.831 70.4877C127.776 64.7522 128.531 58.6197 128.531 52.43H111.531H94.5312C94.5312 55.9603 94.0868 58.2278 93.6311 59.5723L109.731 65.03ZM111.531 52.43H128.531C128.531 46.2521 127.779 40.1089 125.803 34.3782L109.731 39.92L93.6598 45.4618C94.0837 46.6911 94.5312 48.8879 94.5312 52.43H111.531ZM109.731 39.92L125.913 34.709C124.066 28.9738 120.894 23.2171 115.609 18.7891L104.691 31.82L93.7734 44.8508C93.5822 44.6907 93.4375 44.5411 93.3356 44.4219C93.2348 44.3041 93.1875 44.2296 93.1822 44.2211C93.1761 44.2114 93.3358 44.4672 93.5495 45.131L109.731 39.92ZM104.691 31.82L115.784 18.9379C110.239 14.1628 103.548 12.03 96.7712 12.03V29.03V46.03C96.6263 46.03 96.133 46.0048 95.4428 45.7617C94.7305 45.5108 94.0911 45.1264 93.5983 44.7021L104.691 31.82ZM96.7712 29.03V12.03C89.932 12.03 83.3551 14.2734 77.9383 18.9379L89.0312 31.82L100.124 44.7021C99.6954 45.0712 99.0884 45.4544 98.351 45.7202C97.6263 45.9815 97.0522 46.03 96.7712 46.03V29.03ZM89.0312 31.82L77.9383 18.9379C72.8654 23.3062 69.7707 28.9173 67.8911 34.4623L83.9912 39.92L100.091 45.3777C100.344 44.633 100.541 44.2914 100.585 44.2211C100.619 44.1661 100.49 44.3869 100.124 44.7021L89.0312 31.82ZM83.9912 39.92L67.8359 34.6278C65.9873 40.271 65.2812 46.3235 65.2812 52.43H82.2812H99.2812C99.2812 48.8165 99.7151 46.529 100.146 45.2122L83.9912 39.92ZM82.2812 52.43H65.2812C65.2812 58.5129 65.996 64.5197 67.8095 70.151L83.9912 64.94L100.173 59.729C99.7063 58.2803 99.2812 55.9471 99.2812 52.43H82.2812ZM83.9912 64.94L67.9198 70.4818C69.8159 75.9805 72.8777 81.4266 77.737 85.746L89.0312 73.04L100.325 60.334C100.865 60.8134 100.566 60.8595 100.063 59.3982L83.9912 64.94ZM89.0312 73.04L77.9106 85.8982C83.3601 90.6112 89.9968 92.92 96.9512 92.92V75.92V58.92C97.2255 58.92 97.7843 58.9684 98.4858 59.2235C99.1977 59.4824 99.7672 59.8493 100.152 60.1818L89.0312 73.04ZM141.592 86H124.592C124.592 95.3888 132.203 103 141.592 103V86ZM141.592 29.39L158.592 29.39C158.592 20.0012 150.981 12.39 141.592 12.39V29.39ZM128.632 29.39H111.632C111.632 38.7788 119.243 46.39 128.632 46.39V29.39ZM128.632 18.95V1.94999C119.243 1.94999 111.632 9.56115 111.632 18.95H128.632ZM153.832 18.95H170.832C170.832 9.56115 163.221 1.94999 153.832 1.94999V18.95ZM153.832 86V103C163.221 103 170.832 95.3888 170.832 86H153.832ZM141.592 86H158.592V29.39L141.592 29.39H124.592V86H141.592ZM141.592 29.39V12.39H128.632V29.39V46.39H141.592V29.39ZM128.632 29.39L145.632 29.39V18.95H128.632H111.632V29.39H128.632ZM128.632 18.95V35.95L153.832 35.95V18.95V1.94999H128.632V18.95ZM153.832 18.95H136.832V86H153.832H170.832V18.95H153.832ZM153.832 86V69H141.592V86V103H153.832V86ZM176.181 85.1L169.663 100.801C169.698 100.815 169.732 100.83 169.767 100.844L176.181 85.1ZM167.901 79.52L155.432 91.076C155.53 91.1811 155.629 91.2851 155.729 91.3877L167.901 79.52ZM163.221 70.79L157.52 54.7743C149.276 57.7088 144.606 66.4231 146.728 74.9131L163.221 70.79ZM173.841 67.01L189.968 61.6341C188.524 57.3003 185.396 53.7303 181.289 51.7287C177.183 49.7271 172.444 49.4624 168.14 50.9943L173.841 67.01ZM178.791 73.85L169.447 88.0521C169.535 88.11 169.624 88.1671 169.713 88.2233L178.791 73.85ZM192.381 74.57L200.593 89.4548C200.649 89.4237 200.706 89.3922 200.762 89.3604L192.381 74.57ZM196.521 70.43L211.406 78.6423C211.444 78.5718 211.483 78.501 211.521 78.43L196.521 70.43ZM196.431 58.1L181.546 66.3123C181.617 66.4416 181.69 66.5699 181.765 66.6972L196.431 58.1ZM192.381 54.05L183.783 68.7159C183.911 68.7905 184.039 68.8635 184.168 68.9348L192.381 54.05ZM179.961 54.05L171.985 39.037C171.919 39.0723 171.852 39.108 171.787 39.1442L179.961 54.05ZM175.911 58.46L172.175 75.0446C180.122 76.8342 188.221 72.7362 191.485 65.2739L175.911 58.46ZM165.921 56.21L149.091 53.8115C147.84 62.5851 153.54 70.8473 162.185 72.7946L165.921 56.21ZM171.231 18.95V1.94999C162.768 1.94999 155.595 8.17393 154.401 16.5515L171.231 18.95ZM207.771 18.95H224.771C224.771 9.56115 217.16 1.94999 207.771 1.94999V18.95ZM207.771 29.3V46.3C217.16 46.3 224.771 38.6888 224.771 29.3L207.771 29.3ZM176.091 29.3L163.23 18.1828C158.88 23.2151 157.864 30.3223 160.631 36.3713C163.398 42.4204 169.439 46.3 176.091 46.3V29.3ZM180.681 23.99L197.529 26.258C198.532 18.8055 194.52 11.5794 187.664 8.49048C180.808 5.40158 172.737 7.18388 167.82 12.8728L180.681 23.99ZM176.901 52.07L166.117 65.2122C170.882 69.1221 177.391 70.1463 183.126 67.8891C188.862 65.6318 192.926 60.4467 193.749 54.338L176.901 52.07ZM173.391 49.19L159.352 39.6027C154.384 46.8781 155.796 56.7438 162.607 62.3322L173.391 49.19ZM179.511 43.79L172.363 28.3657C172.314 28.3883 172.265 28.4112 172.217 28.4343L179.511 43.79ZM199.941 44.96L191.274 59.585C191.313 59.6081 191.352 59.6311 191.392 59.6539L199.941 44.96ZM207.591 52.79L222.515 44.6495L222.515 44.6495L207.591 52.79ZM207.141 75.92L192.586 67.1367L192.586 67.1367L207.141 75.92ZM198.591 84.11L190.398 69.2143L198.591 84.11ZM186.351 87.08V70.08C184.983 70.08 183.774 69.8367 182.595 69.3564L176.181 85.1L169.767 100.844C175.068 103.003 180.638 104.08 186.351 104.08V87.08ZM176.181 85.1L182.698 69.3989C181.584 68.9364 180.763 68.3598 180.073 67.6523L167.901 79.52L155.729 91.3877C159.719 95.4802 164.418 98.6236 169.663 100.801L176.181 85.1ZM167.901 79.52L180.369 67.964C180.1 67.6734 179.882 67.3442 179.713 66.6669L163.221 70.79L146.728 74.9131C148.239 80.9558 151.142 86.4466 155.432 91.076L167.901 79.52ZM163.221 70.79L168.921 86.8057L179.541 83.0257L173.841 67.01L168.14 50.9943L157.52 54.7743L163.221 70.79ZM173.841 67.01L157.713 72.3859C159.712 78.3815 163.425 84.09 169.447 88.0521L178.791 73.85L188.134 59.6479C188.769 60.0653 189.271 60.573 189.615 61.0484C189.94 61.4974 190.01 61.758 189.968 61.6341L173.841 67.01ZM178.791 73.85L169.713 88.2233C174.776 91.4213 180.457 93.01 186.351 93.01V76.01V59.01C186.466 59.01 186.723 59.0277 187.061 59.1241C187.401 59.2213 187.681 59.358 187.869 59.4767L178.791 73.85ZM186.351 76.01V93.01C191.075 93.01 195.989 91.9952 200.593 89.4548L192.381 74.57L184.168 59.6852C184.691 59.3966 185.195 59.2163 185.62 59.1149C186.033 59.0161 186.296 59.01 186.351 59.01V76.01ZM192.381 74.57L200.762 89.3604C205.178 86.8577 208.863 83.2502 211.406 78.6423L196.521 70.43L181.636 62.2177C181.913 61.7158 182.286 61.2086 182.745 60.7492C183.201 60.2931 183.647 59.9793 183.999 59.7796L192.381 74.57ZM196.521 70.43L211.521 78.43C213.976 73.827 214.961 68.9367 214.961 64.22H197.961H180.961C180.961 64.2262 180.96 64.0311 181.04 63.6874C181.122 63.3339 181.272 62.896 181.521 62.43L196.521 70.43ZM197.961 64.22H214.961C214.961 59.348 213.875 54.2428 211.097 49.5028L196.431 58.1L181.765 66.6972C181.422 66.112 181.207 65.5417 181.086 65.0581C180.968 64.5879 180.961 64.2858 180.961 64.22H197.961ZM196.431 58.1L211.316 49.8877C208.806 45.3384 205.142 41.6751 200.593 39.1652L192.381 54.05L184.168 68.9348C183.698 68.6754 183.177 68.3025 182.677 67.8033C182.178 67.3041 181.805 66.7826 181.546 66.3123L196.431 58.1ZM192.381 54.05L200.978 39.3841C196.304 36.6443 191.251 35.52 186.351 35.52V52.52V69.52C186.219 69.52 185.877 69.5046 185.387 69.3804C184.886 69.2532 184.332 69.0372 183.783 68.7159L192.381 54.05ZM186.351 52.52V35.52C181.447 35.52 176.546 36.6138 171.985 39.037L179.961 54.05L187.936 69.063C187.617 69.2324 187.279 69.358 186.957 69.4352C186.64 69.5111 186.423 69.52 186.351 69.52V52.52ZM179.961 54.05L171.787 39.1442C166.677 41.9461 162.701 46.2401 160.336 51.6461L175.911 58.46L191.485 65.2739C191.191 65.9467 190.731 66.701 190.074 67.4164C189.419 68.13 188.727 68.631 188.135 68.9558L179.961 54.05ZM175.911 58.46L179.646 41.8754L169.656 39.6254L165.921 56.21L162.185 72.7946L172.175 75.0446L175.911 58.46ZM165.921 56.21L182.751 58.6085L188.061 21.3485L171.231 18.95L154.401 16.5515L149.091 53.8115L165.921 56.21ZM171.231 18.95V35.95H207.771V18.95V1.94999L171.231 1.94999V18.95ZM207.771 18.95L190.771 18.95V29.3H207.771H224.771V18.95H207.771ZM207.771 29.3V12.3L176.091 12.3V29.3V46.3H207.771V29.3ZM176.091 29.3L188.952 40.4172L193.542 35.1072L180.681 23.99L167.82 12.8728L163.23 18.1828L176.091 29.3ZM180.681 23.99L163.833 21.722L160.053 49.802L176.901 52.07L193.749 54.338L197.529 26.258L180.681 23.99ZM176.901 52.07L187.684 38.9278L184.174 36.0478L173.391 49.19L162.607 62.3322L166.117 65.2122L176.901 52.07ZM173.391 49.19L187.429 58.7773C187.548 58.6031 187.561 58.6252 187.428 58.7422C187.287 58.8666 187.072 59.0187 186.805 59.1457L179.511 43.79L172.217 28.4343C166.779 31.0171 162.52 34.9646 159.352 39.6027L173.391 49.19ZM179.511 43.79L186.659 59.2143C186.338 59.3627 186.735 59.08 188.421 59.08V42.08V25.08C183.146 25.08 177.603 25.9373 172.363 28.3657L179.511 43.79ZM188.421 42.08V59.08C190.362 59.08 191.094 59.4781 191.274 59.585L199.941 44.96L208.607 30.335C202.308 26.6019 195.36 25.08 188.421 25.08V42.08ZM199.941 44.96L191.392 59.6539C192.052 60.0384 192.378 60.4008 192.666 60.9305L207.591 52.79L222.515 44.6495C219.204 38.5792 214.429 33.7216 208.49 30.2661L199.941 44.96ZM207.591 52.79L192.666 60.9305C192.913 61.3824 193.291 62.3159 193.291 64.22H210.291H227.291C227.291 57.4841 225.868 50.7976 222.515 44.6495L207.591 52.79ZM210.291 64.22H193.291C193.291 65.6468 192.985 66.4755 192.586 67.1367L207.141 75.92L221.696 84.7033C225.497 78.4045 227.291 71.4332 227.291 64.22H210.291ZM207.141 75.92L192.586 67.1367C192.049 68.0258 191.406 68.6599 190.398 69.2143L198.591 84.11L206.783 99.0057C212.975 95.6001 218.032 90.7742 221.696 84.7033L207.141 75.92ZM198.591 84.11L190.398 69.2143C189.575 69.6669 188.367 70.08 186.351 70.08V87.08V104.08C193.454 104.08 200.406 102.513 206.783 99.0057L198.591 84.11Z" fill="#08262E" mask="url(#path-1-outside-1_1350_680)"/>
</svg>
