<svg width="227" height="105" viewBox="0 0 227 105" fill="none"
    xmlns="http://www.w3.org/2000/svg">
    <mask id="path-1-outside-1_1350_680" maskUnits="userSpaceOnUse" x="0" y="0" width="227" height="105" fill="black">
        <rect fill="white" width="227" height="105"/>
        <path d="M18.14 86V76.73L36.32 57.74C39.92 53.96 42.68 50.96 44.6 48.74C46.58 46.46 47.96 44.51 48.74 42.89C49.52 41.27 49.91 39.62 49.91 37.94C49.91 35.12 49.01 32.9 47.21 31.28C45.47 29.66 43.22 28.85 40.46 28.85C37.58 28.85 35.09 29.69 32.99 31.37C30.89 32.99 29.36 35.39 28.4 38.57L17.69 35.24C18.41 31.7 19.88 28.64 22.1 26.06C24.32 23.42 27.02 21.41 30.2 20.03C33.44 18.59 36.86 17.87 40.46 17.87C44.78 17.87 48.56 18.65 51.8 20.21C55.1 21.77 57.65 23.96 59.45 26.78C61.31 29.6 62.24 32.9 62.24 36.68C62.24 39.08 61.79 41.45 60.89 43.79C59.99 46.13 58.64 48.53 56.84 50.99C55.04 53.39 52.7 56.09 49.82 59.09L34.07 75.65H63.14V86H18.14ZM96.8612 87.08C91.5212 87.08 86.8412 85.64 82.8212 82.76C78.8012 79.88 75.6512 75.83 73.3712 70.61C71.1512 65.39 70.0412 59.33 70.0412 52.43C70.0412 45.47 71.1512 39.41 73.3712 34.25C75.5912 29.09 78.7112 25.07 82.7312 22.19C86.7512 19.31 91.4312 17.87 96.7712 17.87C102.231 17.87 106.941 19.31 110.901 22.19C114.921 25.07 118.071 29.12 120.351 34.34C122.631 39.5 123.771 45.53 123.771 52.43C123.771 59.33 122.631 65.39 120.351 70.61C118.131 75.77 115.011 79.82 110.991 82.76C106.971 85.64 102.261 87.08 96.8612 87.08ZM96.9512 75.92C100.011 75.92 102.621 74.99 104.781 73.13C106.941 71.21 108.591 68.51 109.731 65.03C110.931 61.49 111.531 57.29 111.531 52.43C111.531 47.57 110.931 43.4 109.731 39.92C108.591 36.38 106.911 33.68 104.691 31.82C102.531 29.96 99.8912 29.03 96.7712 29.03C93.7712 29.03 91.1912 29.96 89.0312 31.82C86.8712 33.68 85.1912 36.38 83.9912 39.92C82.8512 43.4 82.2812 47.57 82.2812 52.43C82.2812 57.23 82.8512 61.4 83.9912 64.94C85.1912 68.42 86.8712 71.12 89.0312 73.04C91.2512 74.96 93.8912 75.92 96.9512 75.92ZM141.592 86V29.39H128.632V18.95H153.832V86H141.592ZM185.922 87.08C181.362 87.08 177.312 86.12 173.772 84.2C170.292 82.22 167.562 79.58 165.582 76.28C163.602 72.92 162.612 69.11 162.612 64.85C162.612 62.69 162.822 60.53 163.242 58.37C163.722 56.21 164.562 53.9 165.762 51.44C167.022 48.98 168.822 46.25 171.162 43.25L189.882 18.95H204.462L181.692 48.2L179.712 46.04C180.552 45.38 181.422 44.87 182.322 44.51C183.222 44.09 184.122 43.79 185.022 43.61C185.982 43.43 186.972 43.34 187.992 43.34C192.072 43.34 195.702 44.27 198.882 46.13C202.062 47.99 204.552 50.54 206.352 53.78C208.212 56.96 209.142 60.56 209.142 64.58C209.142 68.9 208.152 72.77 206.172 76.19C204.192 79.55 201.432 82.22 197.892 84.2C194.412 86.12 190.422 87.08 185.922 87.08ZM185.922 76.01C187.962 76.01 189.792 75.56 191.412 74.66C193.092 73.7 194.412 72.35 195.372 70.61C196.392 68.87 196.902 66.92 196.902 64.76C196.902 62.48 196.392 60.53 195.372 58.91C194.412 57.23 193.122 55.91 191.502 54.95C189.882 53.99 188.022 53.51 185.922 53.51C183.882 53.51 182.022 53.99 180.342 54.95C178.662 55.91 177.312 57.23 176.292 58.91C175.332 60.53 174.852 62.48 174.852 64.76C174.852 66.92 175.332 68.87 176.292 70.61C177.312 72.35 178.662 73.7 180.342 74.66C182.022 75.56 183.882 76.01 185.922 76.01Z"/>
    </mask>
    <path d="M18.14 86V76.73L36.32 57.74C39.92 53.96 42.68 50.96 44.6 48.74C46.58 46.46 47.96 44.51 48.74 42.89C49.52 41.27 49.91 39.62 49.91 37.94C49.91 35.12 49.01 32.9 47.21 31.28C45.47 29.66 43.22 28.85 40.46 28.85C37.58 28.85 35.09 29.69 32.99 31.37C30.89 32.99 29.36 35.39 28.4 38.57L17.69 35.24C18.41 31.7 19.88 28.64 22.1 26.06C24.32 23.42 27.02 21.41 30.2 20.03C33.44 18.59 36.86 17.87 40.46 17.87C44.78 17.87 48.56 18.65 51.8 20.21C55.1 21.77 57.65 23.96 59.45 26.78C61.31 29.6 62.24 32.9 62.24 36.68C62.24 39.08 61.79 41.45 60.89 43.79C59.99 46.13 58.64 48.53 56.84 50.99C55.04 53.39 52.7 56.09 49.82 59.09L34.07 75.65H63.14V86H18.14ZM96.8612 87.08C91.5212 87.08 86.8412 85.64 82.8212 82.76C78.8012 79.88 75.6512 75.83 73.3712 70.61C71.1512 65.39 70.0412 59.33 70.0412 52.43C70.0412 45.47 71.1512 39.41 73.3712 34.25C75.5912 29.09 78.7112 25.07 82.7312 22.19C86.7512 19.31 91.4312 17.87 96.7712 17.87C102.231 17.87 106.941 19.31 110.901 22.19C114.921 25.07 118.071 29.12 120.351 34.34C122.631 39.5 123.771 45.53 123.771 52.43C123.771 59.33 122.631 65.39 120.351 70.61C118.131 75.77 115.011 79.82 110.991 82.76C106.971 85.64 102.261 87.08 96.8612 87.08ZM96.9512 75.92C100.011 75.92 102.621 74.99 104.781 73.13C106.941 71.21 108.591 68.51 109.731 65.03C110.931 61.49 111.531 57.29 111.531 52.43C111.531 47.57 110.931 43.4 109.731 39.92C108.591 36.38 106.911 33.68 104.691 31.82C102.531 29.96 99.8912 29.03 96.7712 29.03C93.7712 29.03 91.1912 29.96 89.0312 31.82C86.8712 33.68 85.1912 36.38 83.9912 39.92C82.8512 43.4 82.2812 47.57 82.2812 52.43C82.2812 57.23 82.8512 61.4 83.9912 64.94C85.1912 68.42 86.8712 71.12 89.0312 73.04C91.2512 74.96 93.8912 75.92 96.9512 75.92ZM141.592 86V29.39H128.632V18.95H153.832V86H141.592ZM185.922 87.08C181.362 87.08 177.312 86.12 173.772 84.2C170.292 82.22 167.562 79.58 165.582 76.28C163.602 72.92 162.612 69.11 162.612 64.85C162.612 62.69 162.822 60.53 163.242 58.37C163.722 56.21 164.562 53.9 165.762 51.44C167.022 48.98 168.822 46.25 171.162 43.25L189.882 18.95H204.462L181.692 48.2L179.712 46.04C180.552 45.38 181.422 44.87 182.322 44.51C183.222 44.09 184.122 43.79 185.022 43.61C185.982 43.43 186.972 43.34 187.992 43.34C192.072 43.34 195.702 44.27 198.882 46.13C202.062 47.99 204.552 50.54 206.352 53.78C208.212 56.96 209.142 60.56 209.142 64.58C209.142 68.9 208.152 72.77 206.172 76.19C204.192 79.55 201.432 82.22 197.892 84.2C194.412 86.12 190.422 87.08 185.922 87.08ZM185.922 76.01C187.962 76.01 189.792 75.56 191.412 74.66C193.092 73.7 194.412 72.35 195.372 70.61C196.392 68.87 196.902 66.92 196.902 64.76C196.902 62.48 196.392 60.53 195.372 58.91C194.412 57.23 193.122 55.91 191.502 54.95C189.882 53.99 188.022 53.51 185.922 53.51C183.882 53.51 182.022 53.99 180.342 54.95C178.662 55.91 177.312 57.23 176.292 58.91C175.332 60.53 174.852 62.48 174.852 64.76C174.852 66.92 175.332 68.87 176.292 70.61C177.312 72.35 178.662 73.7 180.342 74.66C182.022 75.56 183.882 76.01 185.922 76.01Z" fill="white"/>
    <path d="M18.14 86H1.14C1.14 95.3888 8.75116 103 18.14 103L18.14 86ZM18.14 76.73L5.86015 64.9739C2.83091 68.1381 1.14 72.3495 1.14 76.73H18.14ZM36.32 57.74L48.5999 69.4961C48.61 69.4854 48.6202 69.4748 48.6303 69.4641L36.32 57.74ZM44.6 48.74L31.7644 37.5933C31.7569 37.602 31.7494 37.6107 31.7418 37.6194L44.6 48.74ZM48.74 42.89L33.423 35.5151L33.423 35.5151L48.74 42.89ZM47.21 31.28L35.6259 43.7222C35.6959 43.7874 35.7665 43.852 35.8376 43.916L47.21 31.28ZM32.99 31.37L43.3737 44.8303C43.4529 44.7691 43.5316 44.7073 43.6098 44.6448L32.99 31.37ZM28.4 38.57L23.3526 54.8034C27.6812 56.1493 32.3681 55.7107 36.3718 53.585C40.3756 51.4593 43.3645 47.8227 44.6746 43.4831L28.4 38.57ZM17.69 35.24L1.03108 31.8517C-0.708182 40.4031 4.30969 48.8825 12.6426 51.4734L17.69 35.24ZM22.1 26.06L34.9862 37.1481C35.0281 37.0994 35.0698 37.0504 35.1112 37.0012L22.1 26.06ZM30.2 20.03L36.9676 35.6249C37.0133 35.605 37.0589 35.585 37.1044 35.5648L30.2 20.03ZM51.8 20.21L44.4251 35.527C44.4615 35.5446 44.498 35.562 44.5346 35.5792L51.8 20.21ZM59.45 26.78L45.1203 35.9266C45.166 35.9981 45.2121 36.0693 45.2589 36.1401L59.45 26.78ZM56.84 50.99L70.44 61.19C70.4802 61.1365 70.52 61.0827 70.5595 61.0287L56.84 50.99ZM49.82 59.09L37.5564 47.317C37.5381 47.336 37.5199 47.3551 37.5017 47.3742L49.82 59.09ZM34.07 75.65L21.7517 63.9342C17.0665 68.8604 15.7667 76.1041 18.4468 82.3519C21.1269 88.5997 27.2716 92.65 34.07 92.65V75.65ZM63.14 75.65H80.14C80.14 66.2612 72.5288 58.65 63.14 58.65L63.14 75.65ZM63.14 86V103C72.5288 103 80.14 95.3888 80.14 86H63.14ZM18.14 86H35.14V76.73H18.14H1.14V86H18.14ZM18.14 76.73L30.4199 88.4861L48.5999 69.4961L36.32 57.74L24.0401 45.9839L5.86015 64.9739L18.14 76.73ZM36.32 57.74L48.6303 69.4641C52.298 65.6131 55.2747 62.3852 57.4582 59.8606L44.6 48.74L31.7418 37.6194C30.0853 39.5348 27.542 42.3069 24.0097 46.0159L36.32 57.74ZM44.6 48.74L57.4356 59.8867C59.833 57.126 62.3271 53.8578 64.057 50.2649L48.74 42.89L33.423 35.5151C33.5525 35.2461 33.5522 35.3107 33.2434 35.7471C32.9497 36.1621 32.4769 36.7729 31.7644 37.5933L44.6 48.74ZM48.74 42.89L64.057 50.2649C65.8654 46.5091 66.91 42.3504 66.91 37.94H49.91H32.91C32.91 36.8896 33.1746 36.0309 33.423 35.5151L48.74 42.89ZM49.91 37.94H66.91C66.91 31.1719 64.5647 24.0281 58.5824 18.644L47.21 31.28L35.8376 43.916C34.8438 43.0216 34.0095 41.8521 33.4804 40.547C32.9758 39.3022 32.91 38.3379 32.91 37.94H49.91ZM47.21 31.28L58.7941 18.8378C53.4052 13.8205 46.7787 11.85 40.46 11.85V28.85V45.85C40.1746 45.85 39.4419 45.8063 38.4593 45.4526C37.4352 45.0839 36.4479 44.4875 35.6259 43.7222L47.21 31.28ZM40.46 28.85V11.85C34.0132 11.85 27.7059 13.8266 22.3702 18.0952L32.99 31.37L43.6098 44.6448C43.1468 45.0152 42.5465 45.3587 41.8666 45.5881C41.2009 45.8126 40.6913 45.85 40.46 45.85V28.85ZM32.99 31.37L22.6063 17.9097C17.0607 22.1877 13.849 27.9475 12.1254 33.6569L28.4 38.57L44.6746 43.4831C44.7777 43.1416 44.8002 43.2131 44.6024 43.5235C44.3878 43.86 43.9912 44.3539 43.3737 44.8303L32.99 31.37ZM28.4 38.57L33.4474 22.3366L22.7374 19.0066L17.69 35.24L12.6426 51.4734L23.3526 54.8034L28.4 38.57ZM17.69 35.24L34.3489 38.6283C34.5267 37.7544 34.7778 37.3903 34.9862 37.1481L22.1 26.06L9.21382 14.9719C4.98224 19.8897 2.29334 25.6456 1.03108 31.8517L17.69 35.24ZM22.1 26.06L35.1112 37.0012C35.6293 36.385 36.1883 35.963 36.9676 35.6249L30.2 20.03L23.4324 4.43513C17.8517 6.85696 13.0107 10.455 9.08884 15.1188L22.1 26.06ZM30.2 20.03L37.1044 35.5648C38.1367 35.106 39.201 34.87 40.46 34.87V17.87V0.869997C34.519 0.869997 28.7433 2.07401 23.2956 4.4952L30.2 20.03ZM40.46 17.87V34.87C42.7338 34.87 43.903 35.2756 44.4251 35.527L51.8 20.21L59.1749 4.89297C53.217 2.02439 46.8262 0.869997 40.46 0.869997V17.87ZM51.8 20.21L44.5346 35.5792C44.9267 35.7646 45.0848 35.8961 45.1116 35.9191C45.1286 35.9338 45.1296 35.9365 45.1228 35.9286C45.116 35.9208 45.1146 35.9176 45.1203 35.9266L59.45 26.78L73.7797 17.6334C70.1019 11.8715 64.9856 7.63938 59.0654 4.84077L51.8 20.21ZM59.45 26.78L45.2589 36.1401C45.2411 36.1132 45.2204 36.0768 45.2022 36.0368C45.1841 35.9971 45.1781 35.9751 45.1799 35.9813C45.1812 35.9859 45.24 36.1911 45.24 36.68H62.24H79.24C79.24 29.9821 77.5467 23.3412 73.6411 17.4199L59.45 26.78ZM62.24 36.68H45.24C45.24 36.9011 45.208 37.2066 45.0231 37.6874L60.89 43.79L76.7569 49.8926C78.372 45.6934 79.24 41.2589 79.24 36.68H62.24ZM60.89 43.79L45.0231 37.6874C44.7632 38.3632 44.2175 39.452 43.1205 40.9513L56.84 50.99L70.5595 61.0287C73.0625 57.608 75.2168 53.8968 76.7569 49.8926L60.89 43.79ZM56.84 50.99L43.24 40.79C41.9765 42.4747 40.1268 44.6394 37.5564 47.317L49.82 59.09L62.0836 70.863C65.2732 67.5405 68.1035 64.3053 70.44 61.19L56.84 50.99ZM49.82 59.09L37.5017 47.3742L21.7517 63.9342L34.07 75.65L46.3883 87.3658L62.1383 70.8058L49.82 59.09ZM34.07 75.65V92.65H63.14V75.65V58.65H34.07V75.65ZM63.14 75.65H46.14V86H63.14H80.14V75.65H63.14ZM63.14 86V69H18.14L18.14 86V103H63.14V86ZM82.8212 82.76L72.9206 96.5795L82.8212 82.76ZM73.3712 70.61L57.7272 77.2632C57.7487 77.3137 57.7704 77.3642 57.7924 77.4145L73.3712 70.61ZM73.3712 34.25L57.7551 27.5315L57.7551 27.5315L73.3712 34.25ZM82.7312 22.19L72.8306 8.37048L72.8306 8.37048L82.7312 22.19ZM110.901 22.19L100.902 35.9385C100.935 35.9623 100.968 35.986 101.001 36.0095L110.901 22.19ZM120.351 34.34L104.772 41.1445C104.782 41.1666 104.792 41.1887 104.802 41.2108L120.351 34.34ZM120.351 70.61L104.772 63.8055C104.76 63.8341 104.747 63.8628 104.735 63.8915L120.351 70.61ZM110.991 82.76L120.892 96.5795C120.937 96.5472 120.982 96.5147 121.027 96.4819L110.991 82.76ZM104.781 73.13L115.874 86.0121C115.942 85.9539 116.009 85.8952 116.075 85.836L104.781 73.13ZM109.731 65.03L93.6311 59.5723C93.6124 59.6274 93.594 59.6825 93.5759 59.7378L109.731 65.03ZM109.731 39.92L93.5495 45.131C93.5852 45.2417 93.6219 45.352 93.6598 45.4618L109.731 39.92ZM104.691 31.82L93.5983 44.7021C93.6563 44.7521 93.7147 44.8016 93.7734 44.8508L104.691 31.82ZM89.0312 31.82L77.9383 18.9379L77.9383 18.9379L89.0312 31.82ZM83.9912 39.92L67.8911 34.4623C67.8724 34.5174 67.854 34.5725 67.8359 34.6278L83.9912 39.92ZM83.9912 64.94L67.8095 70.151C67.8452 70.2617 67.8819 70.372 67.9198 70.4818L83.9912 64.94ZM89.0312 73.04L77.737 85.746C77.7945 85.7971 77.8524 85.8478 77.9106 85.8982L89.0312 73.04ZM96.8612 87.08V70.08C94.7734 70.08 93.6207 69.5845 92.7217 68.9405L82.8212 82.76L72.9206 96.5795C80.0616 101.695 88.269 104.08 96.8612 104.08V87.08ZM82.8212 82.76L92.7217 68.9405C91.5501 68.1011 90.1931 66.6516 88.95 63.8055L73.3712 70.61L57.7924 77.4145C61.1093 85.0084 66.0522 91.6589 72.9206 96.5795L82.8212 82.76ZM73.3712 70.61L89.0152 63.9568C87.8613 61.2436 87.0412 57.5263 87.0412 52.43H70.0412H53.0412C53.0412 61.1336 54.441 69.5364 57.7272 77.2632L73.3712 70.61ZM70.0412 52.43H87.0412C87.0412 47.2443 87.8706 43.5639 88.9872 40.9685L73.3712 34.25L57.7551 27.5315C54.4317 35.2561 53.0412 43.6957 53.0412 52.43H70.0412ZM73.3712 34.25L88.9872 40.9685C90.1539 38.2569 91.4557 36.8521 92.6317 36.0095L82.7312 22.19L72.8306 8.37048C65.9667 13.2879 61.0285 19.9231 57.7551 27.5315L73.3712 34.25ZM82.7312 22.19L92.6317 36.0095C93.5307 35.3655 94.6833 34.87 96.7712 34.87V17.87V0.869997C88.179 0.869997 79.9716 3.25452 72.8306 8.37048L82.7312 22.19ZM96.7712 17.87V34.87C99.0715 34.87 100.18 35.413 100.902 35.9385L110.901 22.19L120.9 8.44148C113.703 3.20704 105.391 0.869997 96.7712 0.869997V17.87ZM110.901 22.19L101.001 36.0095C102.172 36.8489 103.529 38.2984 104.772 41.1445L120.351 34.34L135.93 27.5355C132.613 19.9416 127.67 13.2911 120.802 8.37048L110.901 22.19ZM120.351 34.34L104.802 41.2108C105.937 43.7801 106.771 47.3809 106.771 52.43H123.771H140.771C140.771 43.6791 139.326 35.2199 135.901 27.4692L120.351 34.34ZM123.771 52.43H106.771C106.771 57.4723 105.939 61.1348 104.772 63.8055L120.351 70.61L135.93 77.4145C139.323 69.6452 140.771 61.1877 140.771 52.43H123.771ZM120.351 70.61L104.735 63.8915C103.559 66.625 102.221 68.1126 100.956 69.0381L110.991 82.76L121.027 96.4819C127.801 91.5274 132.703 84.915 135.967 77.3285L120.351 70.61ZM110.991 82.76L101.091 68.9405C100.225 69.5607 99.0534 70.08 96.8612 70.08V87.08V104.08C105.469 104.08 113.717 101.719 120.892 96.5795L110.991 82.76ZM96.9512 75.92V92.92C103.759 92.92 110.392 90.7327 115.874 86.0121L104.781 73.13L93.6883 60.2479C94.1491 59.8511 94.7724 59.4671 95.4976 59.2087C96.2054 58.9565 96.7389 58.92 96.9512 58.92V75.92ZM104.781 73.13L116.075 85.836C121.008 81.4512 124.056 75.9084 125.886 70.3222L109.731 65.03L93.5759 59.7378C93.3531 60.4181 93.1742 60.7327 93.1329 60.8004C93.1005 60.8533 93.1998 60.6793 93.487 60.424L104.781 73.13ZM109.731 65.03L125.831 70.4877C127.776 64.7522 128.531 58.6197 128.531 52.43H111.531H94.5312C94.5312 55.9603 94.0868 58.2278 93.6311 59.5723L109.731 65.03ZM111.531 52.43H128.531C128.531 46.2521 127.779 40.1089 125.803 34.3782L109.731 39.92L93.6598 45.4618C94.0837 46.6911 94.5312 48.8879 94.5312 52.43H111.531ZM109.731 39.92L125.913 34.709C124.066 28.9738 120.894 23.2171 115.609 18.7891L104.691 31.82L93.7734 44.8508C93.5822 44.6907 93.4375 44.5411 93.3356 44.4219C93.2348 44.3041 93.1875 44.2296 93.1822 44.2211C93.1761 44.2114 93.3358 44.4672 93.5495 45.131L109.731 39.92ZM104.691 31.82L115.784 18.9379C110.239 14.1628 103.548 12.03 96.7712 12.03V29.03V46.03C96.6263 46.03 96.133 46.0048 95.4428 45.7617C94.7305 45.5108 94.0911 45.1264 93.5983 44.7021L104.691 31.82ZM96.7712 29.03V12.03C89.932 12.03 83.3551 14.2734 77.9383 18.9379L89.0312 31.82L100.124 44.7021C99.6954 45.0712 99.0884 45.4544 98.351 45.7202C97.6263 45.9815 97.0522 46.03 96.7712 46.03V29.03ZM89.0312 31.82L77.9383 18.9379C72.8654 23.3062 69.7707 28.9173 67.8911 34.4623L83.9912 39.92L100.091 45.3777C100.344 44.633 100.541 44.2914 100.585 44.2211C100.619 44.1661 100.49 44.3869 100.124 44.7021L89.0312 31.82ZM83.9912 39.92L67.8359 34.6278C65.9873 40.271 65.2812 46.3235 65.2812 52.43H82.2812H99.2812C99.2812 48.8165 99.7151 46.529 100.146 45.2122L83.9912 39.92ZM82.2812 52.43H65.2812C65.2812 58.5129 65.996 64.5197 67.8095 70.151L83.9912 64.94L100.173 59.729C99.7063 58.2803 99.2812 55.9471 99.2812 52.43H82.2812ZM83.9912 64.94L67.9198 70.4818C69.8159 75.9805 72.8777 81.4266 77.737 85.746L89.0312 73.04L100.325 60.334C100.865 60.8134 100.566 60.8595 100.063 59.3982L83.9912 64.94ZM89.0312 73.04L77.9106 85.8982C83.3601 90.6112 89.9968 92.92 96.9512 92.92V75.92V58.92C97.2255 58.92 97.7843 58.9684 98.4858 59.2235C99.1977 59.4824 99.7672 59.8493 100.152 60.1818L89.0312 73.04ZM141.592 86H124.592C124.592 95.3888 132.203 103 141.592 103V86ZM141.592 29.39L158.592 29.39C158.592 20.0012 150.981 12.39 141.592 12.39V29.39ZM128.632 29.39H111.632C111.632 38.7788 119.243 46.39 128.632 46.39V29.39ZM128.632 18.95V1.94999C119.243 1.94999 111.632 9.56115 111.632 18.95H128.632ZM153.832 18.95H170.832C170.832 9.56115 163.221 1.94999 153.832 1.94999V18.95ZM153.832 86V103C163.221 103 170.832 95.3888 170.832 86H153.832ZM141.592 86H158.592V29.39L141.592 29.39H124.592V86H141.592ZM141.592 29.39V12.39H128.632V29.39V46.39H141.592V29.39ZM128.632 29.39L145.632 29.39V18.95H128.632H111.632V29.39H128.632ZM128.632 18.95V35.95L153.832 35.95V18.95V1.94999H128.632V18.95ZM153.832 18.95H136.832V86H153.832H170.832V18.95H153.832ZM153.832 86V69H141.592V86V103H153.832V86ZM173.772 84.2L165.365 98.9758C165.465 99.0327 165.566 99.0886 165.667 99.1435L173.772 84.2ZM165.582 76.28L150.936 84.9108C150.958 84.9494 150.981 84.988 151.004 85.0264L165.582 76.28ZM163.242 58.37L146.647 54.6822C146.614 54.8294 146.583 54.9771 146.554 55.1252L163.242 58.37ZM165.762 51.44L150.631 43.6901C150.581 43.7885 150.531 43.8874 150.483 43.9868L165.762 51.44ZM171.162 43.25L184.566 53.7055C184.587 53.6787 184.608 53.6517 184.629 53.6247L171.162 43.25ZM189.882 18.95V1.94999C184.608 1.94999 179.633 4.39751 176.415 8.57527L189.882 18.95ZM204.462 18.95L217.876 29.3927C221.866 24.2682 222.587 17.3187 219.735 11.4843C216.883 5.64984 210.956 1.94999 204.462 1.94999V18.95ZM181.692 48.2L169.16 59.6873C172.541 63.3759 177.376 65.3875 182.376 65.1862C187.375 64.9849 192.033 62.5912 195.106 58.6427L181.692 48.2ZM179.712 46.04L169.209 32.6726C165.487 35.5967 163.153 39.9398 162.768 44.657C162.383 49.3743 163.982 54.0384 167.18 57.5273L179.712 46.04ZM182.322 44.51L188.635 60.2941C188.931 60.176 189.223 60.0496 189.511 59.9151L182.322 44.51ZM185.022 43.61L181.889 26.9012C181.822 26.9138 181.755 26.9267 181.688 26.9401L185.022 43.61ZM198.882 46.13L190.299 60.8042L190.299 60.8042L198.882 46.13ZM206.352 53.78L191.491 62.0359C191.552 62.1456 191.614 62.2547 191.678 62.363L206.352 53.78ZM206.172 76.19L220.818 84.8208C220.84 84.7831 220.862 84.7454 220.884 84.7076L206.172 76.19ZM197.892 84.2L206.104 99.0848C206.133 99.0689 206.162 99.0529 206.19 99.0369L197.892 84.2ZM191.412 74.66L199.668 89.5207C199.727 89.4875 199.787 89.454 199.846 89.4201L191.412 74.66ZM195.372 70.61L180.706 62.0128C180.631 62.1401 180.558 62.2684 180.487 62.3977L195.372 70.61ZM195.372 58.91L180.612 67.3443C180.732 67.5548 180.857 67.7627 180.986 67.9678L195.372 58.91ZM176.292 58.91L161.76 50.0874C161.729 50.1392 161.698 50.1912 161.667 50.2434L176.292 58.91ZM176.292 70.61L161.407 78.8223C161.478 78.9516 161.551 79.0799 161.626 79.2072L176.292 70.61ZM180.342 74.66L171.907 89.4201C172.042 89.497 172.177 89.572 172.314 89.6452L180.342 74.66ZM185.922 87.08V70.08C183.813 70.08 182.615 69.6568 181.877 69.2565L173.772 84.2L165.667 99.1435C172.009 102.583 178.911 104.08 185.922 104.08V87.08ZM173.772 84.2L182.179 69.4242C181.133 68.8292 180.573 68.2233 180.159 67.5336L165.582 76.28L151.004 85.0264C154.551 90.9367 159.451 95.6108 165.365 98.9758L173.772 84.2ZM165.582 76.28L180.228 67.6492C179.929 67.1426 179.612 66.3634 179.612 64.85H162.612H145.612C145.612 71.8566 147.274 78.6974 150.936 84.9108L165.582 76.28ZM162.612 64.85H179.612C179.612 63.7994 179.713 62.7258 179.929 61.6148L163.242 58.37L146.554 55.1252C145.93 58.3342 145.612 61.5806 145.612 64.85H162.612ZM163.242 58.37L179.837 62.0578C179.969 61.4643 180.294 60.4244 181.041 58.8932L165.762 51.44L150.483 43.9868C148.83 47.3756 147.475 50.9557 146.647 54.6822L163.242 58.37ZM165.762 51.44L180.893 59.1899C181.52 57.9645 182.659 56.1512 184.566 53.7055L171.162 43.25L157.757 32.7945C154.985 36.3488 152.523 39.9955 150.631 43.6901L165.762 51.44ZM171.162 43.25L184.629 53.6247L203.349 29.3247L189.882 18.95L176.415 8.57527L157.695 32.8753L171.162 43.25ZM189.882 18.95V35.95H204.462V18.95V1.94999H189.882V18.95ZM204.462 18.95L191.047 8.50729L168.277 37.7573L181.692 48.2L195.106 58.6427L217.876 29.3927L204.462 18.95ZM181.692 48.2L194.223 36.7127L192.243 34.5527L179.712 46.04L167.18 57.5273L169.16 59.6873L181.692 48.2ZM179.712 46.04L190.215 59.4074C189.909 59.6474 189.385 59.9944 188.635 60.2941L182.322 44.51L176.008 28.7259C173.459 29.7456 171.194 31.1126 169.209 32.6726L179.712 46.04ZM182.322 44.51L189.511 59.9151C189.281 60.0224 188.891 60.1729 188.356 60.2799L185.022 43.61L181.688 26.9401C179.353 27.4071 177.163 28.1576 175.133 29.1049L182.322 44.51ZM185.022 43.61L188.155 60.3188C188.037 60.3409 187.977 60.34 187.992 60.34V43.34V26.34C185.967 26.34 183.927 26.5191 181.889 26.9012L185.022 43.61ZM187.992 43.34V60.34C189.388 60.34 189.996 60.6269 190.299 60.8042L198.882 46.13L207.465 31.4558C201.408 27.9131 194.756 26.34 187.992 26.34V43.34ZM198.882 46.13L190.299 60.8042C190.832 61.1161 191.161 61.4422 191.491 62.0359L206.352 53.78L221.212 45.5241C217.942 39.6378 213.292 34.8639 207.465 31.4558L198.882 46.13ZM206.352 53.78L191.678 62.363C191.877 62.7047 192.142 63.2931 192.142 64.58H209.142H226.142C226.142 57.8269 224.546 51.2153 221.026 45.197L206.352 53.78ZM209.142 64.58H192.142C192.142 66.1958 191.803 67.0783 191.46 67.6724L206.172 76.19L220.884 84.7076C224.5 78.4617 226.142 71.6042 226.142 64.58H209.142ZM206.172 76.19L191.526 67.5592C191.137 68.2185 190.615 68.7917 189.593 69.3631L197.892 84.2L206.19 99.0369C212.249 95.6483 217.246 90.8815 220.818 84.8208L206.172 76.19ZM197.892 84.2L189.679 69.3152C189.031 69.6727 187.935 70.08 185.922 70.08V87.08V104.08C192.909 104.08 199.792 102.567 206.104 99.0848L197.892 84.2ZM185.922 76.01V93.01C190.553 93.01 195.274 91.9617 199.668 89.5207L191.412 74.66L183.156 59.7993C183.688 59.5039 184.239 59.2936 184.765 59.1643C185.283 59.037 185.686 59.01 185.922 59.01V76.01ZM191.412 74.66L199.846 89.4201C204.313 86.8678 207.831 83.2181 210.257 78.8223L195.372 70.61L180.487 62.3977C180.708 61.9965 181.041 61.5192 181.507 61.0425C181.975 60.5636 182.484 60.1817 182.977 59.8999L191.412 74.66ZM195.372 70.61L210.038 79.2072C212.695 74.6747 213.902 69.7201 213.902 64.76H196.902H179.902C179.902 64.4918 179.935 64.067 180.072 63.541C180.212 63.0083 180.429 62.4854 180.706 62.0128L195.372 70.61ZM196.902 64.76H213.902C213.902 59.8938 212.788 54.6648 209.758 49.8522L195.372 58.91L180.986 67.9678C179.996 66.3952 179.902 65.0662 179.902 64.76H196.902ZM195.372 58.91L210.132 50.4756C207.753 46.3128 204.393 42.8287 200.168 40.325L191.502 54.95L182.835 69.575C182.393 69.3126 181.941 68.9664 181.526 68.5419C181.113 68.1191 180.814 67.6988 180.612 67.3443L195.372 58.91ZM191.502 54.95L200.168 40.325C195.631 37.6364 190.711 36.51 185.922 36.51V53.51V70.51C185.671 70.51 185.224 70.4804 184.644 70.3307C184.053 70.1783 183.432 69.9286 182.835 69.575L191.502 54.95ZM185.922 53.51V36.51C181.09 36.51 176.297 37.6815 171.907 40.1899L180.342 54.95L188.776 69.7101C188.312 69.9752 187.79 70.1899 187.245 70.3307C186.704 70.4703 186.246 70.51 185.922 70.51V53.51ZM180.342 54.95L171.907 40.1899C167.684 42.6034 164.252 45.9838 161.76 50.0874L176.292 58.91L190.823 67.7326C190.624 68.06 190.338 68.4395 189.954 68.8151C189.569 69.1917 189.161 69.4901 188.776 69.7101L180.342 54.95ZM176.292 58.91L161.667 50.2434C158.854 54.9898 157.852 60.0735 157.852 64.76H174.852H191.852C191.852 64.8865 191.809 66.0702 190.917 67.5766L176.292 58.91ZM174.852 64.76H157.852C157.852 69.5358 158.941 74.3522 161.407 78.8223L176.292 70.61L191.177 62.3977C191.425 62.8474 191.606 63.3214 191.719 63.7792C191.83 64.23 191.852 64.5733 191.852 64.76H174.852ZM176.292 70.61L161.626 79.2072C164.082 83.3977 167.536 86.922 171.907 89.4201L180.342 74.66L188.776 59.8999C189.23 60.1593 189.682 60.4988 190.09 60.9067C190.495 61.3117 190.777 61.7039 190.958 62.0128L176.292 70.61ZM180.342 74.66L172.314 89.6452C176.636 91.9604 181.283 93.01 185.922 93.01V76.01V59.01C186.16 59.01 186.532 59.0374 186.994 59.1492C187.462 59.2623 187.932 59.4403 188.37 59.6748L180.342 74.66Z" fill="#08262E" mask="url(#path-1-outside-1_1350_680)"/>
</svg>
