<svg width="229" height="105" viewBox="0 0 229 105" fill="none" xmlns="http://www.w3.org/2000/svg">
<mask id="path-1-outside-1_1350_680" maskUnits="userSpaceOnUse" x="0" y="0" width="229" height="105" fill="black">
<rect fill="white" width="229" height="105"/>
<path d="M18.14 86V76.73L36.32 57.74C39.92 53.96 42.68 50.96 44.6 48.74C46.58 46.46 47.96 44.51 48.74 42.89C49.52 41.27 49.91 39.62 49.91 37.94C49.91 35.12 49.01 32.9 47.21 31.28C45.47 29.66 43.22 28.85 40.46 28.85C37.58 28.85 35.09 29.69 32.99 31.37C30.89 32.99 29.36 35.39 28.4 38.57L17.69 35.24C18.41 31.7 19.88 28.64 22.1 26.06C24.32 23.42 27.02 21.41 30.2 20.03C33.44 18.59 36.86 17.87 40.46 17.87C44.78 17.87 48.56 18.65 51.8 20.21C55.1 21.77 57.65 23.96 59.45 26.78C61.31 29.6 62.24 32.9 62.24 36.68C62.24 39.08 61.79 41.45 60.89 43.79C59.99 46.13 58.64 48.53 56.84 50.99C55.04 53.39 52.7 56.09 49.82 59.09L34.07 75.65H63.14V86H18.14ZM96.8612 87.08C91.5212 87.08 86.8412 85.64 82.8212 82.76C78.8012 79.88 75.6512 75.83 73.3712 70.61C71.1512 65.39 70.0412 59.33 70.0412 52.43C70.0412 45.47 71.1512 39.41 73.3712 34.25C75.5912 29.09 78.7112 25.07 82.7312 22.19C86.7512 19.31 91.4312 17.87 96.7712 17.87C102.231 17.87 106.941 19.31 110.901 22.19C114.921 25.07 118.071 29.12 120.351 34.34C122.631 39.5 123.771 45.53 123.771 52.43C123.771 59.33 122.631 65.39 120.351 70.61C118.131 75.77 115.011 79.82 110.991 82.76C106.971 85.64 102.261 87.08 96.8612 87.08ZM96.9512 75.92C100.011 75.92 102.621 74.99 104.781 73.13C106.941 71.21 108.591 68.51 109.731 65.03C110.931 61.49 111.531 57.29 111.531 52.43C111.531 47.57 110.931 43.4 109.731 39.92C108.591 36.38 106.911 33.68 104.691 31.82C102.531 29.96 99.8912 29.03 96.7712 29.03C93.7712 29.03 91.1912 29.96 89.0312 31.82C86.8712 33.68 85.1912 36.38 83.9912 39.92C82.8512 43.4 82.2812 47.57 82.2812 52.43C82.2812 57.23 82.8512 61.4 83.9912 64.94C85.1912 68.42 86.8712 71.12 89.0312 73.04C91.2512 74.96 93.8912 75.92 96.9512 75.92ZM141.592 86V29.39H128.632V18.95H153.832V86H141.592ZM188.061 87.08C183.201 87.08 178.971 86.18 175.371 84.38C171.831 82.52 169.071 80.03 167.091 76.91C165.171 73.79 164.211 70.37 164.211 66.65C164.211 62.27 165.381 58.58 167.721 55.58C170.061 52.52 173.451 50.27 177.891 48.83L177.171 51.8C173.991 50.78 171.471 48.8 169.611 45.86C167.811 42.92 166.911 39.68 166.911 36.14C166.911 32.6 167.811 29.45 169.611 26.69C171.411 23.93 173.901 21.77 177.081 20.21C180.261 18.65 183.921 17.87 188.061 17.87C192.141 17.87 195.741 18.65 198.861 20.21C202.041 21.77 204.531 23.93 206.331 26.69C208.191 29.45 209.121 32.6 209.121 36.14C209.121 39.74 208.191 43.01 206.331 45.95C204.531 48.83 202.041 50.81 198.861 51.89L198.231 48.74C202.671 50.3 206.061 52.61 208.401 55.67C210.741 58.67 211.911 62.36 211.911 66.74C211.911 70.46 210.921 73.88 208.941 77C207.021 80.06 204.261 82.52 200.661 84.38C197.121 86.18 192.921 87.08 188.061 87.08ZM188.061 76.73C190.401 76.73 192.441 76.31 194.181 75.47C195.921 74.57 197.271 73.34 198.231 71.78C199.191 70.16 199.671 68.33 199.671 66.29C199.671 64.19 199.191 62.39 198.231 60.89C197.271 59.33 195.921 58.13 194.181 57.29C192.441 56.39 190.401 55.94 188.061 55.94C185.721 55.94 183.681 56.39 181.941 57.29C180.261 58.13 178.941 59.33 177.981 60.89C177.021 62.39 176.541 64.19 176.541 66.29C176.541 68.33 177.021 70.16 177.981 71.78C178.941 73.34 180.261 74.57 181.941 75.47C183.681 76.31 185.721 76.73 188.061 76.73ZM188.061 45.59C189.801 45.59 191.331 45.2 192.651 44.42C193.971 43.64 194.991 42.62 195.711 41.36C196.491 40.04 196.881 38.54 196.881 36.86C196.881 35.18 196.491 33.71 195.711 32.45C194.991 31.13 193.971 30.11 192.651 29.39C191.331 28.61 189.801 28.22 188.061 28.22C186.321 28.22 184.761 28.61 183.381 29.39C182.061 30.11 181.011 31.13 180.231 32.45C179.511 33.71 179.151 35.18 179.151 36.86C179.151 38.54 179.511 40.04 180.231 41.36C181.011 42.62 182.061 43.64 183.381 44.42C184.761 45.2 186.321 45.59 188.061 45.59Z"/>
</mask>
<path d="M18.14 86V76.73L36.32 57.74C39.92 53.96 42.68 50.96 44.6 48.74C46.58 46.46 47.96 44.51 48.74 42.89C49.52 41.27 49.91 39.62 49.91 37.94C49.91 35.12 49.01 32.9 47.21 31.28C45.47 29.66 43.22 28.85 40.46 28.85C37.58 28.85 35.09 29.69 32.99 31.37C30.89 32.99 29.36 35.39 28.4 38.57L17.69 35.24C18.41 31.7 19.88 28.64 22.1 26.06C24.32 23.42 27.02 21.41 30.2 20.03C33.44 18.59 36.86 17.87 40.46 17.87C44.78 17.87 48.56 18.65 51.8 20.21C55.1 21.77 57.65 23.96 59.45 26.78C61.31 29.6 62.24 32.9 62.24 36.68C62.24 39.08 61.79 41.45 60.89 43.79C59.99 46.13 58.64 48.53 56.84 50.99C55.04 53.39 52.7 56.09 49.82 59.09L34.07 75.65H63.14V86H18.14ZM96.8612 87.08C91.5212 87.08 86.8412 85.64 82.8212 82.76C78.8012 79.88 75.6512 75.83 73.3712 70.61C71.1512 65.39 70.0412 59.33 70.0412 52.43C70.0412 45.47 71.1512 39.41 73.3712 34.25C75.5912 29.09 78.7112 25.07 82.7312 22.19C86.7512 19.31 91.4312 17.87 96.7712 17.87C102.231 17.87 106.941 19.31 110.901 22.19C114.921 25.07 118.071 29.12 120.351 34.34C122.631 39.5 123.771 45.53 123.771 52.43C123.771 59.33 122.631 65.39 120.351 70.61C118.131 75.77 115.011 79.82 110.991 82.76C106.971 85.64 102.261 87.08 96.8612 87.08ZM96.9512 75.92C100.011 75.92 102.621 74.99 104.781 73.13C106.941 71.21 108.591 68.51 109.731 65.03C110.931 61.49 111.531 57.29 111.531 52.43C111.531 47.57 110.931 43.4 109.731 39.92C108.591 36.38 106.911 33.68 104.691 31.82C102.531 29.96 99.8912 29.03 96.7712 29.03C93.7712 29.03 91.1912 29.96 89.0312 31.82C86.8712 33.68 85.1912 36.38 83.9912 39.92C82.8512 43.4 82.2812 47.57 82.2812 52.43C82.2812 57.23 82.8512 61.4 83.9912 64.94C85.1912 68.42 86.8712 71.12 89.0312 73.04C91.2512 74.96 93.8912 75.92 96.9512 75.92ZM141.592 86V29.39H128.632V18.95H153.832V86H141.592ZM188.061 87.08C183.201 87.08 178.971 86.18 175.371 84.38C171.831 82.52 169.071 80.03 167.091 76.91C165.171 73.79 164.211 70.37 164.211 66.65C164.211 62.27 165.381 58.58 167.721 55.58C170.061 52.52 173.451 50.27 177.891 48.83L177.171 51.8C173.991 50.78 171.471 48.8 169.611 45.86C167.811 42.92 166.911 39.68 166.911 36.14C166.911 32.6 167.811 29.45 169.611 26.69C171.411 23.93 173.901 21.77 177.081 20.21C180.261 18.65 183.921 17.87 188.061 17.87C192.141 17.87 195.741 18.65 198.861 20.21C202.041 21.77 204.531 23.93 206.331 26.69C208.191 29.45 209.121 32.6 209.121 36.14C209.121 39.74 208.191 43.01 206.331 45.95C204.531 48.83 202.041 50.81 198.861 51.89L198.231 48.74C202.671 50.3 206.061 52.61 208.401 55.67C210.741 58.67 211.911 62.36 211.911 66.74C211.911 70.46 210.921 73.88 208.941 77C207.021 80.06 204.261 82.52 200.661 84.38C197.121 86.18 192.921 87.08 188.061 87.08ZM188.061 76.73C190.401 76.73 192.441 76.31 194.181 75.47C195.921 74.57 197.271 73.34 198.231 71.78C199.191 70.16 199.671 68.33 199.671 66.29C199.671 64.19 199.191 62.39 198.231 60.89C197.271 59.33 195.921 58.13 194.181 57.29C192.441 56.39 190.401 55.94 188.061 55.94C185.721 55.94 183.681 56.39 181.941 57.29C180.261 58.13 178.941 59.33 177.981 60.89C177.021 62.39 176.541 64.19 176.541 66.29C176.541 68.33 177.021 70.16 177.981 71.78C178.941 73.34 180.261 74.57 181.941 75.47C183.681 76.31 185.721 76.73 188.061 76.73ZM188.061 45.59C189.801 45.59 191.331 45.2 192.651 44.42C193.971 43.64 194.991 42.62 195.711 41.36C196.491 40.04 196.881 38.54 196.881 36.86C196.881 35.18 196.491 33.71 195.711 32.45C194.991 31.13 193.971 30.11 192.651 29.39C191.331 28.61 189.801 28.22 188.061 28.22C186.321 28.22 184.761 28.61 183.381 29.39C182.061 30.11 181.011 31.13 180.231 32.45C179.511 33.71 179.151 35.18 179.151 36.86C179.151 38.54 179.511 40.04 180.231 41.36C181.011 42.62 182.061 43.64 183.381 44.42C184.761 45.2 186.321 45.59 188.061 45.59Z" fill="white"/>
<path d="M18.14 86H1.14C1.14 95.3888 8.75116 103 18.14 103L18.14 86ZM18.14 76.73L5.86015 64.9739C2.83091 68.1381 1.14 72.3495 1.14 76.73H18.14ZM36.32 57.74L48.5999 69.4961C48.61 69.4854 48.6202 69.4748 48.6303 69.4641L36.32 57.74ZM44.6 48.74L31.7644 37.5933C31.7569 37.602 31.7494 37.6107 31.7418 37.6194L44.6 48.74ZM48.74 42.89L33.423 35.5151L33.423 35.5151L48.74 42.89ZM47.21 31.28L35.6259 43.7222C35.6959 43.7874 35.7665 43.852 35.8376 43.916L47.21 31.28ZM32.99 31.37L43.3737 44.8303C43.4529 44.7691 43.5316 44.7073 43.6098 44.6448L32.99 31.37ZM28.4 38.57L23.3526 54.8034C27.6812 56.1493 32.3681 55.7107 36.3718 53.585C40.3756 51.4593 43.3645 47.8227 44.6746 43.4831L28.4 38.57ZM17.69 35.24L1.03108 31.8517C-0.708182 40.4031 4.30969 48.8825 12.6426 51.4734L17.69 35.24ZM22.1 26.06L34.9862 37.1481C35.0281 37.0994 35.0698 37.0504 35.1112 37.0012L22.1 26.06ZM30.2 20.03L36.9676 35.6249C37.0133 35.605 37.0589 35.585 37.1044 35.5648L30.2 20.03ZM51.8 20.21L44.4251 35.527C44.4615 35.5446 44.498 35.562 44.5346 35.5792L51.8 20.21ZM59.45 26.78L45.1203 35.9266C45.166 35.9981 45.2121 36.0693 45.2589 36.1401L59.45 26.78ZM56.84 50.99L70.44 61.19C70.4802 61.1365 70.52 61.0827 70.5595 61.0287L56.84 50.99ZM49.82 59.09L37.5564 47.317C37.5381 47.336 37.5199 47.3551 37.5017 47.3742L49.82 59.09ZM34.07 75.65L21.7517 63.9342C17.0665 68.8604 15.7667 76.1041 18.4468 82.3519C21.1269 88.5997 27.2716 92.65 34.07 92.65V75.65ZM63.14 75.65H80.14C80.14 66.2612 72.5288 58.65 63.14 58.65L63.14 75.65ZM63.14 86V103C72.5288 103 80.14 95.3888 80.14 86H63.14ZM18.14 86H35.14V76.73H18.14H1.14V86H18.14ZM18.14 76.73L30.4199 88.4861L48.5999 69.4961L36.32 57.74L24.0401 45.9839L5.86015 64.9739L18.14 76.73ZM36.32 57.74L48.6303 69.4641C52.298 65.6131 55.2747 62.3852 57.4582 59.8606L44.6 48.74L31.7418 37.6194C30.0853 39.5348 27.542 42.3069 24.0097 46.0159L36.32 57.74ZM44.6 48.74L57.4356 59.8867C59.833 57.126 62.3271 53.8578 64.057 50.2649L48.74 42.89L33.423 35.5151C33.5525 35.2461 33.5522 35.3107 33.2434 35.7471C32.9497 36.1621 32.4769 36.7729 31.7644 37.5933L44.6 48.74ZM48.74 42.89L64.057 50.2649C65.8654 46.5091 66.91 42.3504 66.91 37.94H49.91H32.91C32.91 36.8896 33.1746 36.0309 33.423 35.5151L48.74 42.89ZM49.91 37.94H66.91C66.91 31.1719 64.5647 24.0281 58.5824 18.644L47.21 31.28L35.8376 43.916C34.8438 43.0216 34.0095 41.8521 33.4804 40.547C32.9758 39.3022 32.91 38.3379 32.91 37.94H49.91ZM47.21 31.28L58.7941 18.8378C53.4052 13.8205 46.7787 11.85 40.46 11.85V28.85V45.85C40.1746 45.85 39.4419 45.8063 38.4593 45.4526C37.4352 45.0839 36.4479 44.4875 35.6259 43.7222L47.21 31.28ZM40.46 28.85V11.85C34.0132 11.85 27.7059 13.8266 22.3702 18.0952L32.99 31.37L43.6098 44.6448C43.1468 45.0152 42.5465 45.3587 41.8666 45.5881C41.2009 45.8126 40.6913 45.85 40.46 45.85V28.85ZM32.99 31.37L22.6063 17.9097C17.0607 22.1877 13.849 27.9475 12.1254 33.6569L28.4 38.57L44.6746 43.4831C44.7777 43.1416 44.8002 43.2131 44.6024 43.5235C44.3878 43.86 43.9912 44.3539 43.3737 44.8303L32.99 31.37ZM28.4 38.57L33.4474 22.3366L22.7374 19.0066L17.69 35.24L12.6426 51.4734L23.3526 54.8034L28.4 38.57ZM17.69 35.24L34.3489 38.6283C34.5267 37.7544 34.7778 37.3903 34.9862 37.1481L22.1 26.06L9.21382 14.9719C4.98224 19.8897 2.29334 25.6456 1.03108 31.8517L17.69 35.24ZM22.1 26.06L35.1112 37.0012C35.6293 36.385 36.1883 35.963 36.9676 35.6249L30.2 20.03L23.4324 4.43513C17.8517 6.85696 13.0107 10.455 9.08884 15.1188L22.1 26.06ZM30.2 20.03L37.1044 35.5648C38.1367 35.106 39.201 34.87 40.46 34.87V17.87V0.869997C34.519 0.869997 28.7433 2.07401 23.2956 4.4952L30.2 20.03ZM40.46 17.87V34.87C42.7338 34.87 43.903 35.2756 44.4251 35.527L51.8 20.21L59.1749 4.89297C53.217 2.02439 46.8262 0.869997 40.46 0.869997V17.87ZM51.8 20.21L44.5346 35.5792C44.9267 35.7646 45.0848 35.8961 45.1116 35.9191C45.1286 35.9338 45.1296 35.9365 45.1228 35.9286C45.116 35.9208 45.1146 35.9176 45.1203 35.9266L59.45 26.78L73.7797 17.6334C70.1019 11.8715 64.9856 7.63938 59.0654 4.84077L51.8 20.21ZM59.45 26.78L45.2589 36.1401C45.2411 36.1132 45.2204 36.0768 45.2022 36.0368C45.1841 35.9971 45.1781 35.9751 45.1799 35.9813C45.1812 35.9859 45.24 36.1911 45.24 36.68H62.24H79.24C79.24 29.9821 77.5467 23.3412 73.6411 17.4199L59.45 26.78ZM62.24 36.68H45.24C45.24 36.9011 45.208 37.2066 45.0231 37.6874L60.89 43.79L76.7569 49.8926C78.372 45.6934 79.24 41.2589 79.24 36.68H62.24ZM60.89 43.79L45.0231 37.6874C44.7632 38.3632 44.2175 39.452 43.1205 40.9513L56.84 50.99L70.5595 61.0287C73.0625 57.608 75.2168 53.8968 76.7569 49.8926L60.89 43.79ZM56.84 50.99L43.24 40.79C41.9765 42.4747 40.1268 44.6394 37.5564 47.317L49.82 59.09L62.0836 70.863C65.2732 67.5405 68.1035 64.3053 70.44 61.19L56.84 50.99ZM49.82 59.09L37.5017 47.3742L21.7517 63.9342L34.07 75.65L46.3883 87.3658L62.1383 70.8058L49.82 59.09ZM34.07 75.65V92.65H63.14V75.65V58.65H34.07V75.65ZM63.14 75.65H46.14V86H63.14H80.14V75.65H63.14ZM63.14 86V69H18.14L18.14 86V103H63.14V86ZM82.8212 82.76L72.9206 96.5795L82.8212 82.76ZM73.3712 70.61L57.7272 77.2632C57.7487 77.3137 57.7704 77.3642 57.7924 77.4145L73.3712 70.61ZM73.3712 34.25L57.7551 27.5315L57.7551 27.5315L73.3712 34.25ZM82.7312 22.19L72.8306 8.37048L72.8306 8.37048L82.7312 22.19ZM110.901 22.19L100.902 35.9385C100.935 35.9623 100.968 35.986 101.001 36.0095L110.901 22.19ZM120.351 34.34L104.772 41.1445C104.782 41.1666 104.792 41.1887 104.802 41.2108L120.351 34.34ZM120.351 70.61L104.772 63.8055C104.76 63.8341 104.747 63.8628 104.735 63.8915L120.351 70.61ZM110.991 82.76L120.892 96.5795C120.937 96.5472 120.982 96.5147 121.027 96.4819L110.991 82.76ZM104.781 73.13L115.874 86.0121C115.942 85.9539 116.009 85.8952 116.075 85.836L104.781 73.13ZM109.731 65.03L93.6311 59.5723C93.6124 59.6274 93.594 59.6825 93.5759 59.7378L109.731 65.03ZM109.731 39.92L93.5495 45.131C93.5852 45.2417 93.6219 45.352 93.6598 45.4618L109.731 39.92ZM104.691 31.82L93.5983 44.7021C93.6563 44.7521 93.7147 44.8016 93.7734 44.8508L104.691 31.82ZM89.0312 31.82L77.9383 18.9379L77.9383 18.9379L89.0312 31.82ZM83.9912 39.92L67.8911 34.4623C67.8724 34.5174 67.854 34.5725 67.8359 34.6278L83.9912 39.92ZM83.9912 64.94L67.8095 70.151C67.8452 70.2617 67.8819 70.372 67.9198 70.4818L83.9912 64.94ZM89.0312 73.04L77.737 85.746C77.7945 85.7971 77.8524 85.8478 77.9106 85.8982L89.0312 73.04ZM96.8612 87.08V70.08C94.7734 70.08 93.6207 69.5845 92.7217 68.9405L82.8212 82.76L72.9206 96.5795C80.0616 101.695 88.269 104.08 96.8612 104.08V87.08ZM82.8212 82.76L92.7217 68.9405C91.5501 68.1011 90.1931 66.6516 88.95 63.8055L73.3712 70.61L57.7924 77.4145C61.1093 85.0084 66.0522 91.6589 72.9206 96.5795L82.8212 82.76ZM73.3712 70.61L89.0152 63.9568C87.8613 61.2436 87.0412 57.5263 87.0412 52.43H70.0412H53.0412C53.0412 61.1336 54.441 69.5364 57.7272 77.2632L73.3712 70.61ZM70.0412 52.43H87.0412C87.0412 47.2443 87.8706 43.5639 88.9872 40.9685L73.3712 34.25L57.7551 27.5315C54.4317 35.2561 53.0412 43.6957 53.0412 52.43H70.0412ZM73.3712 34.25L88.9872 40.9685C90.1539 38.2569 91.4557 36.8521 92.6317 36.0095L82.7312 22.19L72.8306 8.37048C65.9667 13.2879 61.0285 19.9231 57.7551 27.5315L73.3712 34.25ZM82.7312 22.19L92.6317 36.0095C93.5307 35.3655 94.6833 34.87 96.7712 34.87V17.87V0.869997C88.179 0.869997 79.9716 3.25452 72.8306 8.37048L82.7312 22.19ZM96.7712 17.87V34.87C99.0715 34.87 100.18 35.413 100.902 35.9385L110.901 22.19L120.9 8.44148C113.703 3.20704 105.391 0.869997 96.7712 0.869997V17.87ZM110.901 22.19L101.001 36.0095C102.172 36.8489 103.529 38.2984 104.772 41.1445L120.351 34.34L135.93 27.5355C132.613 19.9416 127.67 13.2911 120.802 8.37048L110.901 22.19ZM120.351 34.34L104.802 41.2108C105.937 43.7801 106.771 47.3809 106.771 52.43H123.771H140.771C140.771 43.6791 139.326 35.2199 135.901 27.4692L120.351 34.34ZM123.771 52.43H106.771C106.771 57.4723 105.939 61.1348 104.772 63.8055L120.351 70.61L135.93 77.4145C139.323 69.6452 140.771 61.1877 140.771 52.43H123.771ZM120.351 70.61L104.735 63.8915C103.559 66.625 102.221 68.1126 100.956 69.0381L110.991 82.76L121.027 96.4819C127.801 91.5274 132.703 84.915 135.967 77.3285L120.351 70.61ZM110.991 82.76L101.091 68.9405C100.225 69.5607 99.0534 70.08 96.8612 70.08V87.08V104.08C105.469 104.08 113.717 101.719 120.892 96.5795L110.991 82.76ZM96.9512 75.92V92.92C103.759 92.92 110.392 90.7327 115.874 86.0121L104.781 73.13L93.6883 60.2479C94.1491 59.8511 94.7724 59.4671 95.4976 59.2087C96.2054 58.9565 96.7389 58.92 96.9512 58.92V75.92ZM104.781 73.13L116.075 85.836C121.008 81.4512 124.056 75.9084 125.886 70.3222L109.731 65.03L93.5759 59.7378C93.3531 60.4181 93.1742 60.7327 93.1329 60.8004C93.1005 60.8533 93.1998 60.6793 93.487 60.424L104.781 73.13ZM109.731 65.03L125.831 70.4877C127.776 64.7522 128.531 58.6197 128.531 52.43H111.531H94.5312C94.5312 55.9603 94.0868 58.2278 93.6311 59.5723L109.731 65.03ZM111.531 52.43H128.531C128.531 46.2521 127.779 40.1089 125.803 34.3782L109.731 39.92L93.6598 45.4618C94.0837 46.6911 94.5312 48.8879 94.5312 52.43H111.531ZM109.731 39.92L125.913 34.709C124.066 28.9738 120.894 23.2171 115.609 18.7891L104.691 31.82L93.7734 44.8508C93.5822 44.6907 93.4375 44.5411 93.3356 44.4219C93.2348 44.3041 93.1875 44.2296 93.1822 44.2211C93.1761 44.2114 93.3358 44.4672 93.5495 45.131L109.731 39.92ZM104.691 31.82L115.784 18.9379C110.239 14.1628 103.548 12.03 96.7712 12.03V29.03V46.03C96.6263 46.03 96.133 46.0048 95.4428 45.7617C94.7305 45.5108 94.0911 45.1264 93.5983 44.7021L104.691 31.82ZM96.7712 29.03V12.03C89.932 12.03 83.3551 14.2734 77.9383 18.9379L89.0312 31.82L100.124 44.7021C99.6954 45.0712 99.0884 45.4544 98.351 45.7202C97.6263 45.9815 97.0522 46.03 96.7712 46.03V29.03ZM89.0312 31.82L77.9383 18.9379C72.8654 23.3062 69.7707 28.9173 67.8911 34.4623L83.9912 39.92L100.091 45.3777C100.344 44.633 100.541 44.2914 100.585 44.2211C100.619 44.1661 100.49 44.3869 100.124 44.7021L89.0312 31.82ZM83.9912 39.92L67.8359 34.6278C65.9873 40.271 65.2812 46.3235 65.2812 52.43H82.2812H99.2812C99.2812 48.8165 99.7151 46.529 100.146 45.2122L83.9912 39.92ZM82.2812 52.43H65.2812C65.2812 58.5129 65.996 64.5197 67.8095 70.151L83.9912 64.94L100.173 59.729C99.7063 58.2803 99.2812 55.9471 99.2812 52.43H82.2812ZM83.9912 64.94L67.9198 70.4818C69.8159 75.9805 72.8777 81.4266 77.737 85.746L89.0312 73.04L100.325 60.334C100.865 60.8134 100.566 60.8595 100.063 59.3982L83.9912 64.94ZM89.0312 73.04L77.9106 85.8982C83.3601 90.6112 89.9968 92.92 96.9512 92.92V75.92V58.92C97.2255 58.92 97.7843 58.9684 98.4858 59.2235C99.1977 59.4824 99.7672 59.8493 100.152 60.1818L89.0312 73.04ZM141.592 86H124.592C124.592 95.3888 132.203 103 141.592 103V86ZM141.592 29.39L158.592 29.39C158.592 20.0012 150.981 12.39 141.592 12.39V29.39ZM128.632 29.39H111.632C111.632 38.7788 119.243 46.39 128.632 46.39V29.39ZM128.632 18.95V1.94999C119.243 1.94999 111.632 9.56115 111.632 18.95H128.632ZM153.832 18.95H170.832C170.832 9.56115 163.221 1.94999 153.832 1.94999V18.95ZM153.832 86V103C163.221 103 170.832 95.3888 170.832 86H153.832ZM141.592 86H158.592V29.39L141.592 29.39H124.592V86H141.592ZM141.592 29.39V12.39H128.632V29.39V46.39H141.592V29.39ZM128.632 29.39L145.632 29.39V18.95H128.632H111.632V29.39H128.632ZM128.632 18.95V35.95L153.832 35.95V18.95V1.94999H128.632V18.95ZM153.832 18.95H136.832V86H153.832H170.832V18.95H153.832ZM153.832 86V69H141.592V86V103H153.832V86ZM175.371 84.38L167.464 99.4291C167.565 99.4822 167.666 99.5342 167.768 99.5853L175.371 84.38ZM167.091 76.91L152.613 85.8197C152.654 85.8864 152.695 85.9528 152.737 86.019L167.091 76.91ZM167.721 55.58L181.125 66.0355C181.159 65.9927 181.192 65.9498 181.225 65.9067L167.721 55.58ZM177.891 48.83L194.412 52.8352C195.863 46.8504 193.964 40.5488 189.447 36.3624C184.931 32.176 178.504 30.7594 172.646 32.6592L177.891 48.83ZM177.171 51.8L171.978 67.9877C176.476 69.4301 181.37 68.9368 185.489 66.626C189.608 64.3151 192.579 60.395 193.692 55.8052L177.171 51.8ZM169.611 45.86L155.112 54.7366C155.156 54.8077 155.2 54.8785 155.244 54.9489L169.611 45.86ZM169.611 26.69L183.85 35.9766L183.85 35.9765L169.611 26.69ZM177.081 20.21L184.568 35.4724L184.568 35.4724L177.081 20.21ZM198.861 20.21L191.258 35.4153C191.296 35.4345 191.335 35.4535 191.373 35.4724L198.861 20.21ZM206.331 26.69L192.091 35.9766C192.138 36.0482 192.185 36.1195 192.233 36.1905L206.331 26.69ZM206.331 45.95L191.964 36.8611C191.948 36.8874 191.931 36.9137 191.915 36.94L206.331 45.95ZM198.861 51.89L182.191 55.224C183.15 60.0218 186.131 64.1736 190.37 66.6175C194.608 69.0614 199.695 69.5604 204.328 67.987L198.861 51.89ZM198.231 48.74L203.866 32.7012C198.102 30.6761 191.695 31.8993 187.083 35.9052C182.471 39.911 180.363 46.0836 181.561 52.074L198.231 48.74ZM208.401 55.67L194.897 65.9967C194.93 66.0398 194.963 66.0827 194.996 66.1255L208.401 55.67ZM208.941 77L194.587 67.891C194.572 67.9155 194.556 67.9401 194.541 67.9647L208.941 77ZM200.661 84.38L208.366 99.5335C208.399 99.5169 208.431 99.5001 208.464 99.4832L200.661 84.38ZM194.181 75.47L201.571 90.7794C201.712 90.7114 201.852 90.6415 201.991 90.5697L194.181 75.47ZM198.231 71.78L212.709 80.6897C212.758 80.6091 212.807 80.5281 212.856 80.4466L198.231 71.78ZM198.231 60.89L183.753 69.7997C183.805 69.8849 183.858 69.9696 183.912 70.0539L198.231 60.89ZM194.181 57.29L186.37 72.3897C186.509 72.4615 186.649 72.5314 186.79 72.5994L194.181 57.29ZM181.941 57.29L189.543 72.4953C189.613 72.4605 189.682 72.4254 189.751 72.3897L181.941 57.29ZM177.981 60.89L192.299 70.0539C192.353 69.9696 192.406 69.8849 192.459 69.7997L177.981 60.89ZM177.981 71.78L163.356 80.4466C163.404 80.5281 163.453 80.6091 163.503 80.6897L177.981 71.78ZM181.941 75.47L173.913 90.4552C174.123 90.5677 174.335 90.6758 174.55 90.7794L181.941 75.47ZM192.651 44.42L201.299 59.0558L201.299 59.0557L192.651 44.42ZM195.711 41.36L181.075 32.7116C181.033 32.7826 180.992 32.854 180.951 32.9256L195.711 41.36ZM195.711 32.45L180.786 40.5905C180.936 40.8639 181.092 41.1332 181.256 41.398L195.711 32.45ZM192.651 29.39L184.002 44.0257C184.17 44.1248 184.339 44.221 184.51 44.3142L192.651 29.39ZM183.381 29.39L191.521 44.3142C191.596 44.2732 191.671 44.2317 191.746 44.1896L183.381 29.39ZM180.231 32.45L165.595 23.8016C165.553 23.8726 165.512 23.944 165.471 24.0156L180.231 32.45ZM180.231 41.36L165.306 49.5005C165.456 49.7739 165.612 50.0432 165.776 50.308L180.231 41.36ZM183.381 44.42L174.732 59.0557C174.826 59.1113 174.921 59.1659 175.016 59.2196L183.381 44.42ZM188.061 87.08V70.08C185.299 70.08 183.772 69.5743 182.973 69.1747L175.371 84.38L167.768 99.5853C174.169 102.786 181.102 104.08 188.061 104.08V87.08ZM175.371 84.38L183.278 69.3309C182.146 68.7361 181.702 68.207 181.444 67.801L167.091 76.91L152.737 86.019C156.439 91.853 161.515 96.3039 167.464 99.4291L175.371 84.38ZM167.091 76.91L181.569 68.0003C181.324 67.603 181.211 67.2753 181.211 66.65H164.211H147.211C147.211 73.4647 149.017 79.977 152.613 85.8197L167.091 76.91ZM164.211 66.65H181.211C181.211 65.9777 181.299 65.7166 181.293 65.7356C181.291 65.7416 181.276 65.7878 181.239 65.8576C181.202 65.9279 181.161 65.9899 181.125 66.0355L167.721 55.58L154.316 45.1245C149.302 51.5523 147.211 59.0811 147.211 66.65H164.211ZM167.721 55.58L181.225 65.9067C181.186 65.957 181.206 65.9029 181.419 65.7616C181.653 65.6061 182.174 65.3125 183.135 65.0008L177.891 48.83L172.646 32.6592C165.629 34.9349 159.062 38.9166 154.217 45.2533L167.721 55.58ZM177.891 48.83L161.369 44.8248L160.649 47.7948L177.171 51.8L193.692 55.8052L194.412 52.8352L177.891 48.83ZM177.171 51.8L182.363 35.6123C182.615 35.6931 183.004 35.8723 183.399 36.1826C183.786 36.4866 183.961 36.7454 183.977 36.7711L169.611 45.86L155.244 54.9489C159.139 61.1048 164.834 65.6961 171.978 67.9877L177.171 51.8ZM169.611 45.86L184.109 36.9834C183.991 36.7899 183.911 36.6358 183.911 36.14H166.911H149.911C149.911 42.7242 151.631 49.0501 155.112 54.7366L169.611 45.86ZM166.911 36.14H183.911C183.911 35.9764 183.921 35.8741 183.928 35.8247C183.934 35.7763 183.938 35.7688 183.932 35.7928C183.925 35.8173 183.912 35.8549 183.892 35.8973C183.873 35.9397 183.856 35.9674 183.85 35.9766L169.611 26.69L155.371 17.4034C151.635 23.1329 149.911 29.5586 149.911 36.14H166.911ZM169.611 26.69L183.85 35.9765C183.887 35.9203 183.916 35.8868 183.968 35.8416C184.026 35.7914 184.197 35.6543 184.568 35.4724L177.081 20.21L169.593 4.94758C163.879 7.75074 158.968 11.888 155.371 17.4034L169.611 26.69ZM177.081 20.21L184.568 35.4724C185.055 35.2335 186.08 34.87 188.061 34.87V17.87V0.869997C181.762 0.869997 175.466 2.06649 169.593 4.94758L177.081 20.21ZM188.061 17.87V34.87C189.948 34.87 190.868 35.2202 191.258 35.4153L198.861 20.21L206.463 5.00474C200.613 2.07977 194.333 0.869997 188.061 0.869997V17.87ZM198.861 20.21L191.373 35.4724C191.744 35.6543 191.916 35.7914 191.973 35.8416C192.026 35.8868 192.055 35.9203 192.091 35.9766L206.331 26.69L220.57 17.4034C216.973 11.888 212.062 7.75074 206.348 4.94758L198.861 20.21ZM206.331 26.69L192.233 36.1905C192.226 36.1794 192.204 36.1449 192.178 36.0904C192.152 36.0357 192.132 35.9816 192.119 35.9361C192.106 35.8912 192.105 35.8755 192.108 35.8988C192.112 35.9233 192.121 36.0006 192.121 36.14H209.121H226.121C226.121 29.4415 224.303 22.939 220.428 17.1895L206.331 26.69ZM209.121 36.14H192.121C192.121 36.46 192.082 36.6063 192.072 36.6421C192.063 36.6736 192.044 36.7354 191.964 36.8611L206.331 45.95L220.697 55.0389C224.339 49.2816 226.121 42.8399 226.121 36.14H209.121ZM206.331 45.95L191.915 36.94C191.97 36.8516 192.165 36.5816 192.533 36.289C192.902 35.9948 193.235 35.8468 193.394 35.793L198.861 51.89L204.328 67.987C211.264 65.6313 216.895 61.1223 220.747 54.96L206.331 45.95ZM198.861 51.89L215.531 48.556L214.901 45.406L198.231 48.74L181.561 52.074L182.191 55.224L198.861 51.89ZM198.231 48.74L192.595 64.7788C193.622 65.1396 194.22 65.4792 194.53 65.691C194.685 65.7962 194.776 65.8749 194.824 65.9198C194.871 65.9638 194.891 65.9889 194.897 65.9967L208.401 55.67L221.905 45.3433C217.148 39.1224 210.732 35.1135 203.866 32.7012L198.231 48.74ZM208.401 55.67L194.996 66.1255C194.961 66.0799 194.919 66.0179 194.882 65.9476C194.846 65.8778 194.83 65.8316 194.828 65.8256C194.822 65.8066 194.911 66.0677 194.911 66.74H211.911H228.911C228.911 59.1711 226.819 51.6423 221.805 45.2145L208.401 55.67ZM211.911 66.74H194.911C194.911 67.257 194.826 67.514 194.587 67.891L208.941 77L223.294 86.109C227.015 80.246 228.911 73.663 228.911 66.74H211.911ZM208.941 77L194.541 67.9647C194.427 68.1453 194.092 68.639 192.857 69.2768L200.661 84.38L208.464 99.4832C214.43 96.401 219.614 91.9747 223.341 86.0353L208.941 77ZM200.661 84.38L192.956 69.2265C192.278 69.5708 190.833 70.08 188.061 70.08V87.08V104.08C195.009 104.08 201.963 102.789 208.366 99.5335L200.661 84.38ZM188.061 76.73V93.73C192.428 93.73 197.091 92.9423 201.571 90.7794L194.181 75.47L186.79 60.1606C187.79 59.6777 188.373 59.73 188.061 59.73V76.73ZM194.181 75.47L201.991 90.5697C206.277 88.353 210.017 85.0642 212.709 80.6897L198.231 71.78L183.753 62.8703C184.104 62.2998 184.545 61.7656 185.049 61.3062C185.548 60.8517 186.017 60.553 186.371 60.3703L194.181 75.47ZM198.231 71.78L212.856 80.4466C215.499 75.9859 216.671 71.1169 216.671 66.29H199.671H182.671C182.671 65.9675 182.71 65.4777 182.867 64.8794C183.026 64.273 183.276 63.6694 183.606 63.1134L198.231 71.78ZM199.671 66.29H216.671C216.671 61.5333 215.554 56.4206 212.549 51.7261L198.231 60.89L183.912 70.0539C182.828 68.3594 182.671 66.8467 182.671 66.29H199.671ZM198.231 60.89L212.709 51.9803C209.951 47.4988 206.069 44.1516 201.571 41.9806L194.181 57.29L186.79 72.5994C186.343 72.3836 185.782 72.0402 185.204 71.526C184.62 71.0072 184.13 70.4136 183.753 69.7997L198.231 60.89ZM194.181 57.29L201.991 42.1903C197.41 39.8208 192.593 38.94 188.061 38.94V55.94V72.94C188.208 72.94 187.471 72.9592 186.37 72.3897L194.181 57.29ZM188.061 55.94V38.94C183.528 38.94 178.711 39.8208 174.131 42.1903L181.941 57.29L189.751 72.3897C188.65 72.9592 187.913 72.94 188.061 72.94V55.94ZM181.941 57.29L174.338 42.0847C169.9 44.3036 166.167 47.6507 163.503 51.9803L177.981 60.89L192.459 69.7997C192.125 70.3429 191.679 70.8962 191.126 71.399C190.575 71.8997 190.021 72.2562 189.543 72.4953L181.941 57.29ZM177.981 60.89L163.662 51.7261C160.658 56.4206 159.541 61.5333 159.541 66.29H176.541H193.541C193.541 66.8467 193.384 68.3594 192.299 70.0539L177.981 60.89ZM176.541 66.29H159.541C159.541 71.1169 160.712 75.9859 163.356 80.4466L177.981 71.78L192.606 63.1134C192.935 63.6694 193.185 64.273 193.344 64.8794C193.501 65.4777 193.541 65.9675 193.541 66.29H176.541ZM177.981 71.78L163.503 80.6897C166.103 84.9155 169.695 88.1958 173.913 90.4552L181.941 75.47L189.968 60.4848C190.348 60.6881 190.809 60.9962 191.28 61.4352C191.754 61.8769 192.151 62.3701 192.459 62.8703L177.981 71.78ZM181.941 75.47L174.55 90.7794C179.03 92.9423 183.693 93.73 188.061 93.73V76.73V59.73C187.748 59.73 188.331 59.6777 189.331 60.1606L181.941 75.47ZM188.061 45.59V62.59C192.425 62.59 197.022 61.5834 201.299 59.0558L192.651 44.42L184.002 29.7842C185.64 28.8166 187.177 28.59 188.061 28.59V45.59ZM192.651 44.42L201.299 59.0557C205.011 56.8623 208.203 53.7632 210.471 49.7944L195.711 41.36L180.951 32.9256C181.778 31.4768 182.93 30.4177 184.002 29.7842L192.651 44.42ZM195.711 41.36L210.346 50.0084C212.82 45.8223 213.881 41.2823 213.881 36.86H196.881H179.881C179.881 35.7977 180.161 34.2577 181.075 32.7116L195.711 41.36ZM196.881 36.86H213.881C213.881 32.4518 212.823 27.7958 210.165 23.502L195.711 32.45L181.256 41.398C180.158 39.6242 179.881 37.9082 179.881 36.86H196.881ZM195.711 32.45L210.635 24.3095C208.352 20.1239 204.977 16.7488 200.791 14.4658L192.651 29.39L184.51 44.3142C182.965 43.4712 181.63 42.1361 180.786 40.5905L195.711 32.45ZM192.651 29.39L201.299 14.7543C197.022 12.2266 192.425 11.22 188.061 11.22V28.22V45.22C187.177 45.22 185.64 44.9934 184.002 44.0257L192.651 29.39ZM188.061 28.22V11.22C183.683 11.22 179.192 12.2301 175.016 14.5904L183.381 29.39L191.746 44.1896C190.33 44.9899 188.958 45.22 188.061 45.22V28.22ZM183.381 29.39L175.24 14.4658C171.174 16.6839 167.902 19.897 165.595 23.8016L180.231 32.45L194.866 41.0984C194.119 42.363 192.948 43.5361 191.521 44.3142L183.381 29.39ZM180.231 32.45L165.471 24.0156C163.065 28.2249 162.151 32.6932 162.151 36.86H179.151H196.151C196.151 37.6668 195.956 39.1951 194.991 40.8844L180.231 32.45ZM179.151 36.86H162.151C162.151 41.0448 163.071 45.4013 165.306 49.5005L180.231 41.36L195.155 33.2195C195.951 34.6787 196.151 36.0352 196.151 36.86H179.151ZM180.231 41.36L165.776 50.308C168.054 53.988 171.13 56.9274 174.732 59.0557L183.381 44.42L192.029 29.7843C192.991 30.3526 193.967 31.252 194.685 32.412L180.231 41.36ZM183.381 44.42L175.016 59.2196C179.192 61.5799 183.683 62.59 188.061 62.59V45.59V28.59C188.958 28.59 190.33 28.8201 191.746 29.6204L183.381 44.42Z" fill="#08262E" mask="url(#path-1-outside-1_1350_680)"/>
</svg>
