<svg xmlns="http://www.w3.org/2000/svg" width="226" height="104" viewBox="0 0 226 104" fill="none">
    <mask id="path-1-outside-1_1340_323" maskUnits="userSpaceOnUse" x="0.0175781" y="-0.458984" width="226" height="105" fill="black">
        <rect fill="white" x="0.0175781" y="-0.458984" width="226" height="105"/>
        <path d="M18.1576 85.541V76.271L36.3376 57.281C39.9376 53.501 42.6976 50.501 44.6176 48.281C46.5976 46.001 47.9776 44.051 48.7576 42.431C49.5376 40.811 49.9276 39.161 49.9276 37.481C49.9276 34.661 49.0276 32.441 47.2276 30.821C45.4876 29.201 43.2376 28.391 40.4776 28.391C37.5976 28.391 35.1076 29.231 33.0076 30.911C30.9076 32.531 29.3776 34.931 28.4176 38.111L17.7076 34.781C18.4276 31.241 19.8976 28.181 22.1176 25.601C24.3376 22.961 27.0376 20.951 30.2176 19.571C33.4576 18.131 36.8776 17.411 40.4776 17.411C44.7976 17.411 48.5776 18.191 51.8176 19.751C55.1176 21.311 57.6676 23.501 59.4676 26.321C61.3276 29.141 62.2576 32.441 62.2576 36.221C62.2576 38.621 61.8076 40.991 60.9076 43.331C60.0076 45.671 58.6576 48.071 56.8576 50.531C55.0576 52.931 52.7176 55.631 49.8376 58.631L34.0876 75.191H63.1576V85.541H18.1576ZM96.8787 86.621C91.5388 86.621 86.8588 85.181 82.8388 82.301C78.8188 79.421 75.6688 75.371 73.3887 70.151C71.1687 64.931 70.0587 58.871 70.0587 51.971C70.0587 45.011 71.1687 38.951 73.3887 33.791C75.6087 28.631 78.7288 24.611 82.7488 21.731C86.7687 18.851 91.4487 17.411 96.7888 17.411C102.249 17.411 106.959 18.851 110.919 21.731C114.939 24.611 118.089 28.661 120.369 33.881C122.649 39.041 123.789 45.071 123.789 51.971C123.789 58.871 122.649 64.931 120.369 70.151C118.149 75.311 115.029 79.361 111.009 82.301C106.989 85.181 102.279 86.621 96.8787 86.621ZM96.9688 75.461C100.029 75.461 102.639 74.531 104.799 72.671C106.959 70.751 108.609 68.051 109.749 64.571C110.949 61.031 111.549 56.831 111.549 51.971C111.549 47.111 110.949 42.941 109.749 39.461C108.609 35.921 106.929 33.221 104.709 31.361C102.549 29.501 99.9088 28.571 96.7888 28.571C93.7887 28.571 91.2088 29.501 89.0488 31.361C86.8888 33.221 85.2087 35.921 84.0088 39.461C82.8687 42.941 82.2987 47.111 82.2987 51.971C82.2987 56.771 82.8687 60.941 84.0088 64.481C85.2087 67.961 86.8888 70.661 89.0488 72.581C91.2688 74.501 93.9088 75.461 96.9688 75.461ZM141.609 85.541V28.931H128.649V18.491H153.849V85.541H141.609ZM163.778 85.541V76.271L181.958 57.281C185.558 53.501 188.318 50.501 190.238 48.281C192.218 46.001 193.598 44.051 194.378 42.431C195.158 40.811 195.548 39.161 195.548 37.481C195.548 34.661 194.648 32.441 192.848 30.821C191.108 29.201 188.858 28.391 186.098 28.391C183.218 28.391 180.728 29.231 178.628 30.911C176.528 32.531 174.998 34.931 174.038 38.111L163.328 34.781C164.048 31.241 165.518 28.181 167.738 25.601C169.958 22.961 172.658 20.951 175.838 19.571C179.078 18.131 182.498 17.411 186.098 17.411C190.418 17.411 194.198 18.191 197.438 19.751C200.738 21.311 203.288 23.501 205.088 26.321C206.948 29.141 207.878 32.441 207.878 36.221C207.878 38.621 207.428 40.991 206.528 43.331C205.628 45.671 204.278 48.071 202.478 50.531C200.678 52.931 198.338 55.631 195.458 58.631L179.708 75.191H208.778V85.541H163.778Z"/>
    </mask>
    <path d="M18.1576 85.541V76.271L36.3376 57.281C39.9376 53.501 42.6976 50.501 44.6176 48.281C46.5976 46.001 47.9776 44.051 48.7576 42.431C49.5376 40.811 49.9276 39.161 49.9276 37.481C49.9276 34.661 49.0276 32.441 47.2276 30.821C45.4876 29.201 43.2376 28.391 40.4776 28.391C37.5976 28.391 35.1076 29.231 33.0076 30.911C30.9076 32.531 29.3776 34.931 28.4176 38.111L17.7076 34.781C18.4276 31.241 19.8976 28.181 22.1176 25.601C24.3376 22.961 27.0376 20.951 30.2176 19.571C33.4576 18.131 36.8776 17.411 40.4776 17.411C44.7976 17.411 48.5776 18.191 51.8176 19.751C55.1176 21.311 57.6676 23.501 59.4676 26.321C61.3276 29.141 62.2576 32.441 62.2576 36.221C62.2576 38.621 61.8076 40.991 60.9076 43.331C60.0076 45.671 58.6576 48.071 56.8576 50.531C55.0576 52.931 52.7176 55.631 49.8376 58.631L34.0876 75.191H63.1576V85.541H18.1576ZM96.8787 86.621C91.5388 86.621 86.8588 85.181 82.8388 82.301C78.8188 79.421 75.6688 75.371 73.3887 70.151C71.1687 64.931 70.0587 58.871 70.0587 51.971C70.0587 45.011 71.1687 38.951 73.3887 33.791C75.6087 28.631 78.7288 24.611 82.7488 21.731C86.7687 18.851 91.4487 17.411 96.7888 17.411C102.249 17.411 106.959 18.851 110.919 21.731C114.939 24.611 118.089 28.661 120.369 33.881C122.649 39.041 123.789 45.071 123.789 51.971C123.789 58.871 122.649 64.931 120.369 70.151C118.149 75.311 115.029 79.361 111.009 82.301C106.989 85.181 102.279 86.621 96.8787 86.621ZM96.9688 75.461C100.029 75.461 102.639 74.531 104.799 72.671C106.959 70.751 108.609 68.051 109.749 64.571C110.949 61.031 111.549 56.831 111.549 51.971C111.549 47.111 110.949 42.941 109.749 39.461C108.609 35.921 106.929 33.221 104.709 31.361C102.549 29.501 99.9088 28.571 96.7888 28.571C93.7887 28.571 91.2088 29.501 89.0488 31.361C86.8888 33.221 85.2087 35.921 84.0088 39.461C82.8687 42.941 82.2987 47.111 82.2987 51.971C82.2987 56.771 82.8687 60.941 84.0088 64.481C85.2087 67.961 86.8888 70.661 89.0488 72.581C91.2688 74.501 93.9088 75.461 96.9688 75.461ZM141.609 85.541V28.931H128.649V18.491H153.849V85.541H141.609ZM163.778 85.541V76.271L181.958 57.281C185.558 53.501 188.318 50.501 190.238 48.281C192.218 46.001 193.598 44.051 194.378 42.431C195.158 40.811 195.548 39.161 195.548 37.481C195.548 34.661 194.648 32.441 192.848 30.821C191.108 29.201 188.858 28.391 186.098 28.391C183.218 28.391 180.728 29.231 178.628 30.911C176.528 32.531 174.998 34.931 174.038 38.111L163.328 34.781C164.048 31.241 165.518 28.181 167.738 25.601C169.958 22.961 172.658 20.951 175.838 19.571C179.078 18.131 182.498 17.411 186.098 17.411C190.418 17.411 194.198 18.191 197.438 19.751C200.738 21.311 203.288 23.501 205.088 26.321C206.948 29.141 207.878 32.441 207.878 36.221C207.878 38.621 207.428 40.991 206.528 43.331C205.628 45.671 204.278 48.071 202.478 50.531C200.678 52.931 198.338 55.631 195.458 58.631L179.708 75.191H208.778V85.541H163.778Z" fill="white"/>
    <path d="M18.1576 85.541H1.15758C1.15758 94.9299 8.76874 102.541 18.1576 102.541L18.1576 85.541ZM18.1576 76.271L5.87772 64.5149C2.84849 67.6792 1.15758 71.8905 1.15758 76.271H18.1576ZM36.3376 57.281L48.6174 69.0371C48.6276 69.0265 48.6378 69.0158 48.6479 69.0052L36.3376 57.281ZM44.6176 48.281L31.782 37.1343C31.7745 37.143 31.7669 37.1517 31.7594 37.1604L44.6176 48.281ZM48.7576 42.431L33.4406 35.0561L33.4405 35.0562L48.7576 42.431ZM47.2276 30.821L35.6435 43.2632C35.7135 43.3284 35.7841 43.393 35.8552 43.457L47.2276 30.821ZM33.0076 30.911L43.3912 44.3713C43.4705 44.3102 43.5492 44.2483 43.6274 44.1858L33.0076 30.911ZM28.4176 38.111L23.3702 54.3444C27.6988 55.6903 32.3857 55.2517 36.3894 53.126C40.3931 51.0003 43.3821 47.3637 44.6922 43.0241L28.4176 38.111ZM17.7076 34.781L1.04865 31.3928C-0.690604 39.9441 4.32727 48.4235 12.6602 51.0144L17.7076 34.781ZM22.1176 25.601L35.0038 36.6891C35.0457 36.6404 35.0874 36.5914 35.1287 36.5422L22.1176 25.601ZM30.2176 19.571L36.9852 35.1659C37.0308 35.1461 37.0764 35.126 37.1219 35.1058L30.2176 19.571ZM51.8176 19.751L44.4427 35.068C44.4791 35.0856 44.5156 35.103 44.5521 35.1202L51.8176 19.751ZM59.4676 26.321L45.1379 35.4676C45.1835 35.5391 45.2297 35.6103 45.2764 35.6811L59.4676 26.321ZM56.8576 50.531L70.4576 60.731C70.4977 60.6775 70.5376 60.6237 70.5771 60.5697L56.8576 50.531ZM49.8376 58.631L37.574 46.858C37.5557 46.877 37.5375 46.8961 37.5193 46.9152L49.8376 58.631ZM34.0876 75.191L21.7693 63.4752C17.0841 68.4014 15.7843 75.6452 18.4644 81.8929C21.1445 88.1407 27.2892 92.191 34.0876 92.191V75.191ZM63.1576 75.191H80.1576C80.1576 65.8022 72.5464 58.191 63.1576 58.191L63.1576 75.191ZM63.1576 85.541V102.541C72.5464 102.541 80.1576 94.9299 80.1576 85.541H63.1576ZM18.1576 85.541H35.1576V76.271H18.1576H1.15758V85.541H18.1576ZM18.1576 76.271L30.4374 88.0271L48.6174 69.0371L36.3376 57.281L24.0577 45.5249L5.87772 64.5149L18.1576 76.271ZM36.3376 57.281L48.6479 69.0052C52.3156 65.1541 55.2923 61.9262 57.4758 59.4016L44.6176 48.281L31.7594 37.1604C30.1029 39.0758 27.5596 41.8479 24.0272 45.5569L36.3376 57.281ZM44.6176 48.281L57.4531 59.4277C59.8506 56.667 62.3447 53.3989 64.0746 49.8059L48.7576 42.431L33.4405 35.0562C33.5701 34.7871 33.5698 34.8518 33.261 35.2881C32.9673 35.7031 32.4945 36.3139 31.782 37.1343L44.6176 48.281ZM48.7576 42.431L64.0746 49.8059C65.8829 46.0501 66.9276 41.8914 66.9276 37.481H49.9276H32.9276C32.9276 36.4306 33.1922 35.5719 33.4406 35.0561L48.7576 42.431ZM49.9276 37.481H66.9276C66.9276 30.713 64.5823 23.5691 58.6 18.185L47.2276 30.821L35.8552 43.457C34.8614 42.5626 34.0271 41.3931 33.498 40.088C32.9934 38.8433 32.9276 37.879 32.9276 37.481H49.9276ZM47.2276 30.821L58.8117 18.3788C53.4227 13.3615 46.7963 11.391 40.4776 11.391V28.391V45.391C40.1922 45.391 39.4595 45.3474 38.4768 44.9936C37.4528 44.6249 36.4655 44.0285 35.6435 43.2632L47.2276 30.821ZM40.4776 28.391V11.391C34.0308 11.391 27.7235 13.3677 22.3878 17.6362L33.0076 30.911L43.6274 44.1858C43.1643 44.5562 42.5641 44.8997 41.8841 45.1291C41.2185 45.3537 40.7088 45.391 40.4776 45.391V28.391ZM33.0076 30.911L22.6239 17.4507C17.0783 21.7288 13.8666 27.4885 12.143 33.1979L28.4176 38.111L44.6922 43.0241C44.7952 42.6826 44.8178 42.7541 44.6199 43.0645C44.4054 43.401 44.0088 43.8949 43.3912 44.3713L33.0076 30.911ZM28.4176 38.111L33.4649 21.8776L22.7549 18.5476L17.7076 34.781L12.6602 51.0144L23.3702 54.3444L28.4176 38.111ZM17.7076 34.781L34.3665 38.1693C34.5442 37.2954 34.7953 36.9314 35.0038 36.6891L22.1176 25.601L9.2314 14.5129C4.99982 19.4307 2.31092 25.1866 1.04865 31.3928L17.7076 34.781ZM22.1176 25.601L35.1287 36.5422C35.6469 35.926 36.2059 35.5041 36.9852 35.1659L30.2176 19.571L23.45 3.97615C17.8693 6.39797 13.0283 9.99601 9.10642 14.6598L22.1176 25.601ZM30.2176 19.571L37.1219 35.1058C38.1542 34.647 39.2186 34.411 40.4776 34.411V17.411V0.411013C34.5366 0.411013 28.7609 1.61502 23.3132 4.03621L30.2176 19.571ZM40.4776 17.411V34.411C42.7514 34.411 43.9205 34.8166 44.4427 35.068L51.8176 19.751L59.1925 4.43399C53.2346 1.5654 46.8437 0.411013 40.4776 0.411013V17.411ZM51.8176 19.751L44.5521 35.1202C44.9443 35.3056 45.1023 35.4371 45.1291 35.4602C45.1462 35.4748 45.1472 35.4775 45.1404 35.4697C45.1335 35.4618 45.1322 35.4586 45.1379 35.4676L59.4676 26.321L73.7973 17.1744C70.1195 11.4125 65.0032 7.18039 59.083 4.38178L51.8176 19.751ZM59.4676 26.321L45.2764 35.6811C45.2587 35.6543 45.238 35.6178 45.2198 35.5778C45.2017 35.5381 45.1957 35.5162 45.1974 35.5223C45.1987 35.5269 45.2576 35.7321 45.2576 36.221H62.2576H79.2576C79.2576 29.5231 77.5642 22.8822 73.6587 16.9609L59.4676 26.321ZM62.2576 36.221H45.2576C45.2576 36.4421 45.2256 36.7477 45.0407 37.2284L60.9076 43.331L76.7745 49.4337C78.3896 45.2344 79.2576 40.7999 79.2576 36.221H62.2576ZM60.9076 43.331L45.0407 37.2284C44.7808 37.9042 44.2351 38.993 43.1381 40.4923L56.8576 50.531L70.5771 60.5697C73.08 57.149 75.2344 53.4378 76.7745 49.4337L60.9076 43.331ZM56.8576 50.531L43.2576 40.331C41.994 42.0157 40.1444 44.1805 37.574 46.858L49.8376 58.631L62.1012 70.4041C65.2908 67.0816 68.1211 63.8463 70.4576 60.731L56.8576 50.531ZM49.8376 58.631L37.5193 46.9152L21.7693 63.4752L34.0876 75.191L46.4059 86.9068L62.1559 70.3468L49.8376 58.631ZM34.0876 75.191V92.191H63.1576V75.191V58.191H34.0876V75.191ZM63.1576 75.191H46.1576V85.541H63.1576H80.1576V75.191H63.1576ZM63.1576 85.541V68.541H18.1576L18.1576 85.541V102.541H63.1576V85.541ZM82.8388 82.301L72.9382 96.1205L82.8388 82.301ZM73.3887 70.151L57.7447 76.8042C57.7662 76.8548 57.788 76.9052 57.81 76.9555L73.3887 70.151ZM73.3887 33.791L57.7727 27.0725L57.7727 27.0725L73.3887 33.791ZM82.7488 21.731L72.8482 7.91149L72.8482 7.9115L82.7488 21.731ZM110.919 21.731L100.92 35.4795C100.953 35.5033 100.985 35.527 101.018 35.5505L110.919 21.731ZM120.369 33.881L104.79 40.6855C104.8 40.7076 104.809 40.7297 104.819 40.7518L120.369 33.881ZM120.369 70.151L104.79 63.3465C104.777 63.3751 104.765 63.4038 104.753 63.4325L120.369 70.151ZM111.009 82.301L120.909 96.1205C120.954 96.0882 120.999 96.0557 121.044 96.0229L111.009 82.301ZM104.799 72.671L115.892 85.5531C115.959 85.4949 116.026 85.4362 116.093 85.377L104.799 72.671ZM109.749 64.571L93.6486 59.1133C93.63 59.1684 93.6116 59.2235 93.5935 59.2788L109.749 64.571ZM109.749 39.461L93.5671 44.672C93.6028 44.7827 93.6395 44.893 93.6774 45.0029L109.749 39.461ZM104.709 31.361L93.6159 44.2431C93.6739 44.2931 93.7323 44.3427 93.791 44.3919L104.709 31.361ZM89.0488 31.361L77.9559 18.4789L77.9559 18.4789L89.0488 31.361ZM84.0088 39.461L67.9086 34.0033C67.89 34.0584 67.8716 34.1135 67.8535 34.1688L84.0088 39.461ZM84.0088 64.481L67.8271 69.692C67.8628 69.8027 67.8995 69.913 67.9374 70.0229L84.0088 64.481ZM89.0488 72.581L77.7546 85.287C77.8121 85.3381 77.87 85.3888 77.9282 85.4392L89.0488 72.581ZM96.8787 86.621V69.621C94.7909 69.621 93.6383 69.1255 92.7393 68.4815L82.8388 82.301L72.9382 96.1205C80.0792 101.236 88.2866 103.621 96.8787 103.621V86.621ZM82.8388 82.301L92.7393 68.4815C91.5677 67.6421 90.2107 66.1926 88.9675 63.3465L73.3887 70.151L57.81 76.9555C61.1268 84.5494 66.0698 91.1999 72.9382 96.1205L82.8388 82.301ZM73.3887 70.151L89.0328 63.4978C87.8789 60.7847 87.0587 57.0674 87.0587 51.971H70.0587H53.0587C53.0587 60.6747 54.4586 69.0774 57.7447 76.8042L73.3887 70.151ZM70.0587 51.971H87.0587C87.0587 46.7853 87.8882 43.1049 89.0048 40.5095L73.3887 33.791L57.7727 27.0725C54.4493 34.7971 53.0587 43.2367 53.0587 51.971H70.0587ZM73.3887 33.791L89.0048 40.5096C90.1715 37.7979 91.4732 36.3931 92.6493 35.5505L82.7488 21.731L72.8482 7.9115C65.9843 12.8289 61.046 19.4641 57.7727 27.0725L73.3887 33.791ZM82.7488 21.731L92.6493 35.5505C93.5483 34.9065 94.7009 34.411 96.7888 34.411V17.411V0.411013C88.1966 0.411013 79.9892 2.79554 72.8482 7.91149L82.7488 21.731ZM96.7888 17.411V34.411C99.089 34.411 100.197 34.954 100.92 35.4795L110.919 21.731L120.918 7.98249C113.72 2.74805 105.408 0.411013 96.7888 0.411013V17.411ZM110.919 21.731L101.018 35.5505C102.19 36.3899 103.547 37.8394 104.79 40.6855L120.369 33.881L135.948 27.0765C132.631 19.4826 127.688 12.8321 120.819 7.9115L110.919 21.731ZM120.369 33.881L104.819 40.7518C105.954 43.3211 106.789 46.9219 106.789 51.971H123.789H140.789C140.789 43.2201 139.343 34.7609 135.918 27.0102L120.369 33.881ZM123.789 51.971H106.789C106.789 57.0133 105.956 60.6758 104.79 63.3465L120.369 70.151L135.948 76.9555C139.341 69.1862 140.789 60.7287 140.789 51.971H123.789ZM120.369 70.151L104.753 63.4325C103.577 66.166 102.239 67.6536 100.973 68.5791L111.009 82.301L121.044 96.0229C127.819 91.0684 132.721 84.456 135.985 76.8696L120.369 70.151ZM111.009 82.301L101.108 68.4815C100.242 69.1017 99.071 69.621 96.8787 69.621V86.621V103.621C105.487 103.621 113.735 101.26 120.909 96.1205L111.009 82.301ZM96.9688 75.461V92.461C103.776 92.461 110.41 90.2737 115.892 85.5531L104.799 72.671L93.7059 59.7889C94.1667 59.3921 94.7899 59.0082 95.5152 58.7497C96.223 58.4975 96.7564 58.461 96.9688 58.461V75.461ZM104.799 72.671L116.093 85.377C121.026 80.9922 124.074 75.4495 125.904 69.8633L109.749 64.571L93.5935 59.2788C93.3706 59.9591 93.1918 60.2737 93.1505 60.3414C93.1181 60.3943 93.2174 60.2203 93.5046 59.9651L104.799 72.671ZM109.749 64.571L125.849 70.0287C127.793 64.2932 128.549 58.1607 128.549 51.971H111.549H94.5488C94.5488 55.5014 94.1044 57.7688 93.6486 59.1133L109.749 64.571ZM111.549 51.971H128.549C128.549 45.7931 127.796 39.6499 125.82 33.9192L109.749 39.461L93.6774 45.0029C94.1013 46.2321 94.5488 48.4289 94.5488 51.971H111.549ZM109.749 39.461L125.93 34.25C124.083 28.5148 120.911 22.7581 115.626 18.3302L104.709 31.361L93.791 44.3919C93.5998 44.2317 93.455 44.0821 93.3531 43.963C93.2524 43.8452 93.2051 43.7706 93.1998 43.7621C93.1937 43.7524 93.3533 44.0082 93.5671 44.672L109.749 39.461ZM104.709 31.361L115.802 18.4789C110.256 13.7038 103.566 11.571 96.7888 11.571V28.571V45.571C96.6439 45.571 96.1506 45.5459 95.4603 45.3027C94.7481 45.0518 94.1087 44.6674 93.6159 44.2431L104.709 31.361ZM96.7888 28.571V11.571C89.9496 11.571 83.3727 13.8145 77.9559 18.4789L89.0488 31.361L100.142 44.2431C99.713 44.6122 99.1059 44.9954 98.3686 45.2612C97.6438 45.5225 97.0698 45.571 96.7888 45.571V28.571ZM89.0488 31.361L77.9559 18.4789C72.883 22.8473 69.7883 28.4583 67.9086 34.0033L84.0088 39.461L100.109 44.9187C100.361 44.174 100.559 43.8324 100.603 43.7621C100.637 43.7072 100.508 43.928 100.142 44.2431L89.0488 31.361ZM84.0088 39.461L67.8535 34.1688C66.0048 39.8121 65.2987 45.8645 65.2987 51.971H82.2987H99.2987C99.2987 48.3575 99.7327 46.07 100.164 44.7533L84.0088 39.461ZM82.2987 51.971H65.2987C65.2987 58.0539 66.0136 64.0607 67.8271 69.692L84.0088 64.481L100.19 59.27C99.7239 57.8214 99.2987 55.4881 99.2987 51.971H82.2987ZM84.0088 64.481L67.9374 70.0229C69.8335 75.5215 72.8953 80.9676 77.7546 85.287L89.0488 72.581L100.343 59.8751C100.882 60.3544 100.584 60.4005 100.08 58.9392L84.0088 64.481ZM89.0488 72.581L77.9282 85.4392C83.3777 90.1523 90.0144 92.461 96.9688 92.461V75.461V58.461C97.2431 58.461 97.8019 58.5094 98.5034 58.7645C99.2153 59.0234 99.7848 59.3903 100.169 59.7228L89.0488 72.581ZM141.609 85.541H124.609C124.609 94.9299 132.221 102.541 141.609 102.541V85.541ZM141.609 28.931L158.609 28.931C158.609 19.5422 150.998 11.931 141.609 11.931V28.931ZM128.649 28.931H111.649C111.649 38.3199 119.261 45.931 128.649 45.931V28.931ZM128.649 18.491V1.49101C119.261 1.49101 111.649 9.10217 111.649 18.491H128.649ZM153.849 18.491H170.849C170.849 9.10217 163.238 1.49101 153.849 1.49101V18.491ZM153.849 85.541V102.541C163.238 102.541 170.849 94.9299 170.849 85.541H153.849ZM141.609 85.541H158.609V28.931L141.609 28.931H124.609V85.541H141.609ZM141.609 28.931V11.931H128.649V28.931V45.931H141.609V28.931ZM128.649 28.931L145.649 28.931V18.491H128.649H111.649V28.931H128.649ZM128.649 18.491V35.491L153.849 35.491V18.491V1.49101H128.649V18.491ZM153.849 18.491H136.849V85.541H153.849H170.849V18.491H153.849ZM153.849 85.541V68.541H141.609V85.541V102.541H153.849V85.541ZM163.778 85.541H146.778C146.778 94.9299 154.389 102.541 163.778 102.541V85.541ZM163.778 76.271L151.498 64.5149C148.469 67.6792 146.778 71.8905 146.778 76.271H163.778ZM181.958 57.281L194.238 69.0371C194.248 69.0265 194.258 69.0158 194.269 69.0052L181.958 57.281ZM190.238 48.281L177.403 37.1343C177.395 37.143 177.388 37.1517 177.38 37.1604L190.238 48.281ZM194.378 42.431L179.061 35.0561L179.061 35.0562L194.378 42.431ZM192.848 30.821L181.264 43.2632C181.334 43.3284 181.405 43.393 181.476 43.457L192.848 30.821ZM178.628 30.911L189.012 44.3713C189.091 44.3102 189.17 44.2483 189.248 44.1858L178.628 30.911ZM174.038 38.111L168.991 54.3444C173.32 55.6903 178.006 55.2517 182.01 53.126C186.014 51.0003 189.003 47.3637 190.313 43.0241L174.038 38.111ZM163.328 34.781L146.669 31.3928C144.93 39.9441 149.948 48.4235 158.281 51.0144L163.328 34.781ZM167.738 25.601L180.624 36.6891C180.666 36.6404 180.708 36.5914 180.749 36.5422L167.738 25.601ZM175.838 19.571L182.606 35.1659C182.652 35.1461 182.697 35.126 182.743 35.1058L175.838 19.571ZM197.438 19.751L190.063 35.068C190.1 35.0856 190.136 35.103 190.173 35.1202L197.438 19.751ZM205.088 26.321L190.759 35.4676C190.804 35.5391 190.85 35.6103 190.897 35.6811L205.088 26.321ZM202.478 50.531L216.078 60.731C216.118 60.6775 216.158 60.6237 216.198 60.5697L202.478 50.531ZM195.458 58.631L183.195 46.858C183.176 46.877 183.158 46.8961 183.14 46.9152L195.458 58.631ZM179.708 75.191L167.39 63.4752C162.705 68.4014 161.405 75.6452 164.085 81.8929C166.765 88.1407 172.91 92.191 179.708 92.191V75.191ZM208.778 75.191H225.778C225.778 65.8022 218.167 58.191 208.778 58.191V75.191ZM208.778 85.541V102.541C218.167 102.541 225.778 94.9299 225.778 85.541H208.778ZM163.778 85.541H180.778V76.271H163.778H146.778V85.541H163.778ZM163.778 76.271L176.058 88.0271L194.238 69.0371L181.958 57.281L169.678 45.5249L151.498 64.5149L163.778 76.271ZM181.958 57.281L194.269 69.0052C197.936 65.1541 200.913 61.9262 203.096 59.4016L190.238 48.281L177.38 37.1604C175.724 39.0758 173.18 41.8479 169.648 45.5569L181.958 57.281ZM190.238 48.281L203.074 59.4277C205.471 56.667 207.965 53.3989 209.695 49.8059L194.378 42.431L179.061 35.0562C179.191 34.7871 179.19 34.8518 178.882 35.2881C178.588 35.7031 178.115 36.3139 177.403 37.1343L190.238 48.281ZM194.378 42.431L209.695 49.8059C211.504 46.0501 212.548 41.8914 212.548 37.481H195.548H178.548C178.548 36.4306 178.813 35.5719 179.061 35.0561L194.378 42.431ZM195.548 37.481H212.548C212.548 30.713 210.203 23.5691 204.221 18.185L192.848 30.821L181.476 43.457C180.482 42.5626 179.648 41.3931 179.119 40.088C178.614 38.8433 178.548 37.879 178.548 37.481H195.548ZM192.848 30.821L204.432 18.3788C199.043 13.3615 192.417 11.391 186.098 11.391V28.391V45.391C185.813 45.391 185.08 45.3474 184.098 44.9936C183.073 44.6249 182.086 44.0285 181.264 43.2632L192.848 30.821ZM186.098 28.391V11.391C179.651 11.391 173.344 13.3677 168.008 17.6362L178.628 30.911L189.248 44.1858C188.785 44.5562 188.185 44.8997 187.505 45.1291C186.839 45.3537 186.33 45.391 186.098 45.391V28.391ZM178.628 30.911L168.245 17.4507C162.699 21.7288 159.487 27.4885 157.764 33.1979L174.038 38.111L190.313 43.0241C190.416 42.6826 190.439 42.7541 190.241 43.0645C190.026 43.401 189.629 43.8949 189.012 44.3713L178.628 30.911ZM174.038 38.111L179.086 21.8776L168.376 18.5476L163.328 34.781L158.281 51.0144L168.991 54.3444L174.038 38.111ZM163.328 34.781L179.987 38.1693C180.165 37.2954 180.416 36.9314 180.624 36.6891L167.738 25.601L154.852 14.5129C150.621 19.4307 147.932 25.1866 146.669 31.3928L163.328 34.781ZM167.738 25.601L180.749 36.5422C181.268 35.926 181.827 35.5041 182.606 35.1659L175.838 19.571L169.071 3.97615C163.49 6.39797 158.649 9.99601 154.727 14.6598L167.738 25.601ZM175.838 19.571L182.743 35.1058C183.775 34.647 184.839 34.411 186.098 34.411V17.411V0.411013C180.157 0.411013 174.382 1.61502 168.934 4.03621L175.838 19.571ZM186.098 17.411V34.411C188.372 34.411 189.541 34.8166 190.063 35.068L197.438 19.751L204.813 4.43399C198.855 1.5654 192.464 0.411013 186.098 0.411013V17.411ZM197.438 19.751L190.173 35.1202C190.565 35.3056 190.723 35.4371 190.75 35.4602C190.767 35.4748 190.768 35.4775 190.761 35.4697C190.754 35.4618 190.753 35.4586 190.759 35.4676L205.088 26.321L219.418 17.1744C215.74 11.4125 210.624 7.18039 204.704 4.38178L197.438 19.751ZM205.088 26.321L190.897 35.6811C190.879 35.6543 190.859 35.6178 190.84 35.5778C190.822 35.5381 190.816 35.5162 190.818 35.5223C190.819 35.5269 190.878 35.7321 190.878 36.221H207.878H224.878C224.878 29.5231 223.185 22.8822 219.279 16.9609L205.088 26.321ZM207.878 36.221H190.878C190.878 36.4421 190.846 36.7477 190.661 37.2284L206.528 43.331L222.395 49.4337C224.01 45.2344 224.878 40.7999 224.878 36.221H207.878ZM206.528 43.331L190.661 37.2284C190.401 37.9042 189.856 38.993 188.759 40.4923L202.478 50.531L216.198 60.5697C218.701 57.149 220.855 53.4378 222.395 49.4337L206.528 43.331ZM202.478 50.531L188.878 40.331C187.615 42.0157 185.765 44.1805 183.195 46.858L195.458 58.631L207.722 70.4041C210.911 67.0816 213.742 63.8463 216.078 60.731L202.478 50.531ZM195.458 58.631L183.14 46.9152L167.39 63.4752L179.708 75.191L192.027 86.9068L207.777 70.3468L195.458 58.631ZM179.708 75.191V92.191H208.778V75.191V58.191H179.708V75.191ZM208.778 75.191H191.778V85.541H208.778H225.778V75.191H208.778ZM208.778 85.541V68.541H163.778V85.541V102.541H208.778V85.541Z" fill="#08262E" mask="url(#path-1-outside-1_1340_323)"/>
</svg>