<svg width="255" height="105" viewBox="0 0 255 105" fill="none" xmlns="http://www.w3.org/2000/svg">
<mask id="path-1-outside-1_1350_680" maskUnits="userSpaceOnUse" x="0" y="0" width="255" height="105" fill="black">
<rect fill="white" width="255" height="105"/>
<path d="M18.14 86V76.73L36.32 57.74C39.92 53.96 42.68 50.96 44.6 48.74C46.58 46.46 47.96 44.51 48.74 42.89C49.52 41.27 49.91 39.62 49.91 37.94C49.91 35.12 49.01 32.9 47.21 31.28C45.47 29.66 43.22 28.85 40.46 28.85C37.58 28.85 35.09 29.69 32.99 31.37C30.89 32.99 29.36 35.39 28.4 38.57L17.69 35.24C18.41 31.7 19.88 28.64 22.1 26.06C24.32 23.42 27.02 21.41 30.2 20.03C33.44 18.59 36.86 17.87 40.46 17.87C44.78 17.87 48.56 18.65 51.8 20.21C55.1 21.77 57.65 23.96 59.45 26.78C61.31 29.6 62.24 32.9 62.24 36.68C62.24 39.08 61.79 41.45 60.89 43.79C59.99 46.13 58.64 48.53 56.84 50.99C55.04 53.39 52.7 56.09 49.82 59.09L34.07 75.65H63.14V86H18.14ZM96.8612 87.08C91.5212 87.08 86.8412 85.64 82.8212 82.76C78.8012 79.88 75.6512 75.83 73.3712 70.61C71.1512 65.39 70.0412 59.33 70.0412 52.43C70.0412 45.47 71.1512 39.41 73.3712 34.25C75.5912 29.09 78.7112 25.07 82.7312 22.19C86.7512 19.31 91.4312 17.87 96.7712 17.87C102.231 17.87 106.941 19.31 110.901 22.19C114.921 25.07 118.071 29.12 120.351 34.34C122.631 39.5 123.771 45.53 123.771 52.43C123.771 59.33 122.631 65.39 120.351 70.61C118.131 75.77 115.011 79.82 110.991 82.76C106.971 85.64 102.261 87.08 96.8612 87.08ZM96.9512 75.92C100.011 75.92 102.621 74.99 104.781 73.13C106.941 71.21 108.591 68.51 109.731 65.03C110.931 61.49 111.531 57.29 111.531 52.43C111.531 47.57 110.931 43.4 109.731 39.92C108.591 36.38 106.911 33.68 104.691 31.82C102.531 29.96 99.8912 29.03 96.7712 29.03C93.7712 29.03 91.1912 29.96 89.0312 31.82C86.8712 33.68 85.1912 36.38 83.9912 39.92C82.8512 43.4 82.2812 47.57 82.2812 52.43C82.2812 57.23 82.8512 61.4 83.9912 64.94C85.1912 68.42 86.8712 71.12 89.0312 73.04C91.2512 74.96 93.8912 75.92 96.9512 75.92ZM152.392 87.08C148.732 87.08 145.252 86.42 141.952 85.1C138.712 83.72 135.922 81.8 133.582 79.34C131.302 76.82 129.742 73.85 128.902 70.43L139.612 66.65C140.692 69.71 142.342 72.05 144.562 73.67C146.782 75.23 149.392 76.01 152.392 76.01C154.792 76.01 156.862 75.56 158.602 74.66C160.402 73.76 161.812 72.47 162.832 70.79C163.852 69.05 164.362 67.01 164.362 64.67C164.362 62.33 163.852 60.35 162.832 58.73C161.872 57.05 160.492 55.76 158.692 54.86C156.892 53.96 154.762 53.51 152.302 53.51C151.162 53.51 149.962 53.63 148.702 53.87C147.502 54.11 146.422 54.47 145.462 54.95L142.672 49.1L160.042 29.3L132.682 29.3V18.95H173.812V28.58L156.352 49.01L156.532 44.42C160.552 44.48 164.062 45.35 167.062 47.03C170.062 48.71 172.402 51.02 174.082 53.96C175.762 56.9 176.602 60.35 176.602 64.31C176.602 68.63 175.552 72.53 173.452 76.01C171.352 79.43 168.472 82.13 164.812 84.11C161.152 86.09 157.012 87.08 152.392 87.08ZM210.201 87.08C204.861 87.08 200.181 85.64 196.161 82.76C192.141 79.88 188.991 75.83 186.711 70.61C184.491 65.39 183.381 59.33 183.381 52.43C183.381 45.47 184.491 39.41 186.711 34.25C188.931 29.09 192.051 25.07 196.071 22.19C200.091 19.31 204.771 17.87 210.111 17.87C215.571 17.87 220.281 19.31 224.241 22.19C228.261 25.07 231.411 29.12 233.691 34.34C235.971 39.5 237.111 45.53 237.111 52.43C237.111 59.33 235.971 65.39 233.691 70.61C231.471 75.77 228.351 79.82 224.331 82.76C220.311 85.64 215.601 87.08 210.201 87.08ZM210.291 75.92C213.351 75.92 215.961 74.99 218.121 73.13C220.281 71.21 221.931 68.51 223.071 65.03C224.271 61.49 224.871 57.29 224.871 52.43C224.871 47.57 224.271 43.4 223.071 39.92C221.931 36.38 220.251 33.68 218.031 31.82C215.871 29.96 213.231 29.03 210.111 29.03C207.111 29.03 204.531 29.96 202.371 31.82C200.211 33.68 198.531 36.38 197.331 39.92C196.191 43.4 195.621 47.57 195.621 52.43C195.621 57.23 196.191 61.4 197.331 64.94C198.531 68.42 200.211 71.12 202.371 73.04C204.591 74.96 207.231 75.92 210.291 75.92Z"/>
</mask>
<path d="M18.14 86V76.73L36.32 57.74C39.92 53.96 42.68 50.96 44.6 48.74C46.58 46.46 47.96 44.51 48.74 42.89C49.52 41.27 49.91 39.62 49.91 37.94C49.91 35.12 49.01 32.9 47.21 31.28C45.47 29.66 43.22 28.85 40.46 28.85C37.58 28.85 35.09 29.69 32.99 31.37C30.89 32.99 29.36 35.39 28.4 38.57L17.69 35.24C18.41 31.7 19.88 28.64 22.1 26.06C24.32 23.42 27.02 21.41 30.2 20.03C33.44 18.59 36.86 17.87 40.46 17.87C44.78 17.87 48.56 18.65 51.8 20.21C55.1 21.77 57.65 23.96 59.45 26.78C61.31 29.6 62.24 32.9 62.24 36.68C62.24 39.08 61.79 41.45 60.89 43.79C59.99 46.13 58.64 48.53 56.84 50.99C55.04 53.39 52.7 56.09 49.82 59.09L34.07 75.65H63.14V86H18.14ZM96.8612 87.08C91.5212 87.08 86.8412 85.64 82.8212 82.76C78.8012 79.88 75.6512 75.83 73.3712 70.61C71.1512 65.39 70.0412 59.33 70.0412 52.43C70.0412 45.47 71.1512 39.41 73.3712 34.25C75.5912 29.09 78.7112 25.07 82.7312 22.19C86.7512 19.31 91.4312 17.87 96.7712 17.87C102.231 17.87 106.941 19.31 110.901 22.19C114.921 25.07 118.071 29.12 120.351 34.34C122.631 39.5 123.771 45.53 123.771 52.43C123.771 59.33 122.631 65.39 120.351 70.61C118.131 75.77 115.011 79.82 110.991 82.76C106.971 85.64 102.261 87.08 96.8612 87.08ZM96.9512 75.92C100.011 75.92 102.621 74.99 104.781 73.13C106.941 71.21 108.591 68.51 109.731 65.03C110.931 61.49 111.531 57.29 111.531 52.43C111.531 47.57 110.931 43.4 109.731 39.92C108.591 36.38 106.911 33.68 104.691 31.82C102.531 29.96 99.8912 29.03 96.7712 29.03C93.7712 29.03 91.1912 29.96 89.0312 31.82C86.8712 33.68 85.1912 36.38 83.9912 39.92C82.8512 43.4 82.2812 47.57 82.2812 52.43C82.2812 57.23 82.8512 61.4 83.9912 64.94C85.1912 68.42 86.8712 71.12 89.0312 73.04C91.2512 74.96 93.8912 75.92 96.9512 75.92ZM152.392 87.08C148.732 87.08 145.252 86.42 141.952 85.1C138.712 83.72 135.922 81.8 133.582 79.34C131.302 76.82 129.742 73.85 128.902 70.43L139.612 66.65C140.692 69.71 142.342 72.05 144.562 73.67C146.782 75.23 149.392 76.01 152.392 76.01C154.792 76.01 156.862 75.56 158.602 74.66C160.402 73.76 161.812 72.47 162.832 70.79C163.852 69.05 164.362 67.01 164.362 64.67C164.362 62.33 163.852 60.35 162.832 58.73C161.872 57.05 160.492 55.76 158.692 54.86C156.892 53.96 154.762 53.51 152.302 53.51C151.162 53.51 149.962 53.63 148.702 53.87C147.502 54.11 146.422 54.47 145.462 54.95L142.672 49.1L160.042 29.3L132.682 29.3V18.95H173.812V28.58L156.352 49.01L156.532 44.42C160.552 44.48 164.062 45.35 167.062 47.03C170.062 48.71 172.402 51.02 174.082 53.96C175.762 56.9 176.602 60.35 176.602 64.31C176.602 68.63 175.552 72.53 173.452 76.01C171.352 79.43 168.472 82.13 164.812 84.11C161.152 86.09 157.012 87.08 152.392 87.08ZM210.201 87.08C204.861 87.08 200.181 85.64 196.161 82.76C192.141 79.88 188.991 75.83 186.711 70.61C184.491 65.39 183.381 59.33 183.381 52.43C183.381 45.47 184.491 39.41 186.711 34.25C188.931 29.09 192.051 25.07 196.071 22.19C200.091 19.31 204.771 17.87 210.111 17.87C215.571 17.87 220.281 19.31 224.241 22.19C228.261 25.07 231.411 29.12 233.691 34.34C235.971 39.5 237.111 45.53 237.111 52.43C237.111 59.33 235.971 65.39 233.691 70.61C231.471 75.77 228.351 79.82 224.331 82.76C220.311 85.64 215.601 87.08 210.201 87.08ZM210.291 75.92C213.351 75.92 215.961 74.99 218.121 73.13C220.281 71.21 221.931 68.51 223.071 65.03C224.271 61.49 224.871 57.29 224.871 52.43C224.871 47.57 224.271 43.4 223.071 39.92C221.931 36.38 220.251 33.68 218.031 31.82C215.871 29.96 213.231 29.03 210.111 29.03C207.111 29.03 204.531 29.96 202.371 31.82C200.211 33.68 198.531 36.38 197.331 39.92C196.191 43.4 195.621 47.57 195.621 52.43C195.621 57.23 196.191 61.4 197.331 64.94C198.531 68.42 200.211 71.12 202.371 73.04C204.591 74.96 207.231 75.92 210.291 75.92Z" fill="white"/>
<path d="M18.14 86H1.14C1.14 95.3888 8.75116 103 18.14 103L18.14 86ZM18.14 76.73L5.86015 64.9739C2.83091 68.1381 1.14 72.3495 1.14 76.73H18.14ZM36.32 57.74L48.5999 69.4961C48.61 69.4854 48.6202 69.4748 48.6303 69.4641L36.32 57.74ZM44.6 48.74L31.7644 37.5933C31.7569 37.602 31.7494 37.6107 31.7418 37.6194L44.6 48.74ZM48.74 42.89L33.423 35.5151L33.423 35.5151L48.74 42.89ZM47.21 31.28L35.6259 43.7222C35.6959 43.7874 35.7665 43.852 35.8376 43.916L47.21 31.28ZM32.99 31.37L43.3737 44.8303C43.4529 44.7691 43.5316 44.7073 43.6098 44.6448L32.99 31.37ZM28.4 38.57L23.3526 54.8034C27.6812 56.1493 32.3681 55.7107 36.3718 53.585C40.3756 51.4593 43.3645 47.8227 44.6746 43.4831L28.4 38.57ZM17.69 35.24L1.03108 31.8517C-0.708182 40.4031 4.30969 48.8825 12.6426 51.4734L17.69 35.24ZM22.1 26.06L34.9862 37.1481C35.0281 37.0994 35.0698 37.0504 35.1112 37.0012L22.1 26.06ZM30.2 20.03L36.9676 35.6249C37.0133 35.605 37.0589 35.585 37.1044 35.5648L30.2 20.03ZM51.8 20.21L44.4251 35.527C44.4615 35.5446 44.498 35.562 44.5346 35.5792L51.8 20.21ZM59.45 26.78L45.1203 35.9266C45.166 35.9981 45.2121 36.0693 45.2589 36.1401L59.45 26.78ZM56.84 50.99L70.44 61.19C70.4802 61.1365 70.52 61.0827 70.5595 61.0287L56.84 50.99ZM49.82 59.09L37.5564 47.317C37.5381 47.336 37.5199 47.3551 37.5017 47.3742L49.82 59.09ZM34.07 75.65L21.7517 63.9342C17.0665 68.8604 15.7667 76.1041 18.4468 82.3519C21.1269 88.5997 27.2716 92.65 34.07 92.65V75.65ZM63.14 75.65H80.14C80.14 66.2612 72.5288 58.65 63.14 58.65L63.14 75.65ZM63.14 86V103C72.5288 103 80.14 95.3888 80.14 86H63.14ZM18.14 86H35.14V76.73H18.14H1.14V86H18.14ZM18.14 76.73L30.4199 88.4861L48.5999 69.4961L36.32 57.74L24.0401 45.9839L5.86015 64.9739L18.14 76.73ZM36.32 57.74L48.6303 69.4641C52.298 65.6131 55.2747 62.3852 57.4582 59.8606L44.6 48.74L31.7418 37.6194C30.0853 39.5348 27.542 42.3069 24.0097 46.0159L36.32 57.74ZM44.6 48.74L57.4356 59.8867C59.833 57.126 62.3271 53.8578 64.057 50.2649L48.74 42.89L33.423 35.5151C33.5525 35.2461 33.5522 35.3107 33.2434 35.7471C32.9497 36.1621 32.4769 36.7729 31.7644 37.5933L44.6 48.74ZM48.74 42.89L64.057 50.2649C65.8654 46.5091 66.91 42.3504 66.91 37.94H49.91H32.91C32.91 36.8896 33.1746 36.0309 33.423 35.5151L48.74 42.89ZM49.91 37.94H66.91C66.91 31.1719 64.5647 24.0281 58.5824 18.644L47.21 31.28L35.8376 43.916C34.8438 43.0216 34.0095 41.8521 33.4804 40.547C32.9758 39.3022 32.91 38.3379 32.91 37.94H49.91ZM47.21 31.28L58.7941 18.8378C53.4052 13.8205 46.7787 11.85 40.46 11.85V28.85V45.85C40.1746 45.85 39.4419 45.8063 38.4593 45.4526C37.4352 45.0839 36.4479 44.4875 35.6259 43.7222L47.21 31.28ZM40.46 28.85V11.85C34.0132 11.85 27.7059 13.8266 22.3702 18.0952L32.99 31.37L43.6098 44.6448C43.1468 45.0152 42.5465 45.3587 41.8666 45.5881C41.2009 45.8126 40.6913 45.85 40.46 45.85V28.85ZM32.99 31.37L22.6063 17.9097C17.0607 22.1877 13.849 27.9475 12.1254 33.6569L28.4 38.57L44.6746 43.4831C44.7777 43.1416 44.8002 43.2131 44.6024 43.5235C44.3878 43.86 43.9912 44.3539 43.3737 44.8303L32.99 31.37ZM28.4 38.57L33.4474 22.3366L22.7374 19.0066L17.69 35.24L12.6426 51.4734L23.3526 54.8034L28.4 38.57ZM17.69 35.24L34.3489 38.6283C34.5267 37.7544 34.7778 37.3903 34.9862 37.1481L22.1 26.06L9.21382 14.9719C4.98224 19.8897 2.29334 25.6456 1.03108 31.8517L17.69 35.24ZM22.1 26.06L35.1112 37.0012C35.6293 36.385 36.1883 35.963 36.9676 35.6249L30.2 20.03L23.4324 4.43513C17.8517 6.85696 13.0107 10.455 9.08884 15.1188L22.1 26.06ZM30.2 20.03L37.1044 35.5648C38.1367 35.106 39.201 34.87 40.46 34.87V17.87V0.869997C34.519 0.869997 28.7433 2.07401 23.2956 4.4952L30.2 20.03ZM40.46 17.87V34.87C42.7338 34.87 43.903 35.2756 44.4251 35.527L51.8 20.21L59.1749 4.89297C53.217 2.02439 46.8262 0.869997 40.46 0.869997V17.87ZM51.8 20.21L44.5346 35.5792C44.9267 35.7646 45.0848 35.8961 45.1116 35.9191C45.1286 35.9338 45.1296 35.9365 45.1228 35.9286C45.116 35.9208 45.1146 35.9176 45.1203 35.9266L59.45 26.78L73.7797 17.6334C70.1019 11.8715 64.9856 7.63938 59.0654 4.84077L51.8 20.21ZM59.45 26.78L45.2589 36.1401C45.2411 36.1132 45.2204 36.0768 45.2022 36.0368C45.1841 35.9971 45.1781 35.9751 45.1799 35.9813C45.1812 35.9859 45.24 36.1911 45.24 36.68H62.24H79.24C79.24 29.9821 77.5467 23.3412 73.6411 17.4199L59.45 26.78ZM62.24 36.68H45.24C45.24 36.9011 45.208 37.2066 45.0231 37.6874L60.89 43.79L76.7569 49.8926C78.372 45.6934 79.24 41.2589 79.24 36.68H62.24ZM60.89 43.79L45.0231 37.6874C44.7632 38.3632 44.2175 39.452 43.1205 40.9513L56.84 50.99L70.5595 61.0287C73.0625 57.608 75.2168 53.8968 76.7569 49.8926L60.89 43.79ZM56.84 50.99L43.24 40.79C41.9765 42.4747 40.1268 44.6394 37.5564 47.317L49.82 59.09L62.0836 70.863C65.2732 67.5405 68.1035 64.3053 70.44 61.19L56.84 50.99ZM49.82 59.09L37.5017 47.3742L21.7517 63.9342L34.07 75.65L46.3883 87.3658L62.1383 70.8058L49.82 59.09ZM34.07 75.65V92.65H63.14V75.65V58.65H34.07V75.65ZM63.14 75.65H46.14V86H63.14H80.14V75.65H63.14ZM63.14 86V69H18.14L18.14 86V103H63.14V86ZM82.8212 82.76L72.9206 96.5795L82.8212 82.76ZM73.3712 70.61L57.7272 77.2632C57.7487 77.3137 57.7704 77.3642 57.7924 77.4145L73.3712 70.61ZM73.3712 34.25L57.7551 27.5315L57.7551 27.5315L73.3712 34.25ZM82.7312 22.19L72.8306 8.37048L72.8306 8.37048L82.7312 22.19ZM110.901 22.19L100.902 35.9385C100.935 35.9623 100.968 35.986 101.001 36.0095L110.901 22.19ZM120.351 34.34L104.772 41.1445C104.782 41.1666 104.792 41.1887 104.802 41.2108L120.351 34.34ZM120.351 70.61L104.772 63.8055C104.76 63.8341 104.747 63.8628 104.735 63.8915L120.351 70.61ZM110.991 82.76L120.892 96.5795C120.937 96.5472 120.982 96.5147 121.027 96.4819L110.991 82.76ZM104.781 73.13L115.874 86.0121C115.942 85.9539 116.009 85.8952 116.075 85.836L104.781 73.13ZM109.731 65.03L93.6311 59.5723C93.6124 59.6274 93.594 59.6825 93.5759 59.7378L109.731 65.03ZM109.731 39.92L93.5495 45.131C93.5852 45.2417 93.6219 45.352 93.6598 45.4618L109.731 39.92ZM104.691 31.82L93.5983 44.7021C93.6563 44.7521 93.7147 44.8016 93.7734 44.8508L104.691 31.82ZM89.0312 31.82L77.9383 18.9379L77.9383 18.9379L89.0312 31.82ZM83.9912 39.92L67.8911 34.4623C67.8724 34.5174 67.854 34.5725 67.8359 34.6278L83.9912 39.92ZM83.9912 64.94L67.8095 70.151C67.8452 70.2617 67.8819 70.372 67.9198 70.4818L83.9912 64.94ZM89.0312 73.04L77.737 85.746C77.7945 85.7971 77.8524 85.8478 77.9106 85.8982L89.0312 73.04ZM96.8612 87.08V70.08C94.7734 70.08 93.6207 69.5845 92.7217 68.9405L82.8212 82.76L72.9206 96.5795C80.0616 101.695 88.269 104.08 96.8612 104.08V87.08ZM82.8212 82.76L92.7217 68.9405C91.5501 68.1011 90.1931 66.6516 88.95 63.8055L73.3712 70.61L57.7924 77.4145C61.1093 85.0084 66.0522 91.6589 72.9206 96.5795L82.8212 82.76ZM73.3712 70.61L89.0152 63.9568C87.8613 61.2436 87.0412 57.5263 87.0412 52.43H70.0412H53.0412C53.0412 61.1336 54.441 69.5364 57.7272 77.2632L73.3712 70.61ZM70.0412 52.43H87.0412C87.0412 47.2443 87.8706 43.5639 88.9872 40.9685L73.3712 34.25L57.7551 27.5315C54.4317 35.2561 53.0412 43.6957 53.0412 52.43H70.0412ZM73.3712 34.25L88.9872 40.9685C90.1539 38.2569 91.4557 36.8521 92.6317 36.0095L82.7312 22.19L72.8306 8.37048C65.9667 13.2879 61.0285 19.9231 57.7551 27.5315L73.3712 34.25ZM82.7312 22.19L92.6317 36.0095C93.5307 35.3655 94.6833 34.87 96.7712 34.87V17.87V0.869997C88.179 0.869997 79.9716 3.25452 72.8306 8.37048L82.7312 22.19ZM96.7712 17.87V34.87C99.0715 34.87 100.18 35.413 100.902 35.9385L110.901 22.19L120.9 8.44148C113.703 3.20704 105.391 0.869997 96.7712 0.869997V17.87ZM110.901 22.19L101.001 36.0095C102.172 36.8489 103.529 38.2984 104.772 41.1445L120.351 34.34L135.93 27.5355C132.613 19.9416 127.67 13.2911 120.802 8.37048L110.901 22.19ZM120.351 34.34L104.802 41.2108C105.937 43.7801 106.771 47.3809 106.771 52.43H123.771H140.771C140.771 43.6791 139.326 35.2199 135.901 27.4692L120.351 34.34ZM123.771 52.43H106.771C106.771 57.4723 105.939 61.1348 104.772 63.8055L120.351 70.61L135.93 77.4145C139.323 69.6452 140.771 61.1877 140.771 52.43H123.771ZM120.351 70.61L104.735 63.8915C103.559 66.625 102.221 68.1126 100.956 69.0381L110.991 82.76L121.027 96.4819C127.801 91.5274 132.703 84.915 135.967 77.3285L120.351 70.61ZM110.991 82.76L101.091 68.9405C100.225 69.5607 99.0534 70.08 96.8612 70.08V87.08V104.08C105.469 104.08 113.717 101.719 120.892 96.5795L110.991 82.76ZM96.9512 75.92V92.92C103.759 92.92 110.392 90.7327 115.874 86.0121L104.781 73.13L93.6883 60.2479C94.1491 59.8511 94.7724 59.4671 95.4976 59.2087C96.2054 58.9565 96.7389 58.92 96.9512 58.92V75.92ZM104.781 73.13L116.075 85.836C121.008 81.4512 124.056 75.9084 125.886 70.3222L109.731 65.03L93.5759 59.7378C93.3531 60.4181 93.1742 60.7327 93.1329 60.8004C93.1005 60.8533 93.1998 60.6793 93.487 60.424L104.781 73.13ZM109.731 65.03L125.831 70.4877C127.776 64.7522 128.531 58.6197 128.531 52.43H111.531H94.5312C94.5312 55.9603 94.0868 58.2278 93.6311 59.5723L109.731 65.03ZM111.531 52.43H128.531C128.531 46.2521 127.779 40.1089 125.803 34.3782L109.731 39.92L93.6598 45.4618C94.0837 46.6911 94.5312 48.8879 94.5312 52.43H111.531ZM109.731 39.92L125.913 34.709C124.066 28.9738 120.894 23.2171 115.609 18.7891L104.691 31.82L93.7734 44.8508C93.5822 44.6907 93.4375 44.5411 93.3356 44.4219C93.2348 44.3041 93.1875 44.2296 93.1822 44.2211C93.1761 44.2114 93.3358 44.4672 93.5495 45.131L109.731 39.92ZM104.691 31.82L115.784 18.9379C110.239 14.1628 103.548 12.03 96.7712 12.03V29.03V46.03C96.6263 46.03 96.133 46.0048 95.4428 45.7617C94.7305 45.5108 94.0911 45.1264 93.5983 44.7021L104.691 31.82ZM96.7712 29.03V12.03C89.932 12.03 83.3551 14.2734 77.9383 18.9379L89.0312 31.82L100.124 44.7021C99.6954 45.0712 99.0884 45.4544 98.351 45.7202C97.6263 45.9815 97.0522 46.03 96.7712 46.03V29.03ZM89.0312 31.82L77.9383 18.9379C72.8654 23.3062 69.7707 28.9173 67.8911 34.4623L83.9912 39.92L100.091 45.3777C100.344 44.633 100.541 44.2914 100.585 44.2211C100.619 44.1661 100.49 44.3869 100.124 44.7021L89.0312 31.82ZM83.9912 39.92L67.8359 34.6278C65.9873 40.271 65.2812 46.3235 65.2812 52.43H82.2812H99.2812C99.2812 48.8165 99.7151 46.529 100.146 45.2122L83.9912 39.92ZM82.2812 52.43H65.2812C65.2812 58.5129 65.996 64.5197 67.8095 70.151L83.9912 64.94L100.173 59.729C99.7063 58.2803 99.2812 55.9471 99.2812 52.43H82.2812ZM83.9912 64.94L67.9198 70.4818C69.8159 75.9805 72.8777 81.4266 77.737 85.746L89.0312 73.04L100.325 60.334C100.865 60.8134 100.566 60.8595 100.063 59.3982L83.9912 64.94ZM89.0312 73.04L77.9106 85.8982C83.3601 90.6112 89.9968 92.92 96.9512 92.92V75.92V58.92C97.2255 58.92 97.7843 58.9684 98.4858 59.2235C99.1977 59.4824 99.7672 59.8493 100.152 60.1818L89.0312 73.04ZM141.952 85.1L135.29 100.74C135.406 100.79 135.522 100.837 135.638 100.884L141.952 85.1ZM133.582 79.34L120.976 90.7455C121.071 90.8504 121.167 90.9541 121.264 91.0566L133.582 79.34ZM128.902 70.43L123.244 54.3992C115.001 57.3086 110.307 65.9955 112.393 74.4849L128.902 70.43ZM139.612 66.65L155.643 60.9921C152.518 52.1385 142.808 47.4944 133.954 50.6192L139.612 66.65ZM144.562 73.67L134.541 87.4024C134.623 87.4621 134.705 87.5211 134.788 87.5793L144.562 73.67ZM158.602 74.66L150.999 59.4547C150.93 59.4894 150.861 59.5246 150.792 59.5603L158.602 74.66ZM162.832 70.79L177.363 79.6126C177.409 79.5378 177.453 79.4627 177.498 79.3872L162.832 70.79ZM162.832 58.73L148.072 67.1644C148.192 67.3748 148.317 67.5827 148.446 67.7878L162.832 58.73ZM158.692 54.86L151.089 70.0653L151.089 70.0653L158.692 54.86ZM148.702 53.87L145.521 37.1702C145.47 37.18 145.419 37.1899 145.368 37.2001L148.702 53.87ZM145.462 54.95L130.118 62.268C132.082 66.3871 135.62 69.5434 139.936 71.0268C144.252 72.5102 148.983 72.1962 153.064 70.1553L145.462 54.95ZM142.672 49.1L129.892 37.889C125.411 42.9975 124.402 50.2842 127.328 56.418L142.672 49.1ZM160.042 29.3L172.821 40.511C177.223 35.4937 178.281 28.3649 175.527 22.2853C172.773 16.2056 166.716 12.3 160.042 12.3V29.3ZM132.682 29.3H115.682C115.682 38.6888 123.293 46.3 132.682 46.3V29.3ZM132.682 18.95V1.94999C123.293 1.94999 115.682 9.56115 115.682 18.95H132.682ZM173.812 18.95H190.812C190.812 9.56115 183.201 1.94999 173.812 1.94999V18.95ZM173.812 28.58L186.735 39.6247C189.366 36.5462 190.812 32.6296 190.812 28.58H173.812ZM156.352 49.01L139.365 48.3438C139.081 55.5791 143.412 62.2 150.154 64.8399C156.896 67.4798 164.571 65.5592 169.275 60.0547L156.352 49.01ZM156.532 44.42L156.786 27.4219C147.558 27.2842 139.907 34.5328 139.545 43.7538L156.532 44.42ZM174.082 53.96L159.322 62.3944L159.322 62.3944L174.082 53.96ZM173.452 76.01L187.939 84.9055C187.962 84.8682 187.984 84.8308 188.007 84.7933L173.452 76.01ZM164.812 84.11L172.901 99.0622L172.901 99.0622L164.812 84.11ZM152.392 87.08V70.08C150.829 70.08 149.497 69.8086 148.266 69.3159L141.952 85.1L135.638 100.884C141.006 103.031 146.635 104.08 152.392 104.08V87.08ZM141.952 85.1L148.614 69.4596C147.425 68.9535 146.582 68.3406 145.899 67.6234L133.582 79.34L121.264 91.0566C125.262 95.2594 129.998 98.4865 135.29 100.74L141.952 85.1ZM133.582 79.34L146.188 67.9345C145.868 67.5807 145.605 67.1624 145.411 66.3751L128.902 70.43L112.393 74.4849C113.879 80.5376 116.736 86.0593 120.976 90.7455L133.582 79.34ZM128.902 70.43L134.56 86.4608L145.27 82.6808L139.612 66.65L133.954 50.6192L123.244 54.3992L128.902 70.43ZM139.612 66.65L123.581 72.3079C125.592 78.0059 129.077 83.415 134.541 87.4024L144.562 73.67L154.583 59.9376C155.031 60.2649 155.355 60.6231 155.553 60.9034C155.737 61.1649 155.731 61.2433 155.643 60.9921L139.612 66.65ZM144.562 73.67L134.788 87.5793C140.171 91.3621 146.28 93.01 152.392 93.01V76.01V59.01C152.375 59.01 152.627 59.0097 153.052 59.1368C153.493 59.2685 153.943 59.4847 154.336 59.7607L144.562 73.67ZM152.392 76.01V93.01C156.907 93.01 161.774 92.1588 166.412 89.7597L158.602 74.66L150.792 59.5603C151.95 58.9612 152.677 59.01 152.392 59.01V76.01ZM158.602 74.66L166.205 89.8653C170.797 87.5691 174.64 84.0988 177.363 79.6126L162.832 70.79L148.3 61.9674C148.604 61.4682 149.015 60.9493 149.534 60.4748C150.051 60.0023 150.566 59.6713 150.999 59.4547L158.602 74.66ZM162.832 70.79L177.498 79.3872C180.276 74.6472 181.362 69.542 181.362 64.67H164.362H147.362C147.362 64.6042 147.369 64.3021 147.487 63.8319C147.608 63.3483 147.823 62.778 148.166 62.1928L162.832 70.79ZM164.362 64.67H181.362C181.362 59.8396 180.29 54.552 177.218 49.6722L162.832 58.73L148.446 67.7878C147.413 66.148 147.362 64.8204 147.362 64.67H164.362ZM162.832 58.73L177.592 50.2956C174.898 45.5806 170.969 41.9921 166.294 39.6547L158.692 54.86L151.089 70.0653C150.622 69.8317 150.048 69.4637 149.468 68.9215C148.884 68.3754 148.416 67.7666 148.072 67.1644L162.832 58.73ZM158.692 54.86L166.295 39.6547C161.667 37.3408 156.824 36.51 152.302 36.51V53.51V70.51C152.7 70.51 152.117 70.5792 151.089 70.0653L158.692 54.86ZM152.302 53.51V36.51C149.972 36.51 147.702 36.7549 145.521 37.1702L148.702 53.87L151.883 70.5698C152.222 70.5051 152.352 70.51 152.302 70.51V53.51ZM148.702 53.87L145.368 37.2001C142.889 37.6958 140.344 38.5022 137.859 39.7447L145.462 54.95L153.064 70.1553C152.499 70.4378 152.114 70.5242 152.036 70.5399L148.702 53.87ZM145.462 54.95L160.806 47.632L158.016 41.782L142.672 49.1L127.328 56.418L130.118 62.268L145.462 54.95ZM142.672 49.1L155.451 60.311L172.821 40.511L160.042 29.3L147.262 18.089L129.892 37.889L142.672 49.1ZM160.042 29.3V12.3H132.682V29.3V46.3L160.042 46.3V29.3ZM132.682 29.3L149.682 29.3V18.95H132.682H115.682V29.3H132.682ZM132.682 18.95V35.95L173.812 35.95V18.95V1.94999H132.682V18.95ZM173.812 18.95H156.812V28.58H173.812H190.812V18.95H173.812ZM173.812 28.58L160.888 17.5353L143.428 37.9653L156.352 49.01L169.275 60.0547L186.735 39.6247L173.812 28.58ZM156.352 49.01L173.339 49.6762L173.519 45.0862L156.532 44.42L139.545 43.7538L139.365 48.3438L156.352 49.01ZM156.532 44.42L156.278 61.4181C157.955 61.4431 158.605 61.7785 158.756 61.8626L167.062 47.03L175.368 32.1974C169.518 28.9215 163.148 27.5169 156.786 27.4219L156.532 44.42ZM167.062 47.03L158.756 61.8626C159.107 62.0595 159.197 62.1764 159.322 62.3944L174.082 53.96L188.842 45.5256C185.607 39.8635 181.016 35.3605 175.368 32.1974L167.062 47.03ZM174.082 53.96L159.322 62.3944C159.335 62.4172 159.392 62.5197 159.454 62.7741C159.52 63.0416 159.602 63.5317 159.602 64.31H176.602H193.602C193.602 57.8969 192.222 51.4401 188.842 45.5256L174.082 53.96ZM176.602 64.31H159.602C159.602 65.7368 159.296 66.5655 158.897 67.2267L173.452 76.01L188.007 84.7933C191.808 78.4945 193.602 71.5232 193.602 64.31H176.602ZM173.452 76.01L158.965 67.1145C158.487 67.8922 157.856 68.5447 156.723 69.1578L164.812 84.11L172.901 99.0622C179.087 95.7153 184.216 90.9678 187.939 84.9055L173.452 76.01ZM164.812 84.11L156.723 69.1578C155.812 69.6505 154.505 70.08 152.392 70.08V87.08V104.08C159.519 104.08 166.492 102.529 172.901 99.0622L164.812 84.11ZM196.161 82.76L186.261 96.5795L196.161 82.76ZM186.711 70.61L171.067 77.2632C171.089 77.3137 171.111 77.3642 171.133 77.4145L186.711 70.61ZM186.711 34.25L171.095 27.5315L171.095 27.5315L186.711 34.25ZM196.071 22.19L186.171 8.37048L186.171 8.37048L196.071 22.19ZM224.241 22.19L214.242 35.9385C214.275 35.9623 214.308 35.986 214.341 36.0095L224.241 22.19ZM233.691 34.34L218.113 41.1445C218.122 41.1666 218.132 41.1887 218.142 41.2108L233.691 34.34ZM233.691 70.61L218.113 63.8055C218.1 63.8341 218.088 63.8628 218.075 63.8915L233.691 70.61ZM224.331 82.76L234.232 96.5795C234.277 96.5472 234.322 96.5147 234.367 96.4819L224.331 82.76ZM218.121 73.13L229.214 86.0121C229.282 85.9539 229.349 85.8952 229.416 85.836L218.121 73.13ZM223.071 65.03L206.971 59.5723C206.953 59.6274 206.934 59.6825 206.916 59.7378L223.071 65.03ZM223.071 39.92L206.89 45.131C206.925 45.2417 206.962 45.352 207 45.4618L223.071 39.92ZM218.031 31.82L206.939 44.7021C206.997 44.7521 207.055 44.8016 207.114 44.8508L218.031 31.82ZM202.371 31.82L191.279 18.9379L191.279 18.9379L202.371 31.82ZM197.331 39.92L181.231 34.4623C181.213 34.5174 181.194 34.5725 181.176 34.6278L197.331 39.92ZM197.331 64.94L181.15 70.151C181.185 70.2617 181.222 70.372 181.26 70.4818L197.331 64.94ZM202.371 73.04L191.077 85.746C191.135 85.7971 191.193 85.8478 191.251 85.8982L202.371 73.04ZM210.201 87.08V70.08C208.114 70.08 206.961 69.5845 206.062 68.9405L196.161 82.76L186.261 96.5795C193.402 101.695 201.609 104.08 210.201 104.08V87.08ZM196.161 82.76L206.062 68.9405C204.89 68.1011 203.533 66.6516 202.29 63.8055L186.711 70.61L171.133 77.4145C174.449 85.0084 179.392 91.6589 186.261 96.5795L196.161 82.76ZM186.711 70.61L202.355 63.9568C201.202 61.2436 200.381 57.5263 200.381 52.43H183.381H166.381C166.381 61.1336 167.781 69.5364 171.067 77.2632L186.711 70.61ZM183.381 52.43H200.381C200.381 47.2443 201.211 43.5639 202.327 40.9685L186.711 34.25L171.095 27.5315C167.772 35.2561 166.381 43.6957 166.381 52.43H183.381ZM186.711 34.25L202.327 40.9685C203.494 38.2569 204.796 36.8521 205.972 36.0095L196.071 22.19L186.171 8.37048C179.307 13.2879 174.369 19.9231 171.095 27.5315L186.711 34.25ZM196.071 22.19L205.972 36.0095C206.871 35.3655 208.024 34.87 210.111 34.87V17.87V0.869997C201.519 0.869997 193.312 3.25452 186.171 8.37048L196.071 22.19ZM210.111 17.87V34.87C212.412 34.87 213.52 35.413 214.242 35.9385L224.241 22.19L234.24 8.44148C227.043 3.20704 218.731 0.869997 210.111 0.869997V17.87ZM224.241 22.19L214.341 36.0095C215.512 36.8489 216.869 38.2984 218.113 41.1445L233.691 34.34L249.27 27.5355C245.953 19.9416 241.01 13.2911 234.142 8.37048L224.241 22.19ZM233.691 34.34L218.142 41.2108C219.277 43.7801 220.111 47.3809 220.111 52.43H237.111H254.111C254.111 43.6791 252.666 35.2199 249.241 27.4692L233.691 34.34ZM237.111 52.43H220.111C220.111 57.4723 219.279 61.1348 218.113 63.8055L233.691 70.61L249.27 77.4145C252.664 69.6452 254.111 61.1877 254.111 52.43H237.111ZM233.691 70.61L218.075 63.8915C216.899 66.625 215.561 68.1126 214.296 69.0381L224.331 82.76L234.367 96.4819C241.141 91.5274 246.044 84.915 249.307 77.3285L233.691 70.61ZM224.331 82.76L214.431 68.9405C213.565 69.5607 212.394 70.08 210.201 70.08V87.08V104.08C218.809 104.08 227.058 101.719 234.232 96.5795L224.331 82.76ZM210.291 75.92V92.92C217.099 92.92 223.732 90.7327 229.214 86.0121L218.121 73.13L207.029 60.2479C207.489 59.8511 208.113 59.4671 208.838 59.2087C209.546 58.9565 210.079 58.92 210.291 58.92V75.92ZM218.121 73.13L229.416 85.836C234.348 81.4512 237.397 75.9084 239.227 70.3222L223.071 65.03L206.916 59.7378C206.693 60.4181 206.514 60.7327 206.473 60.8004C206.441 60.8533 206.54 60.6793 206.827 60.424L218.121 73.13ZM223.071 65.03L239.172 70.4877C241.116 64.7522 241.871 58.6197 241.871 52.43H224.871H207.871C207.871 55.9603 207.427 58.2278 206.971 59.5723L223.071 65.03ZM224.871 52.43H241.871C241.871 46.2521 241.119 40.1089 239.143 34.3782L223.071 39.92L207 45.4618C207.424 46.6911 207.871 48.8879 207.871 52.43H224.871ZM223.071 39.92L239.253 34.709C237.406 28.9738 234.234 23.2171 228.949 18.7891L218.031 31.82L207.114 44.8508C206.922 44.6907 206.778 44.5411 206.676 44.4219C206.575 44.3041 206.528 44.2296 206.522 44.2211C206.516 44.2114 206.676 44.4672 206.89 45.131L223.071 39.92ZM218.031 31.82L229.124 18.9379C223.579 14.1628 216.889 12.03 210.111 12.03V29.03V46.03C209.967 46.03 209.473 46.0048 208.783 45.7617C208.071 45.5108 207.431 45.1264 206.939 44.7021L218.031 31.82ZM210.111 29.03V12.03C203.272 12.03 196.695 14.2734 191.279 18.9379L202.371 31.82L213.464 44.7021C213.036 45.0712 212.429 45.4544 211.691 45.7202C210.966 45.9815 210.392 46.03 210.111 46.03V29.03ZM202.371 31.82L191.279 18.9379C186.206 23.3062 183.111 28.9173 181.231 34.4623L197.331 39.92L213.432 45.3777C213.684 44.633 213.882 44.2914 213.925 44.2211C213.96 44.1661 213.83 44.3869 213.464 44.7021L202.371 31.82ZM197.331 39.92L181.176 34.6278C179.327 40.271 178.621 46.3235 178.621 52.43H195.621H212.621C212.621 48.8165 213.055 46.529 213.487 45.2122L197.331 39.92ZM195.621 52.43H178.621C178.621 58.5129 179.336 64.5197 181.15 70.151L197.331 64.94L213.513 59.729C213.047 58.2803 212.621 55.9471 212.621 52.43H195.621ZM197.331 64.94L181.26 70.4818C183.156 75.9805 186.218 81.4266 191.077 85.746L202.371 73.04L213.666 60.334C214.205 60.8134 213.907 60.8595 213.403 59.3982L197.331 64.94ZM202.371 73.04L191.251 85.8982C196.7 90.6112 203.337 92.92 210.291 92.92V75.92V58.92C210.566 58.92 211.125 58.9684 211.826 59.2235C212.538 59.4824 213.107 59.8493 213.492 60.1818L202.371 73.04Z" fill="#08262E" mask="url(#path-1-outside-1_1350_680)"/>
</svg>
