<svg width="228" height="105" viewBox="0 0 228 105" fill="none" xmlns="http://www.w3.org/2000/svg">
<mask id="path-1-outside-1_1350_680" maskUnits="userSpaceOnUse" x="0" y="0" width="228" height="105" fill="black">
<rect fill="white" width="228" height="105"/>
<path d="M18.14 86V76.73L36.32 57.74C39.92 53.96 42.68 50.96 44.6 48.74C46.58 46.46 47.96 44.51 48.74 42.89C49.52 41.27 49.91 39.62 49.91 37.94C49.91 35.12 49.01 32.9 47.21 31.28C45.47 29.66 43.22 28.85 40.46 28.85C37.58 28.85 35.09 29.69 32.99 31.37C30.89 32.99 29.36 35.39 28.4 38.57L17.69 35.24C18.41 31.7 19.88 28.64 22.1 26.06C24.32 23.42 27.02 21.41 30.2 20.03C33.44 18.59 36.86 17.87 40.46 17.87C44.78 17.87 48.56 18.65 51.8 20.21C55.1 21.77 57.65 23.96 59.45 26.78C61.31 29.6 62.24 32.9 62.24 36.68C62.24 39.08 61.79 41.45 60.89 43.79C59.99 46.13 58.64 48.53 56.84 50.99C55.04 53.39 52.7 56.09 49.82 59.09L34.07 75.65H63.14V86H18.14ZM96.8612 87.08C91.5212 87.08 86.8412 85.64 82.8212 82.76C78.8012 79.88 75.6512 75.83 73.3712 70.61C71.1512 65.39 70.0412 59.33 70.0412 52.43C70.0412 45.47 71.1512 39.41 73.3712 34.25C75.5912 29.09 78.7112 25.07 82.7312 22.19C86.7512 19.31 91.4312 17.87 96.7712 17.87C102.231 17.87 106.941 19.31 110.901 22.19C114.921 25.07 118.071 29.12 120.351 34.34C122.631 39.5 123.771 45.53 123.771 52.43C123.771 59.33 122.631 65.39 120.351 70.61C118.131 75.77 115.011 79.82 110.991 82.76C106.971 85.64 102.261 87.08 96.8612 87.08ZM96.9512 75.92C100.011 75.92 102.621 74.99 104.781 73.13C106.941 71.21 108.591 68.51 109.731 65.03C110.931 61.49 111.531 57.29 111.531 52.43C111.531 47.57 110.931 43.4 109.731 39.92C108.591 36.38 106.911 33.68 104.691 31.82C102.531 29.96 99.8912 29.03 96.7712 29.03C93.7712 29.03 91.1912 29.96 89.0312 31.82C86.8712 33.68 85.1912 36.38 83.9912 39.92C82.8512 43.4 82.2812 47.57 82.2812 52.43C82.2812 57.23 82.8512 61.4 83.9912 64.94C85.1912 68.42 86.8712 71.12 89.0312 73.04C91.2512 74.96 93.8912 75.92 96.9512 75.92ZM141.592 86V29.39H128.632V18.95H153.832V86H141.592ZM168.081 86L190.851 56.66L192.921 58.82C192.021 59.48 191.151 60.02 190.311 60.44C189.471 60.86 188.571 61.16 187.611 61.34C186.651 61.52 185.631 61.61 184.551 61.61C180.471 61.61 176.841 60.68 173.661 58.82C170.481 56.96 167.961 54.44 166.101 51.26C164.301 48.02 163.401 44.36 163.401 40.28C163.401 35.96 164.391 32.12 166.371 28.76C168.411 25.4 171.171 22.76 174.651 20.84C178.191 18.86 182.211 17.87 186.711 17.87C191.271 17.87 195.291 18.83 198.771 20.75C202.251 22.67 204.981 25.31 206.961 28.67C209.001 31.97 210.021 35.78 210.021 40.1C210.021 42.26 209.781 44.42 209.301 46.58C208.821 48.74 207.951 51.05 206.691 53.51C205.491 55.91 203.751 58.64 201.471 61.7L182.751 86H168.081ZM186.711 51.35C188.811 51.35 190.671 50.9 192.291 50C193.971 49.04 195.291 47.72 196.251 46.04C197.211 44.3 197.691 42.35 197.691 40.19C197.691 37.91 197.181 35.93 196.161 34.25C195.201 32.57 193.911 31.25 192.291 30.29C190.671 29.33 188.811 28.85 186.711 28.85C184.671 28.85 182.811 29.33 181.131 30.29C179.451 31.25 178.101 32.57 177.081 34.25C176.121 35.93 175.641 37.91 175.641 40.19C175.641 42.35 176.121 44.3 177.081 46.04C178.101 47.72 179.451 49.04 181.131 50C182.811 50.9 184.671 51.35 186.711 51.35Z"/>
</mask>
<path d="M18.14 86V76.73L36.32 57.74C39.92 53.96 42.68 50.96 44.6 48.74C46.58 46.46 47.96 44.51 48.74 42.89C49.52 41.27 49.91 39.62 49.91 37.94C49.91 35.12 49.01 32.9 47.21 31.28C45.47 29.66 43.22 28.85 40.46 28.85C37.58 28.85 35.09 29.69 32.99 31.37C30.89 32.99 29.36 35.39 28.4 38.57L17.69 35.24C18.41 31.7 19.88 28.64 22.1 26.06C24.32 23.42 27.02 21.41 30.2 20.03C33.44 18.59 36.86 17.87 40.46 17.87C44.78 17.87 48.56 18.65 51.8 20.21C55.1 21.77 57.65 23.96 59.45 26.78C61.31 29.6 62.24 32.9 62.24 36.68C62.24 39.08 61.79 41.45 60.89 43.79C59.99 46.13 58.64 48.53 56.84 50.99C55.04 53.39 52.7 56.09 49.82 59.09L34.07 75.65H63.14V86H18.14ZM96.8612 87.08C91.5212 87.08 86.8412 85.64 82.8212 82.76C78.8012 79.88 75.6512 75.83 73.3712 70.61C71.1512 65.39 70.0412 59.33 70.0412 52.43C70.0412 45.47 71.1512 39.41 73.3712 34.25C75.5912 29.09 78.7112 25.07 82.7312 22.19C86.7512 19.31 91.4312 17.87 96.7712 17.87C102.231 17.87 106.941 19.31 110.901 22.19C114.921 25.07 118.071 29.12 120.351 34.34C122.631 39.5 123.771 45.53 123.771 52.43C123.771 59.33 122.631 65.39 120.351 70.61C118.131 75.77 115.011 79.82 110.991 82.76C106.971 85.64 102.261 87.08 96.8612 87.08ZM96.9512 75.92C100.011 75.92 102.621 74.99 104.781 73.13C106.941 71.21 108.591 68.51 109.731 65.03C110.931 61.49 111.531 57.29 111.531 52.43C111.531 47.57 110.931 43.4 109.731 39.92C108.591 36.38 106.911 33.68 104.691 31.82C102.531 29.96 99.8912 29.03 96.7712 29.03C93.7712 29.03 91.1912 29.96 89.0312 31.82C86.8712 33.68 85.1912 36.38 83.9912 39.92C82.8512 43.4 82.2812 47.57 82.2812 52.43C82.2812 57.23 82.8512 61.4 83.9912 64.94C85.1912 68.42 86.8712 71.12 89.0312 73.04C91.2512 74.96 93.8912 75.92 96.9512 75.92ZM141.592 86V29.39H128.632V18.95H153.832V86H141.592ZM168.081 86L190.851 56.66L192.921 58.82C192.021 59.48 191.151 60.02 190.311 60.44C189.471 60.86 188.571 61.16 187.611 61.34C186.651 61.52 185.631 61.61 184.551 61.61C180.471 61.61 176.841 60.68 173.661 58.82C170.481 56.96 167.961 54.44 166.101 51.26C164.301 48.02 163.401 44.36 163.401 40.28C163.401 35.96 164.391 32.12 166.371 28.76C168.411 25.4 171.171 22.76 174.651 20.84C178.191 18.86 182.211 17.87 186.711 17.87C191.271 17.87 195.291 18.83 198.771 20.75C202.251 22.67 204.981 25.31 206.961 28.67C209.001 31.97 210.021 35.78 210.021 40.1C210.021 42.26 209.781 44.42 209.301 46.58C208.821 48.74 207.951 51.05 206.691 53.51C205.491 55.91 203.751 58.64 201.471 61.7L182.751 86H168.081ZM186.711 51.35C188.811 51.35 190.671 50.9 192.291 50C193.971 49.04 195.291 47.72 196.251 46.04C197.211 44.3 197.691 42.35 197.691 40.19C197.691 37.91 197.181 35.93 196.161 34.25C195.201 32.57 193.911 31.25 192.291 30.29C190.671 29.33 188.811 28.85 186.711 28.85C184.671 28.85 182.811 29.33 181.131 30.29C179.451 31.25 178.101 32.57 177.081 34.25C176.121 35.93 175.641 37.91 175.641 40.19C175.641 42.35 176.121 44.3 177.081 46.04C178.101 47.72 179.451 49.04 181.131 50C182.811 50.9 184.671 51.35 186.711 51.35Z" fill="white"/>
<path d="M18.14 86H1.14C1.14 95.3888 8.75116 103 18.14 103L18.14 86ZM18.14 76.73L5.86015 64.9739C2.83091 68.1381 1.14 72.3495 1.14 76.73H18.14ZM36.32 57.74L48.5999 69.4961C48.61 69.4854 48.6202 69.4748 48.6303 69.4641L36.32 57.74ZM44.6 48.74L31.7644 37.5933C31.7569 37.602 31.7494 37.6107 31.7418 37.6194L44.6 48.74ZM48.74 42.89L33.423 35.5151L33.423 35.5151L48.74 42.89ZM47.21 31.28L35.6259 43.7222C35.6959 43.7874 35.7665 43.852 35.8376 43.916L47.21 31.28ZM32.99 31.37L43.3737 44.8303C43.4529 44.7691 43.5316 44.7073 43.6098 44.6448L32.99 31.37ZM28.4 38.57L23.3526 54.8034C27.6812 56.1493 32.3681 55.7107 36.3718 53.585C40.3756 51.4593 43.3645 47.8227 44.6746 43.4831L28.4 38.57ZM17.69 35.24L1.03108 31.8517C-0.708182 40.4031 4.30969 48.8825 12.6426 51.4734L17.69 35.24ZM22.1 26.06L34.9862 37.1481C35.0281 37.0994 35.0698 37.0504 35.1112 37.0012L22.1 26.06ZM30.2 20.03L36.9676 35.6249C37.0133 35.605 37.0589 35.585 37.1044 35.5648L30.2 20.03ZM51.8 20.21L44.4251 35.527C44.4615 35.5446 44.498 35.562 44.5346 35.5792L51.8 20.21ZM59.45 26.78L45.1203 35.9266C45.166 35.9981 45.2121 36.0693 45.2589 36.1401L59.45 26.78ZM56.84 50.99L70.44 61.19C70.4802 61.1365 70.52 61.0827 70.5595 61.0287L56.84 50.99ZM49.82 59.09L37.5564 47.317C37.5381 47.336 37.5199 47.3551 37.5017 47.3742L49.82 59.09ZM34.07 75.65L21.7517 63.9342C17.0665 68.8604 15.7667 76.1041 18.4468 82.3519C21.1269 88.5997 27.2716 92.65 34.07 92.65V75.65ZM63.14 75.65H80.14C80.14 66.2612 72.5288 58.65 63.14 58.65L63.14 75.65ZM63.14 86V103C72.5288 103 80.14 95.3888 80.14 86H63.14ZM18.14 86H35.14V76.73H18.14H1.14V86H18.14ZM18.14 76.73L30.4199 88.4861L48.5999 69.4961L36.32 57.74L24.0401 45.9839L5.86015 64.9739L18.14 76.73ZM36.32 57.74L48.6303 69.4641C52.298 65.6131 55.2747 62.3852 57.4582 59.8606L44.6 48.74L31.7418 37.6194C30.0853 39.5348 27.542 42.3069 24.0097 46.0159L36.32 57.74ZM44.6 48.74L57.4356 59.8867C59.833 57.126 62.3271 53.8578 64.057 50.2649L48.74 42.89L33.423 35.5151C33.5525 35.2461 33.5522 35.3107 33.2434 35.7471C32.9497 36.1621 32.4769 36.7729 31.7644 37.5933L44.6 48.74ZM48.74 42.89L64.057 50.2649C65.8654 46.5091 66.91 42.3504 66.91 37.94H49.91H32.91C32.91 36.8896 33.1746 36.0309 33.423 35.5151L48.74 42.89ZM49.91 37.94H66.91C66.91 31.1719 64.5647 24.0281 58.5824 18.644L47.21 31.28L35.8376 43.916C34.8438 43.0216 34.0095 41.8521 33.4804 40.547C32.9758 39.3022 32.91 38.3379 32.91 37.94H49.91ZM47.21 31.28L58.7941 18.8378C53.4052 13.8205 46.7787 11.85 40.46 11.85V28.85V45.85C40.1746 45.85 39.4419 45.8063 38.4593 45.4526C37.4352 45.0839 36.4479 44.4875 35.6259 43.7222L47.21 31.28ZM40.46 28.85V11.85C34.0132 11.85 27.7059 13.8266 22.3702 18.0952L32.99 31.37L43.6098 44.6448C43.1468 45.0152 42.5465 45.3587 41.8666 45.5881C41.2009 45.8126 40.6913 45.85 40.46 45.85V28.85ZM32.99 31.37L22.6063 17.9097C17.0607 22.1877 13.849 27.9475 12.1254 33.6569L28.4 38.57L44.6746 43.4831C44.7777 43.1416 44.8002 43.2131 44.6024 43.5235C44.3878 43.86 43.9912 44.3539 43.3737 44.8303L32.99 31.37ZM28.4 38.57L33.4474 22.3366L22.7374 19.0066L17.69 35.24L12.6426 51.4734L23.3526 54.8034L28.4 38.57ZM17.69 35.24L34.3489 38.6283C34.5267 37.7544 34.7778 37.3903 34.9862 37.1481L22.1 26.06L9.21382 14.9719C4.98224 19.8897 2.29334 25.6456 1.03108 31.8517L17.69 35.24ZM22.1 26.06L35.1112 37.0012C35.6293 36.385 36.1883 35.963 36.9676 35.6249L30.2 20.03L23.4324 4.43513C17.8517 6.85696 13.0107 10.455 9.08884 15.1188L22.1 26.06ZM30.2 20.03L37.1044 35.5648C38.1367 35.106 39.201 34.87 40.46 34.87V17.87V0.869997C34.519 0.869997 28.7433 2.07401 23.2956 4.4952L30.2 20.03ZM40.46 17.87V34.87C42.7338 34.87 43.903 35.2756 44.4251 35.527L51.8 20.21L59.1749 4.89297C53.217 2.02439 46.8262 0.869997 40.46 0.869997V17.87ZM51.8 20.21L44.5346 35.5792C44.9267 35.7646 45.0848 35.8961 45.1116 35.9191C45.1286 35.9338 45.1296 35.9365 45.1228 35.9286C45.116 35.9208 45.1146 35.9176 45.1203 35.9266L59.45 26.78L73.7797 17.6334C70.1019 11.8715 64.9856 7.63938 59.0654 4.84077L51.8 20.21ZM59.45 26.78L45.2589 36.1401C45.2411 36.1132 45.2204 36.0768 45.2022 36.0368C45.1841 35.9971 45.1781 35.9751 45.1799 35.9813C45.1812 35.9859 45.24 36.1911 45.24 36.68H62.24H79.24C79.24 29.9821 77.5467 23.3412 73.6411 17.4199L59.45 26.78ZM62.24 36.68H45.24C45.24 36.9011 45.208 37.2066 45.0231 37.6874L60.89 43.79L76.7569 49.8926C78.372 45.6934 79.24 41.2589 79.24 36.68H62.24ZM60.89 43.79L45.0231 37.6874C44.7632 38.3632 44.2175 39.452 43.1205 40.9513L56.84 50.99L70.5595 61.0287C73.0625 57.608 75.2168 53.8968 76.7569 49.8926L60.89 43.79ZM56.84 50.99L43.24 40.79C41.9765 42.4747 40.1268 44.6394 37.5564 47.317L49.82 59.09L62.0836 70.863C65.2732 67.5405 68.1035 64.3053 70.44 61.19L56.84 50.99ZM49.82 59.09L37.5017 47.3742L21.7517 63.9342L34.07 75.65L46.3883 87.3658L62.1383 70.8058L49.82 59.09ZM34.07 75.65V92.65H63.14V75.65V58.65H34.07V75.65ZM63.14 75.65H46.14V86H63.14H80.14V75.65H63.14ZM63.14 86V69H18.14L18.14 86V103H63.14V86ZM82.8212 82.76L72.9206 96.5795L82.8212 82.76ZM73.3712 70.61L57.7272 77.2632C57.7487 77.3137 57.7704 77.3642 57.7924 77.4145L73.3712 70.61ZM73.3712 34.25L57.7551 27.5315L57.7551 27.5315L73.3712 34.25ZM82.7312 22.19L72.8306 8.37048L72.8306 8.37048L82.7312 22.19ZM110.901 22.19L100.902 35.9385C100.935 35.9623 100.968 35.986 101.001 36.0095L110.901 22.19ZM120.351 34.34L104.772 41.1445C104.782 41.1666 104.792 41.1887 104.802 41.2108L120.351 34.34ZM120.351 70.61L104.772 63.8055C104.76 63.8341 104.747 63.8628 104.735 63.8915L120.351 70.61ZM110.991 82.76L120.892 96.5795C120.937 96.5472 120.982 96.5147 121.027 96.4819L110.991 82.76ZM104.781 73.13L115.874 86.0121C115.942 85.9539 116.009 85.8952 116.075 85.836L104.781 73.13ZM109.731 65.03L93.6311 59.5723C93.6124 59.6274 93.594 59.6825 93.5759 59.7378L109.731 65.03ZM109.731 39.92L93.5495 45.131C93.5852 45.2417 93.6219 45.352 93.6598 45.4618L109.731 39.92ZM104.691 31.82L93.5983 44.7021C93.6563 44.7521 93.7147 44.8016 93.7734 44.8508L104.691 31.82ZM89.0312 31.82L77.9383 18.9379L77.9383 18.9379L89.0312 31.82ZM83.9912 39.92L67.8911 34.4623C67.8724 34.5174 67.854 34.5725 67.8359 34.6278L83.9912 39.92ZM83.9912 64.94L67.8095 70.151C67.8452 70.2617 67.8819 70.372 67.9198 70.4818L83.9912 64.94ZM89.0312 73.04L77.737 85.746C77.7945 85.7971 77.8524 85.8478 77.9106 85.8982L89.0312 73.04ZM96.8612 87.08V70.08C94.7734 70.08 93.6207 69.5845 92.7217 68.9405L82.8212 82.76L72.9206 96.5795C80.0616 101.695 88.269 104.08 96.8612 104.08V87.08ZM82.8212 82.76L92.7217 68.9405C91.5501 68.1011 90.1931 66.6516 88.95 63.8055L73.3712 70.61L57.7924 77.4145C61.1093 85.0084 66.0522 91.6589 72.9206 96.5795L82.8212 82.76ZM73.3712 70.61L89.0152 63.9568C87.8613 61.2436 87.0412 57.5263 87.0412 52.43H70.0412H53.0412C53.0412 61.1336 54.441 69.5364 57.7272 77.2632L73.3712 70.61ZM70.0412 52.43H87.0412C87.0412 47.2443 87.8706 43.5639 88.9872 40.9685L73.3712 34.25L57.7551 27.5315C54.4317 35.2561 53.0412 43.6957 53.0412 52.43H70.0412ZM73.3712 34.25L88.9872 40.9685C90.1539 38.2569 91.4557 36.8521 92.6317 36.0095L82.7312 22.19L72.8306 8.37048C65.9667 13.2879 61.0285 19.9231 57.7551 27.5315L73.3712 34.25ZM82.7312 22.19L92.6317 36.0095C93.5307 35.3655 94.6833 34.87 96.7712 34.87V17.87V0.869997C88.179 0.869997 79.9716 3.25452 72.8306 8.37048L82.7312 22.19ZM96.7712 17.87V34.87C99.0715 34.87 100.18 35.413 100.902 35.9385L110.901 22.19L120.9 8.44148C113.703 3.20704 105.391 0.869997 96.7712 0.869997V17.87ZM110.901 22.19L101.001 36.0095C102.172 36.8489 103.529 38.2984 104.772 41.1445L120.351 34.34L135.93 27.5355C132.613 19.9416 127.67 13.2911 120.802 8.37048L110.901 22.19ZM120.351 34.34L104.802 41.2108C105.937 43.7801 106.771 47.3809 106.771 52.43H123.771H140.771C140.771 43.6791 139.326 35.2199 135.901 27.4692L120.351 34.34ZM123.771 52.43H106.771C106.771 57.4723 105.939 61.1348 104.772 63.8055L120.351 70.61L135.93 77.4145C139.323 69.6452 140.771 61.1877 140.771 52.43H123.771ZM120.351 70.61L104.735 63.8915C103.559 66.625 102.221 68.1126 100.956 69.0381L110.991 82.76L121.027 96.4819C127.801 91.5274 132.703 84.915 135.967 77.3285L120.351 70.61ZM110.991 82.76L101.091 68.9405C100.225 69.5607 99.0534 70.08 96.8612 70.08V87.08V104.08C105.469 104.08 113.717 101.719 120.892 96.5795L110.991 82.76ZM96.9512 75.92V92.92C103.759 92.92 110.392 90.7327 115.874 86.0121L104.781 73.13L93.6883 60.2479C94.1491 59.8511 94.7724 59.4671 95.4976 59.2087C96.2054 58.9565 96.7389 58.92 96.9512 58.92V75.92ZM104.781 73.13L116.075 85.836C121.008 81.4512 124.056 75.9084 125.886 70.3222L109.731 65.03L93.5759 59.7378C93.3531 60.4181 93.1742 60.7327 93.1329 60.8004C93.1005 60.8533 93.1998 60.6793 93.487 60.424L104.781 73.13ZM109.731 65.03L125.831 70.4877C127.776 64.7522 128.531 58.6197 128.531 52.43H111.531H94.5312C94.5312 55.9603 94.0868 58.2278 93.6311 59.5723L109.731 65.03ZM111.531 52.43H128.531C128.531 46.2521 127.779 40.1089 125.803 34.3782L109.731 39.92L93.6598 45.4618C94.0837 46.6911 94.5312 48.8879 94.5312 52.43H111.531ZM109.731 39.92L125.913 34.709C124.066 28.9738 120.894 23.2171 115.609 18.7891L104.691 31.82L93.7734 44.8508C93.5822 44.6907 93.4375 44.5411 93.3356 44.4219C93.2348 44.3041 93.1875 44.2296 93.1822 44.2211C93.1761 44.2114 93.3358 44.4672 93.5495 45.131L109.731 39.92ZM104.691 31.82L115.784 18.9379C110.239 14.1628 103.548 12.03 96.7712 12.03V29.03V46.03C96.6263 46.03 96.133 46.0048 95.4428 45.7617C94.7305 45.5108 94.0911 45.1264 93.5983 44.7021L104.691 31.82ZM96.7712 29.03V12.03C89.932 12.03 83.3551 14.2734 77.9383 18.9379L89.0312 31.82L100.124 44.7021C99.6954 45.0712 99.0884 45.4544 98.351 45.7202C97.6263 45.9815 97.0522 46.03 96.7712 46.03V29.03ZM89.0312 31.82L77.9383 18.9379C72.8654 23.3062 69.7707 28.9173 67.8911 34.4623L83.9912 39.92L100.091 45.3777C100.344 44.633 100.541 44.2914 100.585 44.2211C100.619 44.1661 100.49 44.3869 100.124 44.7021L89.0312 31.82ZM83.9912 39.92L67.8359 34.6278C65.9873 40.271 65.2812 46.3235 65.2812 52.43H82.2812H99.2812C99.2812 48.8165 99.7151 46.529 100.146 45.2122L83.9912 39.92ZM82.2812 52.43H65.2812C65.2812 58.5129 65.996 64.5197 67.8095 70.151L83.9912 64.94L100.173 59.729C99.7063 58.2803 99.2812 55.9471 99.2812 52.43H82.2812ZM83.9912 64.94L67.9198 70.4818C69.8159 75.9805 72.8777 81.4266 77.737 85.746L89.0312 73.04L100.325 60.334C100.865 60.8134 100.566 60.8595 100.063 59.3982L83.9912 64.94ZM89.0312 73.04L77.9106 85.8982C83.3601 90.6112 89.9968 92.92 96.9512 92.92V75.92V58.92C97.2255 58.92 97.7843 58.9684 98.4858 59.2235C99.1977 59.4824 99.7672 59.8493 100.152 60.1818L89.0312 73.04ZM141.592 86H124.592C124.592 95.3888 132.203 103 141.592 103V86ZM141.592 29.39L158.592 29.39C158.592 20.0012 150.981 12.39 141.592 12.39V29.39ZM128.632 29.39H111.632C111.632 38.7788 119.243 46.39 128.632 46.39V29.39ZM128.632 18.95V1.94999C119.243 1.94999 111.632 9.56115 111.632 18.95H128.632ZM153.832 18.95H170.832C170.832 9.56115 163.221 1.94999 153.832 1.94999V18.95ZM153.832 86V103C163.221 103 170.832 95.3888 170.832 86H153.832ZM141.592 86H158.592V29.39L141.592 29.39H124.592V86H141.592ZM141.592 29.39V12.39H128.632V29.39V46.39H141.592V29.39ZM128.632 29.39L145.632 29.39V18.95H128.632H111.632V29.39H128.632ZM128.632 18.95V35.95L153.832 35.95V18.95V1.94999H128.632V18.95ZM153.832 18.95H136.832V86H153.832H170.832V18.95H153.832ZM153.832 86V69H141.592V86V103H153.832V86ZM168.081 86L154.651 75.5773C150.672 80.7041 149.959 87.6489 152.813 93.4771C155.668 99.3053 161.591 103 168.081 103V86ZM190.851 56.66L203.124 44.8976C199.705 41.3293 194.902 39.4258 189.966 39.683C185.03 39.9403 180.451 42.3328 177.421 46.2373L190.851 56.66ZM192.921 58.82L202.974 72.5289C206.923 69.633 209.431 65.1749 209.856 60.2965C210.282 55.418 208.583 50.5931 205.194 47.0576L192.921 58.82ZM173.661 58.82L165.078 73.4942L165.078 73.4942L173.661 58.82ZM166.101 51.26L151.24 59.5159C151.301 59.6256 151.363 59.7347 151.427 59.843L166.101 51.26ZM166.371 28.76L151.839 19.9374C151.801 20.0011 151.762 20.065 151.725 20.1292L166.371 28.76ZM174.651 20.84L182.863 35.7248C182.892 35.7089 182.921 35.6929 182.949 35.6769L174.651 20.84ZM198.771 20.75L206.983 5.86518L206.983 5.86518L198.771 20.75ZM206.961 28.67L192.315 37.3008C192.375 37.4042 192.437 37.5069 192.501 37.609L206.961 28.67ZM209.301 46.58L225.896 50.2678L225.896 50.2678L209.301 46.58ZM206.691 53.51L191.56 45.7601C191.535 45.8091 191.51 45.8582 191.485 45.9074L206.691 53.51ZM201.471 61.7L214.938 72.0747C214.993 72.0027 215.048 71.9301 215.103 71.8572L201.471 61.7ZM182.751 86V103C188.024 103 192.999 100.552 196.218 96.3747L182.751 86ZM192.291 50L200.547 64.8607C200.606 64.8275 200.666 64.794 200.725 64.7601L192.291 50ZM196.251 46.04L211.011 54.4743C211.053 54.4006 211.095 54.3266 211.136 54.2523L196.251 46.04ZM196.161 34.25L181.401 42.6844C181.475 42.8148 181.551 42.9442 181.629 43.0726L196.161 34.25ZM192.291 30.29L183.624 44.9149L183.624 44.915L192.291 30.29ZM181.131 30.29L189.565 45.0501L189.565 45.0501L181.131 30.29ZM177.081 34.25L162.549 25.4274C162.471 25.5558 162.395 25.6852 162.321 25.8156L177.081 34.25ZM177.081 46.04L162.196 54.2523C162.309 54.4582 162.427 54.6617 162.549 54.8626L177.081 46.04ZM181.131 50L172.696 64.7601C172.831 64.837 172.966 64.912 173.103 64.9852L181.131 50ZM168.081 86L181.511 96.4227L204.281 67.0827L190.851 56.66L177.421 46.2373L154.651 75.5773L168.081 86ZM190.851 56.66L178.577 68.4224L180.647 70.5824L192.921 58.82L205.194 47.0576L203.124 44.8976L190.851 56.66ZM192.921 58.82L182.868 45.1111C182.739 45.205 182.66 45.2565 182.628 45.2761C182.596 45.2959 182.623 45.2772 182.708 45.2347L190.311 60.44L197.913 75.6453C199.753 74.7254 201.44 73.6535 202.974 72.5289L192.921 58.82ZM190.311 60.44L182.708 45.2347C183.337 44.9205 183.948 44.7306 184.478 44.6312L187.611 61.34L190.744 78.0488C193.194 77.5894 195.605 76.7995 197.913 75.6453L190.311 60.44ZM187.611 61.34L184.478 44.6312C184.653 44.5984 184.689 44.61 184.551 44.61V61.61V78.61C186.573 78.61 188.649 78.4416 190.744 78.0488L187.611 61.34ZM184.551 61.61V44.61C183.155 44.61 182.547 44.3231 182.244 44.1458L173.661 58.82L165.078 73.4942C171.135 77.0369 177.787 78.61 184.551 78.61V61.61ZM173.661 58.82L182.244 44.1458C181.583 43.7596 181.161 43.3373 180.775 42.677L166.101 51.26L151.427 59.843C154.76 65.5427 159.378 70.1604 165.078 73.4942L173.661 58.82ZM166.101 51.26L180.961 43.0041C180.702 42.5379 180.401 41.769 180.401 40.28H163.401H146.401C146.401 46.951 147.899 53.5021 151.24 59.5159L166.101 51.26ZM163.401 40.28H180.401C180.401 38.6597 180.74 37.8608 181.017 37.3908L166.371 28.76L151.725 20.1292C148.042 26.3792 146.401 33.2602 146.401 40.28H163.401ZM166.371 28.76L180.902 37.5826C181.383 36.79 181.952 36.2273 182.863 35.7248L174.651 20.84L166.438 5.95518C160.389 9.29268 155.438 14.01 151.839 19.9374L166.371 28.76ZM174.651 20.84L182.949 35.6769C183.684 35.2659 184.791 34.87 186.711 34.87V17.87V0.869997C179.63 0.869997 172.697 2.45412 166.352 6.00311L174.651 20.84ZM186.711 17.87V34.87C188.826 34.87 189.943 35.2952 190.558 35.6348L198.771 20.75L206.983 5.86518C200.639 2.36479 193.715 0.869997 186.711 0.869997V17.87ZM198.771 20.75L190.558 35.6348C191.426 36.1135 191.911 36.6162 192.315 37.3008L206.961 28.67L221.607 20.0392C218.05 14.0038 213.075 9.22654 206.983 5.86518L198.771 20.75ZM206.961 28.67L192.501 37.609C192.696 37.9254 193.021 38.5685 193.021 40.1H210.021H227.021C227.021 32.9915 225.305 26.0146 221.421 19.731L206.961 28.67ZM210.021 40.1H193.021C193.021 40.9897 192.923 41.9134 192.706 42.8922L209.301 46.58L225.896 50.2678C226.638 46.9266 227.021 43.5303 227.021 40.1H210.021ZM209.301 46.58L192.706 42.8922C192.605 43.3426 192.317 44.282 191.56 45.7601L206.691 53.51L221.821 61.2599C223.584 57.818 225.036 54.1374 225.896 50.2678L209.301 46.58ZM206.691 53.51L191.485 45.9074C190.877 47.1243 189.748 48.9801 187.839 51.5428L201.471 61.7L215.103 71.8572C217.753 68.2999 220.104 64.6957 221.896 61.1126L206.691 53.51ZM201.471 61.7L188.004 51.3253L169.284 75.6253L182.751 86L196.218 96.3747L214.938 72.0747L201.471 61.7ZM182.751 86V69H168.081V86V103H182.751V86ZM186.711 51.35V68.35C191.309 68.35 196.08 67.3419 200.547 64.8607L192.291 50L184.035 35.1393C185.261 34.4581 186.312 34.35 186.711 34.35V51.35ZM192.291 50L200.725 64.7601C205.041 62.2941 208.545 58.7899 211.011 54.4743L196.251 46.04L181.491 37.6057C181.733 37.1819 182.073 36.7161 182.52 36.2692C182.967 35.8223 183.433 35.482 183.856 35.2399L192.291 50ZM196.251 46.04L211.136 54.2523C213.602 49.7822 214.691 44.9659 214.691 40.19H197.691H180.691C180.691 40.0033 180.712 39.66 180.823 39.2092C180.936 38.7514 181.118 38.2774 181.366 37.8277L196.251 46.04ZM197.691 40.19H214.691C214.691 35.3046 213.571 30.1686 210.692 25.4274L196.161 34.25L181.629 43.0726C181.24 42.4315 180.989 41.7937 180.846 41.2354C180.706 40.6917 180.691 40.3186 180.691 40.19H197.691ZM196.161 34.25L210.921 25.8156C208.542 21.6528 205.182 18.1687 200.957 15.665L192.291 30.29L183.624 44.915C183.181 44.6527 182.73 44.3064 182.315 43.8819C181.902 43.4592 181.603 43.0388 181.401 42.6844L196.161 34.25ZM192.291 30.29L200.957 15.6651C196.42 12.9764 191.5 11.85 186.711 11.85V28.85V45.85C186.46 45.85 186.013 45.8204 185.433 45.6707C184.842 45.5183 184.221 45.2686 183.624 44.9149L192.291 30.29ZM186.711 28.85V11.85C181.879 11.85 177.086 13.0215 172.696 15.5299L181.131 30.29L189.565 45.0501C189.101 45.3152 188.579 45.5299 188.034 45.6707C187.493 45.8103 187.035 45.85 186.711 45.85V28.85ZM181.131 30.29L172.696 15.5299C168.473 17.9434 165.041 21.3238 162.549 25.4274L177.081 34.25L191.612 43.0726C191.413 43.4 191.127 43.7795 190.743 44.1551C190.358 44.5317 189.95 44.8301 189.565 45.0501L181.131 30.29ZM177.081 34.25L162.321 25.8156C159.65 30.4888 158.641 35.4822 158.641 40.19H175.641H192.641C192.641 40.3378 192.591 41.3712 191.841 42.6844L177.081 34.25ZM175.641 40.19H158.641C158.641 44.9659 159.73 49.7822 162.196 54.2523L177.081 46.04L191.966 37.8277C192.214 38.2774 192.395 38.7514 192.508 39.2092C192.619 39.66 192.641 40.0033 192.641 40.19H175.641ZM177.081 46.04L162.549 54.8626C165.041 58.9662 168.473 62.3466 172.696 64.7601L181.131 50L189.565 35.2399C189.95 35.4599 190.358 35.7583 190.743 36.1349C191.127 36.5105 191.413 36.89 191.612 37.2174L177.081 46.04ZM181.131 50L173.103 64.9852C177.425 67.3004 182.072 68.35 186.711 68.35V51.35V34.35C186.949 34.35 187.321 34.3774 187.783 34.4892C188.251 34.6023 188.721 34.7803 189.158 35.0148L181.131 50Z" fill="#08262E" mask="url(#path-1-outside-1_1350_680)"/>
</svg>
